<mxfile host="app.diagrams.net" agent="Mozilla/5.0 (Windows NT 10.0; Win64; x64) AppleWebKit/537.36 (KHTML, like Gecko) Chrome/137.0.0.0 Safari/537.36" version="27.0.6">
  <diagram name="PÃ¡gina-1" id="b7O4Hl-97rk7pKAATJWq">
    <mxGraphModel dx="1078" dy="728" grid="1" gridSize="10" guides="1" tooltips="1" connect="1" arrows="1" fold="1" page="1" pageScale="1" pageWidth="827" pageHeight="1169" math="0" shadow="0">
      <root>
        <mxCell id="0" />
        <mxCell id="1" parent="0" />
        <mxCell id="NYsnEabB64EsZMsky-Ua-1" value="Usuario" style="shape=table;startSize=30;container=1;collapsible=1;childLayout=tableLayout;fixedRows=1;rowLines=0;fontStyle=1;align=center;resizeLast=1;html=1;" parent="1" vertex="1">
          <mxGeometry x="300" y="150" width="180" height="150" as="geometry" />
        </mxCell>
        <mxCell id="NYsnEabB64EsZMsky-Ua-2" value="" style="shape=tableRow;horizontal=0;startSize=0;swimlaneHead=0;swimlaneBody=0;fillColor=none;collapsible=0;dropTarget=0;points=[[0,0.5],[1,0.5]];portConstraint=eastwest;top=0;left=0;right=0;bottom=1;" parent="NYsnEabB64EsZMsky-Ua-1" vertex="1">
          <mxGeometry y="30" width="180" height="30" as="geometry" />
        </mxCell>
        <mxCell id="NYsnEabB64EsZMsky-Ua-3" value="PK" style="shape=partialRectangle;connectable=0;fillColor=none;top=0;left=0;bottom=0;right=0;fontStyle=1;overflow=hidden;whiteSpace=wrap;html=1;" parent="NYsnEabB64EsZMsky-Ua-2" vertex="1">
          <mxGeometry width="30" height="30" as="geometry">
            <mxRectangle width="30" height="30" as="alternateBounds" />
          </mxGeometry>
        </mxCell>
        <mxCell id="NYsnEabB64EsZMsky-Ua-4" value="id" style="shape=partialRectangle;connectable=0;fillColor=none;top=0;left=0;bottom=0;right=0;align=left;spacingLeft=6;fontStyle=5;overflow=hidden;whiteSpace=wrap;html=1;" parent="NYsnEabB64EsZMsky-Ua-2" vertex="1">
          <mxGeometry x="30" width="150" height="30" as="geometry">
            <mxRectangle width="150" height="30" as="alternateBounds" />
          </mxGeometry>
        </mxCell>
        <mxCell id="NYsnEabB64EsZMsky-Ua-5" value="" style="shape=tableRow;horizontal=0;startSize=0;swimlaneHead=0;swimlaneBody=0;fillColor=none;collapsible=0;dropTarget=0;points=[[0,0.5],[1,0.5]];portConstraint=eastwest;top=0;left=0;right=0;bottom=0;" parent="NYsnEabB64EsZMsky-Ua-1" vertex="1">
          <mxGeometry y="60" width="180" height="30" as="geometry" />
        </mxCell>
        <mxCell id="NYsnEabB64EsZMsky-Ua-6" value="" style="shape=partialRectangle;connectable=0;fillColor=none;top=0;left=0;bottom=0;right=0;editable=1;overflow=hidden;whiteSpace=wrap;html=1;" parent="NYsnEabB64EsZMsky-Ua-5" vertex="1">
          <mxGeometry width="30" height="30" as="geometry">
            <mxRectangle width="30" height="30" as="alternateBounds" />
          </mxGeometry>
        </mxCell>
        <mxCell id="NYsnEabB64EsZMsky-Ua-7" value="* username" style="shape=partialRectangle;connectable=0;fillColor=none;top=0;left=0;bottom=0;right=0;align=left;spacingLeft=6;overflow=hidden;whiteSpace=wrap;html=1;" parent="NYsnEabB64EsZMsky-Ua-5" vertex="1">
          <mxGeometry x="30" width="150" height="30" as="geometry">
            <mxRectangle width="150" height="30" as="alternateBounds" />
          </mxGeometry>
        </mxCell>
        <mxCell id="NYsnEabB64EsZMsky-Ua-8" value="" style="shape=tableRow;horizontal=0;startSize=0;swimlaneHead=0;swimlaneBody=0;fillColor=none;collapsible=0;dropTarget=0;points=[[0,0.5],[1,0.5]];portConstraint=eastwest;top=0;left=0;right=0;bottom=0;" parent="NYsnEabB64EsZMsky-Ua-1" vertex="1">
          <mxGeometry y="90" width="180" height="30" as="geometry" />
        </mxCell>
        <mxCell id="NYsnEabB64EsZMsky-Ua-9" value="" style="shape=partialRectangle;connectable=0;fillColor=none;top=0;left=0;bottom=0;right=0;editable=1;overflow=hidden;whiteSpace=wrap;html=1;" parent="NYsnEabB64EsZMsky-Ua-8" vertex="1">
          <mxGeometry width="30" height="30" as="geometry">
            <mxRectangle width="30" height="30" as="alternateBounds" />
          </mxGeometry>
        </mxCell>
        <mxCell id="NYsnEabB64EsZMsky-Ua-10" value="password" style="shape=partialRectangle;connectable=0;fillColor=none;top=0;left=0;bottom=0;right=0;align=left;spacingLeft=6;overflow=hidden;whiteSpace=wrap;html=1;" parent="NYsnEabB64EsZMsky-Ua-8" vertex="1">
          <mxGeometry x="30" width="150" height="30" as="geometry">
            <mxRectangle width="150" height="30" as="alternateBounds" />
          </mxGeometry>
        </mxCell>
        <mxCell id="NYsnEabB64EsZMsky-Ua-11" value="" style="shape=tableRow;horizontal=0;startSize=0;swimlaneHead=0;swimlaneBody=0;fillColor=none;collapsible=0;dropTarget=0;points=[[0,0.5],[1,0.5]];portConstraint=eastwest;top=0;left=0;right=0;bottom=0;" parent="NYsnEabB64EsZMsky-Ua-1" vertex="1">
          <mxGeometry y="120" width="180" height="30" as="geometry" />
        </mxCell>
        <mxCell id="NYsnEabB64EsZMsky-Ua-12" value="" style="shape=partialRectangle;connectable=0;fillColor=none;top=0;left=0;bottom=0;right=0;editable=1;overflow=hidden;whiteSpace=wrap;html=1;" parent="NYsnEabB64EsZMsky-Ua-11" vertex="1">
          <mxGeometry width="30" height="30" as="geometry">
            <mxRectangle width="30" height="30" as="alternateBounds" />
          </mxGeometry>
        </mxCell>
        <mxCell id="NYsnEabB64EsZMsky-Ua-13" value="" style="shape=partialRectangle;connectable=0;fillColor=none;top=0;left=0;bottom=0;right=0;align=left;spacingLeft=6;overflow=hidden;whiteSpace=wrap;html=1;" parent="NYsnEabB64EsZMsky-Ua-11" vertex="1">
          <mxGeometry x="30" width="150" height="30" as="geometry">
            <mxRectangle width="150" height="30" as="alternateBounds" />
          </mxGeometry>
        </mxCell>
        <mxCell id="OOt-s7GaTt3YAgMf_sDq-1" value="&lt;div style=&quot;text-align: start;&quot;&gt;&lt;span style=&quot;background-color: transparent; color: light-dark(rgb(0, 0, 0), rgb(255, 255, 255));&quot;&gt;username campo unico&lt;/span&gt;&lt;/div&gt;" style="text;html=1;align=center;verticalAlign=middle;whiteSpace=wrap;rounded=0;" vertex="1" parent="1">
          <mxGeometry x="470" y="210" width="160" height="30" as="geometry" />
        </mxCell>
        <mxCell id="OOt-s7GaTt3YAgMf_sDq-2" value="&lt;div style=&quot;text-align: start;&quot;&gt;&lt;span style=&quot;background-color: transparent; color: light-dark(rgb(0, 0, 0), rgb(255, 255, 255));&quot;&gt;clave primaria&lt;/span&gt;&lt;/div&gt;" style="text;html=1;align=center;verticalAlign=middle;whiteSpace=wrap;rounded=0;" vertex="1" parent="1">
          <mxGeometry x="450" y="180" width="160" height="30" as="geometry" />
        </mxCell>
        <mxCell id="OOt-s7GaTt3YAgMf_sDq-3" value="&lt;div style=&quot;text-align: start;&quot;&gt;&lt;span style=&quot;background-color: transparent; color: light-dark(rgb(0, 0, 0), rgb(255, 255, 255));&quot;&gt;Unicamente guarda los usuarios en la base de datos&lt;/span&gt;&lt;/div&gt;&lt;div style=&quot;text-align: start;&quot;&gt;&lt;span style=&quot;background-color: transparent; color: light-dark(rgb(0, 0, 0), rgb(255, 255, 255));&quot;&gt;&lt;br&gt;&lt;/span&gt;&lt;/div&gt;" style="text;html=1;align=center;verticalAlign=middle;whiteSpace=wrap;rounded=0;" vertex="1" parent="1">
          <mxGeometry x="320" y="100" width="160" height="30" as="geometry" />
        </mxCell>
        <mxCell id="OOt-s7GaTt3YAgMf_sDq-4" value="" style="shape=image;verticalLabelPosition=bottom;labelBackgroundColor=default;verticalAlign=top;aspect=fixed;imageAspect=0;image=data:image/png,iVBORw0KGgoAAAANSUhEUgAABo0AAAU2CAYAAABA3v/3AAAAAXNSR0IArs4c6QAAAARnQU1BAACxjwv8YQUAAAAJcEhZcwAADsMAAA7DAcdvqGQAAP+lSURBVHhe7N17XJRV/sDxDxcdROSighcg00HdMCtIA1YT1BJrE0uULcH1V1iWlqa5KtUWtVsoa5qWtqXYmuAWihV2o9KgLECNqUxaFSSX8YoKoiCDXH5/wIwzD7fhfvH7fr2eV3nOeR6eOc+ZmWfO9znnWFRWVlbSwRw7foohgwYok4UQQgghhBBCCCGEEEIIIUQrsVQmCCGEEEIIIYQQQgghhBBCiOuPBI2EEEIIIYQQQgghhBBCCCGEBI2EEEIIIYQQQgghhBBCCCGEBI2EEEIIIYQQQgghhBBCCCEEYFFZWVmpTGxvx46fYsigAcpk0RmU6yjUZnMoN4us/VnkmWQ64zHaA/cBHqjdnLFXmWQKIYQQQgghhBBCCCGEEKIdSdDIbHnEP+JLBFGkbQ7BWZl9nSvMTGT9G+uJ/zKLQmVmrVQ4T5zF4ifmEOIltSmEEEIIIYQQQgghhBBCtLfOPz1deSpRajWeKzTKHHQpkajVAazPVOZksfV+Neqnk8wMcIj6FH62CN8pi9hkdsAIQEfe7k1ETPdn0Wfm7ZW3Ixy1Opz408qcdnIgCrVaTdSBa0maFWrU6ihqtkZRH6k3oVdUUsoj0dt5JHo7RSWlymwTuzOyuH3uWnZnZAFQUlpG5JavWLxhV4P7dlXHTl1g1qvvs/XLH5VZbUJ5Tdrbrzmn8X/6LTZ+km5I62jn2FlIvQkhhBBCCCGEENeHzh80shqB9xTQpf2KaTeGjoyUeCCXpAOKDo7CbDIOwghvNfamOaIJsn9JRKdMNJuOxF+ylYlCmDq+lenq6Ww9rswQtamshG27NUxY/Da3z13b5G304+uYHrmVzONnlH+iwzp3sYj8S1eoqOhwg2jbRFl5BWfyL3HpStsEzS4V65j16vu8sfN7ZZa4zkhbaLqKikpSDx3n8TU7GfPUem6fuxa/+W8S9up/SPwhk5LSMuUuhoCo8nN7zFPrmb/2Q46duqDcpUu5WlZO7FcZ3PfsZkY/vo7Rj6/jgb9t4bP0/9b6+X/qfCEvvJtkqN8Ji99mVXwKl6/UvION2Pg5f4rYzNmCy8oss508X8jK/yTz961fm6TrH4xQXjfjzZyHJoQQQgghhBCiNRmCRlqttsbWWM3dv2nsUXuPgIMZZBsPWCnPJHm7Dnc3dw4lZ5iurXMkgyRUBIz0ME4V7UTVbmsb5RH/iBr1I/GKtZdER5OVsh3NvX9h6iBlTseXkJCAv78/a9euVWaZCA0Nxd/fn/T0ayMimir75Dk2f76fi0UlyqxGqaisJOfUBd788Ad0V2t2WnY0Nt2teXPB/by7LIRetu32wdKuhrn15ct/Psq8qX7KrFZxODePc4VFTBo9TJnVYlqiA1e0vrZoC+bqTG3mYlEJi9/axbMxX3Cbx0Bin32Iz1eGs+OlWUz3v4W4rzU8Eh3P6QuXlLsCcJf3UF4Jn2zYQu/yJvP4Web8czs/Z59SFm8x7VnHV8vK+cfW3azduZdhbs48P2siz8+aiLOjHZH//opX4nZTVl5hKP9z9ilCX/kPyT8d4+5Rw3gubCJ33OTOh9/9Stir73Pi3EWT4zdVRUUlPx45wRNrdjL1+X8Tn/wzxSVXTcqoulkzd4qPyTXTb0tC/LHvaYOXx0B62nQ32a8+5t5nzJw5s8XuM4QQQgghhBBdm6X+h0ZtW0JCgrJ8DVqtlqVLl6JWq2vsHxoa2iY/TDxGBqAikQzjaegO/0BS8QjCwgNRpaSSYRRQyspMRUcI3p5G5QsziX9hOr4j1ajVXgQ+sZ5UcyIJ5XmkvjmPwFFq1Go1XpPmEbU7V1kK8lLZtER/fE98/xxJfKbptGyG6dc0qax/IhAvtRr1SF+mv5BIbjnojsQT+WdfPNVq1KMCmfdmKnnlJoeA8kIyd0QyfYyn4XzWp5nzQprOK2wNgU7KVPOoPENYM8NLmSzENeWZJMUcInBSQKccGejj44NWq2Xnzp11duiEhoaSlpaGm5sbPj4+yuxGKykt42qZ8sOh6UpKy0w64ISgekTb5/v+y6B+Tgzq18QvAdElSFtomkvFOpa89QkAH/19No9P8WXwgN64ONrh2teB+8eMIPbZB/HzHMQL7yZxqbjmqBgP1z5MvmO4YZs31Y/X5wcBEPtVRpf87P415zS7NVmE3uXFa09MYeqYEUwdM4K3Fwcz867bSNp/hIPHqgJmBZevEP1+MvY9bdj67INEzr6baXfezIpH72XD09MoLCohats3tY7maqzM42dYvCGRE+cKWThtLMPda67ZaW1lic9NN5hcM/0GYGVp0ejAqzn3GTNnziQ9PR1XV9cWuc8QQgghhBBCdG2WS5curXNUUH15egkJCXUGl9LS0li3bp0yueV5ehMCpB65Ng1d1oEkct0C+eOf/QghkVSN/od2IdkZh8DfkxH6B9GLNURNn0Lk4dtZ/HossVteIvDCesImLCIp33DImspziX/Cn7C3zxL4YiyxW2J56Z6zbH0skPAdRoGj04mETwhj9eGhzH89ltgtK5jTO5WIKTOIOqDsAEgl8tEotGMj2LAlhqgH3ciMW8SsmdMJCo5HNWMFMVtiiHqgF8lrwlj+oXFASIfmnzOY8tKv3L5og+F81oeav25QkwwIYkO6hqR3IpnzgB8j+tf/hL+q/wgCQyOI+iAZzUdR+Nkr66ABp0yDauErkslV9o+X55G6cZEheOY5ZjqRO7IM0+hVraHjS0QKkBKBr1pN+A6jumxg/0Yx91jmllPSr62UZhzA9MT3sVoCnw39jeNbma5WM2+Xor0UJrFIrSbovWvvscLMRKL016GeQKu55eqk+Zj1F2Yxa5I+ZFQ9QuzpRLLS1jNvklf1awmvPUBa62vOpFDZZlqJm5sbKSkpdXbo6ANGvr6+xMXFmeQ11zMh4/h8Zbhhi332IVwc7Zjuf4tJevyLYXi49sX/1iEm6Z9GPYLfiPqHd+3OyMJn3ht8tPdXnnnrE/zmv8noJ9axeMMu8gqKDOXOFlzmTxGbidj4ucn+ta05A1BZWcmnab9xz7IYbp+7lrv/upEPvvm51mmH9OpaD+nyFR1RcXsM0xLdsyymwWM15nxLSsvY9Nk+w3SAExa/zWvx31JsdA4bP0nH/+m3+DXHdFG22p7WV06jdM+yGD5N+y+VRqerP9773/zMtBfeMxy7tvOjeq2jea9/WHV9qqcdTD103OSYVP9tw3Wsnu7pi/2Ha5QDOFtwif3/zeU+35uw6W5tkpdXcNmkPTy57iO0eaZP81dUVPJZ+n954G9bGP34Ovzmv8kzb31iaDcbP0nn9rlr+fLAEU5fuMQ9y2JMrkdD+zeGuce6fEXHqvgUk2u9+fP9DQZp9e1p+cbP+DTtvybtWnltGzqX3LMF3LM8hr9v/dpkvwuXigl+8T0WrU80BArMaUuNKVeX2trCxk/SuWvJOyTtP8LDK+MZ/UTVa4mK22Py3sBoqjF9vYx5aj1RcXtqTB1WUVHJrh8yTcq98G6S2W2muKSUqLg9hnb58Mp4Pv7+EP5Pv2VYq0l/rZb86xNWb/8Wv/lvmhzjqPacyeuprZ2Y8z7STyNaVl7B3x8OxKGnjfEhDLpZW/HofT6oulnzSepvyuxajbixH7eqB5B5/AwXLhVDF6vjC5eucEV3lZGDB2BhYUjGwgLG3+aBs0NPsk6cB+DAES1HcvOYPm5kjYDmreoBPDD2Zn7KOslvLTANq7uLI1uffYiP//F/PHDnzdh076YsUqdLxTo+S/8vXh6uqAf2UWbXq6H7DH3AyMfHh23btpnkCSGEEEIIIURtGlzTqKGRQvv27VMmmUhLS2sw8NRsqhF4+sOhvZnV04zlkZF8CNU9f8RT5Y3fFIhPrR6GVJ5Nxm5wH30zVc//6dCsW8Qm3Rxi3o0gZKIffmODWPzuBmaRSNT7xsOXTOlSY4jc7cKcd+NYPMUPv7F+BC3awY5FLiS/FIumHEBH6jvLSe49h5gPophVffw5b24iamIum57ZRKZJX5MLs97cTlRoAH5jAwh5Lo4N0yH3wDkCNsYRMV2fvoKIkZD8ZaphajXdgdUs2qhjjqGcH0GL4tgQCokrt1L3K2kezT+9mL4sHu2Nk1m8MpbE7zPJPpKJ5oBGsWWSnZ1N5veJbFgeyM2nkol6xAuvDY05s1Qi/xLJIe/5bNgSy5oF3mg3hhP4TBKGMIchmJfH+OUxxG6JZcV0iF8WxLzqIJvXAg2aA7uI9AV8I9l1QMOaKdVPhJqxv9nMPZa55eqR/EI4Uaf8iHg9lpiVs3BLXU3YMqOp98z5G4MmE+IPSbtTr9UnoNOkksgIZoypmtJRdyCKGVOWk9o7jDVbYol9ZzHe2asJC12NIT7biHJ105H62VaYEYi3Mha5ezkzXtHit2wDse9EMcstldWh/kSmGB84j8Qn/Albl83QeVWB1BX/50LqsinM+Kem4YBcC6mrQ6c1A0YA/Zx64eJoZ9j6ONhiaWlBX3tbk/T+vXvR06Y7qm7WNdJ79VBWfE1l5RWsfD+ZnjbdeHH23UwdM4LUQ8d5en0iBZevKIub5dDvZ3j38wM8NPE2XvjLXQzq58SqD1L44JuflUXrdalYx6L1u/hi/2HC772DV8In4z3MldfivyXm8/1md4rXpbIS1mz/lphP93Gf3028Ej6Z+/xuYkfKLyx957NGP71+4txFnnj9Q37KOsVT08by0sOTGDygN//Y+jW7NUdNyhaXXGXtju9wtOtB4OjhONr1MMnXO/T7Geb8czvavIssnH4nz8+aiKNdDxZv2EXSgcOGcucLi3nqjY/57fhZFk6/kxf/724G9LHnbzFJvL/nJ5NjAuz/r5ay8kpuVQ9QZrE2YS+WFhY8N2siswNHcfDYKZ5en8j5wqoO7MpKiPl8Py9t+YqRQ/rz90cCefQ+Hw4czuW5mC8oKill5l1efL4yHP9bh+DiaEfssw8RETrB7P3NZe6x9G3p07T/Mutub14Jn4zfiEH8KzGNrV9lKA9bq9RDx9n8+T5mTx7F8ofG49DThuj3v+HQ71XBRHPOxc3ZEW8PV37KOkn+5ar6BDh28gKnzl8i4DY11laWZrclc8vVp662cPFyCa/E7uaWIQN4cfbdjB05mJ3f/crzm5MMgbay8gpejdvD2p17Gf0HN14Jn8xDE734Yv9hFq3fZTK65oNvfubvW3fjPcyVV8InE37vHaT8fIwnXt/J+cLietvM1bJyVv4nmZ17f+XuUUP5+8OBqF37EP1+co0pxAC+/TmHL/YdJuA2Nd5DXaF6mrO5qxOwsrLk+bCJLJx+J78dP2v4+zTifaTNK+DTtN94+J5Rhuk08wqKWLxhF6OfWMe4hW+x6bN9lJSWYdPdmhkBt/DNT9lmtW1rK0uTgEVXq+PevXrQQ9WNnd8drBGAvFU9gA//PpsZAbcAkJ75P+x6dOf2YW4m5fT8RgyioqKSw7nm3WvVx6GnDTe4OJoEssylyTrB76cvcP/YEVhbNfjzrIa67jMkYCSEEEIIIYRoigZ/lezcudMwmqi2rdUDQmZx5ubR7rD7EFnlQGEGqSkQ4udpWPNIl/YrWQC//0pqMQR6Vc9NV57JF3G5uD84FT9bo0PaeuM3EXL3/1rHejc6Ur/cis5tBlNHmXaqeoZuIvatyfQtA3SpJG3R1Ty+lTtTQ0NAu51vrvXZAWrUNxofT4WDE0AgAaON0z242Rcou7ZmSebXW8l1m8FUX9P9vX0DQZvBr6YPuLegQjQfRhE+yRfPYZ74Tgli3kvr2fTvTWz69yY+3q9FZ2uPvSqb+Oeqp+gbGcCUpyPZurfxI6ACV25nw6NBVUGxRzew6ZUAdLui2KqPPWUmEX/Wg8UbY5lvCOZtZsW9OpK3fFHVDmztsXdyrlpPSaXC2ckee321mbO/ucw9lrnl6jPhJba/MouAsX4ETI9gxV9HQErStVE9Zv0NZ8bfGwC7viDVcGl0ZKTEg9cMAtQAeSQnpqJ6YAUx1X/Pb+Isol5bjHv2ej5O03c+mVuuHvlJbN3iwvwH/KgRuug9iw36QOzEECK27WCxWsfWN+LRj/PT7V3P8t0uzNmoD8RWt5mVAeRuXMSmg4pjtiJlh46/v3+rBoza2v8FjuKl/wtk8h3DeT5sIgumjeWo9hx7D/6uLGoWh54q1j41lb9Mup2pY0awZt4Ubh7cnx3f/mJ4ct4cKT8f49ec0zwbOpFH7hnN5DuG849HJjPljzfx8fe/crag9nVCzHW+sIjUzOOMu2UIi6aPY/Idw1k0fRzB/iM5lHOanEYuRv/Dr8exsrRg5WP38uD4W7nP9yZefngSA/rY82nqbzWmmnrk3juI+esMng2dgJuzg0ke1Z3F//7iAHY9urPh6Qd4cPytJvX5zq50zl2seoL/YM5pjp/OZ2HwWMPffiV8Mh6ufdijyaJYd63Tt6S0jE/SfsNvxA24OTsa/cUqQX/0JHrun7jP9yaevP+PLH1wPLlnC/jqwBEA8i8Xk3roOFPHjDC0m0fuGc2jf/Lh15zT/Hb8LD1tuuPiaIeqmzWWlhb0cbDFvrpz3Zz9zWXusQ79foZTFwqJnH03D1e3pb/NugvvYa58/eNRCs1YQ8yply3rnprKg+NvZUbALSx/aDxXyyrY/9+qTy1zzsXCAsZ7qzl5rtDkdaYeOo6DnY2h893ctmRuubrU1xYsLS1Y9tB4Fs24k/t8byJ67p+YdufN7PtvrmHU3cFjp/jqx6PMufcOw2t+8v4/EhE6gV9zTvPx94cAKNZdZY8mC88bXYiYOd5QNwumjeX46XwO5pyut80YT2lm/Fn11wcDTM5Zb2Bfe95dFkLUo/cwI+AWikpKWZuwl0H9nFgzr2pKtAfH38pL/3c3py9cMrRtc99H3//6Ow49e+DlUXW9Ci5fYcm/PqGblRUf/X02L86+m/hvfibrxDkAhrk5c/mKjlPnG75vulSsQ5t3EYeeNth0s+5ydXybhyuzA0ex77dcpv5tC//alYY272KtDwFcvlKKrU13+jgY34RfY9Pdmm7WlrVO/ddWSkrL2Lb7J0YM7l9ncMsctd1nSMBICCGEEEII0RQNBo3S0tJYunRpnVvHCBqBp1cgkETGYf2oiCD8vKp+xHqMCsT9YDIZp6HwcAaHCLq2nlHeUbKKIXfVFNTqqnWJqjYv5u0y+RMKhZzVAmrn6hFLRpw88BvrhbsKyD9LLqB2rlEK1XBPAsgl6/eGOwAAbKyUKcbyOHpEB9rVTDF5HWq8nkpUFm5FOvIyD5EUt571b1Ztke//SlWPvxtTX97BrrcW49fkJQ/88PM2XdnGfeJUAsglI7M6OjJyDjs+SmS+yVJJ9ri7Age1NNhF3Nz9jZl7LHPL1SPgLi+TwIrHMD8ASvQj2cz8G84TpxJoPKVjeSbJ23V4PRCAe1UJAl9OJHFVkGnbd3ZGDeTm6duzueXqVrj3C5LcZjB+pDIHUKvxMAnEehL0iB9oktHkYRrYNQmkgvuUWYSQy/a9jRnl1nzGHTparRY3N7dWDRj9fevX3Lt8s2ELfeU/nM2/zL+TDpikB7/4HgdzTpH8Uzb3LI8xpN+zPIbkn7KVh62Vh2tfk6erx3up6eNgS/pv/zMuZjZ3Fydc+157r/eyVTHulsGcu1jEyXMNtx2qAya7M44ysK89o/9wrSPOwgIeu8+Hp4PvbNT0QbVRdbPGoWcPTp4v5PSFqvOysIAlIf58s+ZxbhrkotylXjMCbiHhpb+Y7NdD1Q1Hux5cLNKhu3pt5JKtTTf8PG+o96n2k+cL+eXYKXxuusEkqNTLVsV9fjdx4txFwxP2DrYqVN2tyTx+xjBCyqlXD/7zt1A2LpmOrepaXR0/k8+xk+eZ4OVR69+/4ybT8/K5yZ1+Tnb8nF21zkjvXrZsXloV7DIuN6CPPbqrZVxsIADT3P2NmXssX88b+OTVR/C/dYihjE13a5zsenCxqIQSo2tTl5tucMG177Xr4ObsgIOdjSEwY+653KYeyIA+9uz7rSrYVFRSiibrJDff2J8BfareN+a2JXPL1aW+tmDT3ZpB/a4Fkiws4E9+N2FpYcFPWScBSP7pGDbdrZnobbr/Hz0HMXhAb344dBzd1TK6W1vhaNeDvIIics9em+oweNxI9v9rAQFG16U2Bw5rsbSwqHGeHgP7YGtT83NAea1yTl0g++Q5AkcPM4wMAlC79jFp2+a8jyorQXP0JN5DXQ3H+iT1N4pKSln6UACufR1w6GlDT5vu9HXoCYBdj+442vUwCd7WpuDyFdbs+I7DuXncdftQ7HvadLk6trCAOffewfqnH8DF0Y6YT/cx9fl/M2npRmK/ymhwusjaHGtkgL8l/Xb8DJm/n6l1qs/Gqu0+QwJGQgghhBBCiMZqMGjUaXh6E0QuGZm5ZKbGw73j8dP3Nw7/I4G2yaRmFHJIkwgjvVGbxh0Y8cgaYrdUrUtksj3lh6Joyymj5afHGjmnahqwGtuTzQjUNEBVYwxITYVJRPh44XV/BN/0nkVsehqxT1YFOdwdzNi/Ps7ueADJWUYBzMJMElfMI6h6HRu1Ws30jcY7NaC5+xsz91gNlateu+jaFoXGKLuG2vodGvobAE4BTL4Xtu5OrWqfmT+QVOzF1LFVISO9vL2bWDRbv1aRGvWYCJJNSjSuXE25fLwlCa/HgtDHeBvi7jECyKaqD7yewG71lJa5h3NNpuFrC8uWLTP5t3Ltga6il62KAb3tOV9Y3GCns7lu6OfE5SulnMm/tv5Pfao62XU49OyBqpvpG6KfUy/uun1oneuImKuXrYp5U/04faGQoOf+zQN/28K6nXs5acZogLoc1Z5j/toPDevLjFv4Fj9nV3WwN1ZhUQklpVdxcbRTZqEe2Aeb7tbkni0A4ObB/Zk50YttuzWMX/Qv5qzawUffH6ox/RPAl/uP0M+pF7cMqTk1XW16qLrR18GOM/mXDdNrlZSWsfXLH7nv2c2Mfnwdt89dy9K3P1XuWqfm7m/M3GPp1/4JWPQvbp+71rC2i55+TSl9Xm3rWBmztLTAUhFpMedc+tj3xGvoQPYfzqWwqARt3kX+dzYf/1uHmExtZW5bMrdcbRrbFvr37kUvW5XhPXK24DKqbtbYK96L9j1tGNTPiTP5lygqKcXaypK5U6rW9gl79T/csyyGV+P2cFR7rtYRJkrHTl2gl62K/r17KbPMcib/MpevlPLPD1IM1/f2uWu5e8lGfj99bQFMc95HRSU6zhRcYsjA3tX/LmWPJpsxI26kj33V0xAXi0ooLSvH0rKqfVhYWFBSWlZj/aR/7UozOZ+Jz7zDrtRMQsbfwqy7vaEL1jHVgaM7/uBO3HMPsWf1XP72l7tw6GnDmh3fseydz8yaxs/YkAFV16KtlZVXsG33T/R16Imv5w3K7CZZunSpyb+76n2GEEIIIYQQovU0GDQKDg5m27ZtbNu2DTe3qie1fX19DWm+vr7KXdqHvRrvkZCclcyvaToC/I2CPVae+D0AiWnxHMoElf/NVK3MAji54A4UOnjgN7Zqyi6Tzcu95rRYADjjrgYu6DBd2hso11GYX4iu/Nrxs/NqTnKny84kFXc8bmyJsJQ9Lm5Avj0efrW8Dv3Ip1bgFbaBOV4NvIbii5wtBl1mPBFTfAl64RscwneQtmsHm2abGxIwU3EqkROmsFzjwZx/JRnWVIqZrSxYh+bub8zcY5lTTj1DEQicgdoou0Hm/A0A7AmYFAgfJpOhg8y928n1mkrAoGslsuLC8J+9HZtJkWz/vnrNql2RVI1tany5WmUns10TyF/uNQ1WtYySVojYNsx4DaPa1h5oaX+bdRefrXjEsMU99xAuTnb8X+Aok/SEl/7CyMEDCLhNzecrwg3pn68IJ+C2RrWy65LfiEF8EvUIr827j5sGufDR3kNMff7frNn+XYNTeykdOKxlzqrtVFbCGwvu5/OV4ex8+S+MuLGfsmizVVRWmnQEd7O2Yt5UPz5fEc7iGeMAWLntG/707Lt8/+u1aQYLi0pIzTxeYzRAY1wtK+eFd5PY9Nk+Hhx/Gx/9Yzafrwzn+bCJyqK1au7+xsw91v/OFhD+zx0czj3Hyw9P4vOV4Ya1XfTcXRz526y7eCV8Mq+ET+Zvs+7C3aXm9H11MfdcLCzA/9YhnDpfSPbJ82iOnqCbtZXJmkLmtiVzy9WmJdpCXSoroaLCNFLh4dqXD14IJeavM7jzlsF890sOM/+xjaVvf9roIEFTPTTxNsP1Nd4enHArmPk+KtZdJa+gCLvqNePOFxZz4txFbjG6fnkFl+nnVLXenJ6FBVgp1ru5y3uoyXlsePoBktc8zpIQf7pZ1ztEvdPWsVIvWxX3jxlB/AthhN97B9/9kkNq5nGoHqFVXFLK+Yu1T2taUlrG1bKKJq0j1BKyT57nxyNa7rljuGFUWXMYr2HUFvcZQgghhBBCiK6pwV9Irq6u+Pj44OPjU29affTBptblwc3+KtixmtUHRxDgZTy2QIW3bxCkxBKbBiGGuekAlTd+01Xkvr2RREVcR3cwFU09D4uPGB2C6mAMSYp1UbLiQvEat5qMMkDlR+BsFbnvf0yq8e/V8lw+josHtxmMH26U3mQqvMeGoNKuZ+NnihdSnElqfS+kmfKK1UTs0KD5Mpao5bMIHDkC59qnjq+m49D7EUwZE0RUpgqX5vYznT5KFhDgUdXO8pI2sTU/gMi1iwka6Y69kz32TvY4XOt3qVdz9zdm7rHMKuekDGx6NGoUnFl/o5r92MkEFseTfDCLH5NyjaamA9CQuCIVHl1BVKgfHv2rjmPfW6UIsJpbrnaZn8dw6N7JBDRihFxu1iFAjbsz1wKp2Xk11yXTZZOZBu7D3RtVh81hHDCKi4ursfZAV+vQuVSs49SFQvrY29YY5dNUx06ex65Hd/o51Rw1UxtbVXecHXpSUnqVckXwRne1jHMXi5o0jZEx3dUyzhZUjXwad8sQXp1zD5+tCOfu24eS+MMhjmqr1iMx18ffH6KXrYoXZ9+F91BXXBzt6OvQE2ur+jt/62Lf0wab7t0M52gs59QFdFfLDEGNwmId5wuL6d3LlhkBt7BpyXT+87dQevXozr+/OGCYFuun7JOcu1jE6D+YH9C9fEXH2YJL9HOyo6dNd7JOnGf/f3MJu8ubsLu9ce3rgIujXY2REHVp7v7GzD3W7h+PUlSi42+zJjLuliG4ONoZ1nbRc+hpw123D2XyHcOZfMfwRo9mM/dcADwH9cOply1pmf8j/bf/mUxNRyPakrnlatOUtnD6wiUuFesYWH2uLo526K6W1VgT6lJxCbl5BYbAydWycs5dLKK0rJzbPAbybOgEPo16hIfvGU3yT9nsP1z/dMnD3PpWtUMzRyoqOfS0QdXNmv5OvQzX13i7VT0QGvE+MlZYVIKlpQXOjteCBpeKdVhZWmBRPRKtqKSUy1dK6acYNejh2sfkPHxuusEk0EQXq+PSsnKe35zE/638gPOFpoEgS0sLxt0yGFubbuScrJpuzsfzBi5fKeXHI7Wfe+qh41haWnCbR9X1a0uVlbDz24Ooulsz+Y7m/xgwDhjpH/bryvcZQgghhBBCiNZj2VBAJzg4WJlk4o477lAmmWjo+C3J0zsE8gspdAvkdsXD8fbefgRoc8klAM/hxl3W9gQ+FUkAiSwKncemXamk7k0lceM8gu4P583PcusckGA/cR6RE8+yeuZ0Vuv3ezOMGS9lEvBiOH4qABV+j60g4MImwv8cwdbdqaTuTWTTk3OI2O3OnNfm4Nlwv4xZqs4HEp8OY97GRFL3ppK6axPz7p9C+FtfkFvXC2km7X8C8JyyiE0a8J6ymDUJiaQdzCY7O5vsgxo0r0+tOT0YQPEh4pdNwXdcOOv31ujWr0MqSXur1nDQy01OIhkvAkZX/5VyAB0Yz4hVnsvRazMI1a+5+xsz91jmlmuOxvwNpwCmTtGxdcVyth8MIGSiaYegrhh05aadT7rfs1GufmNuuRp0qcS/fZZZfw6sO6iTnU2WSSA2i+QdqeAVQFXMWIXfpFmotNv5OM208efu2ko87swY28Kj3OqgDBjptXaHzpn8S5wtuGzYzl8spqKiknOFxSbppy9UTU106YqO0xeu7XP6wiUuXTHvgyPrhOn0RWm//Y/zF4vxualquh1bVTecHXuaTE8GcOFSsWHdD2O/n75A1onzhn9fKtbxw6Hj3ODixKB+5kUSLSxg1HA3ck5d4CejqbYqK+GtxFRmRb3P6Qu1rxhm7vkeOKxlyrPvsj35F0OaTXdrfG66gYrKSsorqoJVN/RzorjkKqfzr/29ktIy8i9fMfyb6qmKyitMRwDlX7rCuYtN64Qd2MeeW4YMIP23/6HNuzYu9lKxjk9Sf8O1rwPDq6KsvLFzLzMit3L0xLVAl5uzA+qBfarPqZKy8gp2/fAbt6oHoh7Yx1BO6dufj5kE5A4cPsH5i8WMuflGAMorKqiorKSsun6ovi5ZRn+7Ps3d35i5xyorr6gamWF0cS4VV71nWoq55wLQ16Entw9zZefeX/nxyAkC7xhmMlrC3LZkbjklc9pCSWkZx89UTX9I9WvZo8miorLS0EkfcNsQSkrL2J2RZXIOP2QeJ+fUBf44YhCqbtYcP5PPg3+PY/X2bw3lLC0tuOMP7nSztqoRGFa6zWMg5RWVfJ1x1OTvZJ08T3FJzUCOkodrH9ycHfhw768mU8RVVsLegzmG9abMeR/ZdLPGoee1taysLC3RlZZx4VLV50FJaRk/Hj1B71629Khed+2//zuLraqbydpk5upKddzd2opBLo78dvwsaZk118zT/y2X6ocLRg1zY5i7Mzu+PcjxM6ZT3P2cfYoP9/7KbR4DuWlQwyPrWpo2r4BvD+bwxxGDcHM2f0RibZQBI73Wvs8QQgghhBBCdE2WCxYsqDWw4+bmRnR0dK15xhYuXEhwcHCt5YKDg4mOjlYmtxrVcE8CANU9f6y5Bkp/bwJGAm7e3NxfkecWQsyeWCJuOcumZ8MImx3Oq1+rmLElhZgH65qeDrByJ+StFGLnupD0Uhhhs8N4MdGeOVtSiJlu1MneP4iYPbEsHn6U9U+HETZ7OZsu+BG1azsRo+o8euPpz2e5J2f/vZyw2WGEr/gC1YxYUt4KabXp6QB0mYmsXxZG4BgvPIepUY8KJOj+IIJmhhG2MrnmSA8jutPJrJ7tS/iO+kpdk/pSEGFvVgXFEt8MI+i5ZFShTxJSPX2a8+gAvEgl8olFbNqVSvKO1Sy6P5CIFOWR7HG/UQX7k4jfnUrqkarRWObv3zBzj2VuueZo3N+wx29SEDqNhkP+gYw3ec94EjBbBZvnEbYinuS9iWx9IQzf0E2YhvPMLVeTbn8S8YQQOLqeRqvdRPjDUVXXbm8i6x+ZQaTGgznLQwyjolRj57Ni4lk2PTqDiLhkQ0B4zrJk3B9dw5yR+oPp0LwZhNeU9Wh0AHkkPuWF11OJVW33dCLzRnkxb5d5bdRYQkJCrQEjPWWHTnp6urJIk70W/y33LIsxbGGv/oezBZfZkfKLSXrIS7FknThH6qHj/ClisyH9TxGbST1UNcVPQ/79xQFeidvNF/sOs2b7d/zz/WRuVQ8wTN1l10PF7UPdOHjsFK/G7eGLfYd5JXY3z8ck1ZgeCeDylVIWrU/k3c/38/H3h3h8zU5+zTlNsP/IRk2DNfmO4dw8uD9/25zE5s/388W+w7z47yT+s/snpt05EjdnR3RXy/jrvz5l5j+2GZ5cN/d8b/MYyK3qgbyVmMqa7d/xxb7DvPv5fl5P2GsS4PIc5EJfx56sjv+O97/5me3JvzB7xQdojp4wHAtgzM03cq6giIVvJrI9+RdWxacwK+p9Tpxr2mhRaytL/m/yKC5fKWXe6x/y/jc/8/H3h1i0YRe/5pzmsSk+himR7h97MwB//denvP/Nz3yx7zAvv/cVe3/9HS+PgfS06c6p84Uc+v1MjbVzlL48cITFG3bxSdpvrNn+Ha/G7WbIwD6MHVkVNBrUz4kbXJyI/SqDV2J3sz35F+as2s6mT/cpD8XAPvZcKCwmIeUg6b/9j7Lyikbt3xBzjzVquBsVlZVEbPyc9778kX/tSuPBv8fxy7FTJuWaw9xz0Qu4TU1hUQn2PVWMHGx6c2NuWzK3nJI5baGsvILo97/hzY9+MLz34r7WMNHLg5urz3fkkAHcfftQNn22jxf/ncQX+w7z5kc/EBW3h5sH92fqmBEA3Ni/N3eOHEziD5mGcu9/8zMvv/c1DnY2DHPra/i7tbWZmwf3Z6KXB3Ffawz7/yN2N/9837xV9hztevDIvaM5ea6QJ17fyfbkX/gk7TeWvv0pS9/+jO9+yQEz30eq7tY42vXg2KmqwLibswOufR3Y8sUBfjt+luj3k8k+eZ7f/neG42fyyT55nnU7v2e6/y2N+vzT62p1/OCE2/Ae6krkli9ZvGEXH39/iE/SfuPFd7/kn+8nc5vHQCZ4VU1E7WjXg+UPjafoio5Zr75P5Jav+Pj7Q7z47pfMe30n9j1tiJg5HpvupiNir+iu8o0mmy/2HTbZvv7xqCFA2Fxf7DvMpWId9/nehGJps0ZJSEioNWCk15r3GUIIIYQQQoiuyTI4OJiUlJRat4ZGGelFR0fX2DclJYXo6Gizp7BrEf1DiMnOJnO5lzIH8GDWR9lkp8yvGVACcPZjzqod1SNkMkn7YA1zxhqPj3EmZHM22ZtDTEfNWDnj9+QGkg5UjazRfLmB+Sb7Vatx/EhCPE3HUDhPjyE7O4YQRVDLa3k22dkRKF+V1/I6zufRNez4PpPs7Gwyv9/Bmkf9cG6h0Uxmy8/i0MFDVdupGqs+1aDyDCHEt5Z6q8GPyG0b8Du0nnmzw1j0dhbei2JJeTHgWnBv0CziPo8iRJVM1NNhzFvzAw6zE9n1ih9wiKOGGUpU+D2yhlnDM1j9WBjzvqwe/2L2/mYw91jmlmuORv4N+7GTCQIC7h2vGCmmwu+5FGIXeZMVF0H47BeJzfNjw/exzAGSD2c1spxSIUkfbMVlbkj1aL06+EcS95Q9ySvnETZ7EeuzvFkcF6sIxDoT9FYKsQvUHN0wj7DZYSz/91n8Vu5i+1+9TALCJRdzKTxVSFVX0EXO/q5Dd6Gk6t+6Egp1uhpT+5jDx8eHBQsW1Bow0tN36EybNq1FPzPvHzPCZD2Ip4PHYtejO38cMcgk/dnQCfTv3Yvh7s689PAkQ/pLD08yjEJpyPz7/0j+pSu8tOUrtu3R4HPTDbw65x6TDs7we0cz7c6b2ZORxd82J6HJOslf/+xveCLc2Mgh/XkiyI/45F94+b2vOVtwmcj/m8TUP1Z1bpqrl62KNfOnMHn0cGI+28dzMV+w/79ang+bSPg9ow0ddeUVFdVrW1wbHWPO+fa06c7r86cw7c6R7ErN5LmYL9j02T7uHHkjq+dNMbx+dxdHImffjU13a/75fjKvJ3zHbR4DeWjibYZjAfzJ9yYi/28SFy4Vs+I/37D7xyyemTGOid4enLpQyKVi80Z+GRtxYz82/XUGbs4OrN3xHf/YupuCy1dYPW8KgaOuTYmkLKevq4XTxvJ4UNX6hSk/H8Omu3W9C7ZbWliwaMaddO9mzStbdxvaw+vzg3C06wHV12X1vCn43HQDH31/iNXbv8XRrgdRj95DT5vuHNFeC9DOCLiFP9zgwubP9/PvLw5QWlbeqP0bYu6xvIa68toT96HqZs3ahL3Ef/MzweNG8n+Bo1psxJG556J30yAX3JwduHXIQFwce5nkmduWzC2nZE5bsOvRnYXBd/LjYS1/ezeJrw4cZdrYm1n2UIBhvR1rK0ueDZ3Awmlj2f9fLc/FfMF/dmuYPHo4a+Zfew/VVm7tju9wc3Zg/cIHTNaOqq3NdLO2YtlDAUwbezNfHTjK395NIvvEeZY+GICtTdVonoZMHj2cNxfej62qG9EfJPPSlq84k3+J158M4k++N4GZ7yNVN2u8PAay/79aikpK6WWrYsG0MZy+cIlHouPpZmVJ7LMPMszdmRmRW3l8zU4eHH8r9/r8QXFG5qmt7jpzHVd9rgfx7MwJ/O9sAf+I3c2L735JauZxHrjzZpPXRPX3yXsRDxJw2xC+OnCEl9/7mi9/PELp1XJu7O9kWFvK2MWiEqLfT+a5mC9Mtr9v/Zrcs9dGzzXVuYtFfL7vcIuMctLfZ9QWMNJrrfsMIYQQQgghRNdkUVlpPIFE/fz9/dFqta0+gujY8VMMGXRtMWDRsWVtDCRwRV0BAMA/irRXYfmYCGo8a+rkx+KVkcwK8MC+rQNbomPKT2TeqNWM2JXM/FojvHnEP+JLBFGkKYOmAoBfc04zf+2HvPCXu5noXfW0NcDZgss8vDKe+8eM4NH7rnUaFZWU8tS6j+nnZEfUo/cY0gEiNn7OmfzLvLFgao11MgB2Z2Sx9O1PiZ77J5O/JbqektIynl6fiLuzA8+FTVRmi+uIOW1h4yfpxH6dwfqFDxhGFXVEyT8f469vfcKKx+5t08+wI9pzLHzjY558YAx/8m1aMKizaK86rk9lJXy091dWxafQz6kXr86ZzB9ucFEWE0IIIYQQQojrUu3ziTRBQkKCyZaeno5W2xLDI0RH5/FILLGLAnC2VebUxx6/RbGkpccyf6IEjIQRpyA2ZNcVMBJCtBeb7tb8a9G0OoME4vrRGdvC1bJy3vo4lRPnro1+rqyE7345hoOdDYP6NW9NmcYa6tqXaeNG8nrCdxw8dlqZ3Sl1tDquj4UFPHDnzby1aBoD+vSih8q8kVBCCCGEEEIIcT1o9kgjrVZLaGhonQGiBQsWsHDhQmVyvWSkUSdVriM3M5XUtAyyD2eQmlW9HsKI+cQ8ddEw0sh+7GI2rJyPX8d98Fh0aDLSqCFZJ87x+JqdDOxjz+D+vQ3pJaVlfH/od5wdenLLkGufsbqyMlIPHcfe1gbvoa6G9PLKSvb/Nxf1wD6smT8FVTfTNR+QkUZCiDp0tJFGBZevsOCNjzmTf5nQu7xwcbTjh0O/8/m+w9znexPPhU2sc22m1nK1rJyNn+7j/T0/ca/vH/hzwK30treloqKSnNMX+PGwlgcn3NakdYzaQ0esYyGEEEIIIYQQjdfsoNHatWtZt26dsqiBfg7txpCgUVeUR/LGreTeNItZta35JITZJGjUkMpK2JJ0gLd3pVFqtEZPU7g42hE990+MHFJ7p68EjYQQteloQSOAy1d0/GtXGp+l/ZeLRSW4ONoRepcXfx5/q2GNpfaQffI8mz/bz/eHfudSsQ5LCwv69bYjcPRwwu8ZjW0tU4N2VB21joUQQgghhBBCmK9JQSNfX1/Dou6hoaGkpaUpi5pISUnBzc1NmVwnCRoJIYQQQgghhBBCCCGEEEK0rUbNEeHjU7VwelpaGqGhoaxdu7bOaemEEEIIIYQQQgghhBBCCCFE59GokUYNrV9UFxlpJIQQQgghhBBCCCGEEEII0bE1aqSRm5sb0dHR+Pr6NioIJIQQQgghhBBCCCGEEEIIITq2Ro00qo2saSSEEEIIIYQQQgghhBBCCNH5NWqkUVM1JmAkhBBCCCGEEEIIIYQQQggh2l6zg0bTpk1TJpkIDg5WJgkhhBBCCCGEEEIIIYQQQogOptnT0wGkp6ezbt06tFqtSfq0adNYuHChSZo5ZHo6IYSo6fa5a5VJQgghhBAt5se3G//bTQghhBBCCNG1tEjQqKVJ0EgIIWqSoJEQQgghWpMEjYQQQgghhBAdNmgkhBBCCCGEEEIIIYQQQggh2k6HDRrZ2/dSJgshhBBCCCGEEEIIIYQQQohWYqlMEEIIIYQQQgghhBBCCCGEENcfCRoJIYQQQgghhBBCCCGEEEKIzjk9XWFhEXkX8rl6tZzy8nJKr5YpiwghhBBCiDZio+pOia5Umdzuunezxsraim5W1vTt44CDvZ2yiBBCCCGEEEII0aVdLLzM+QsXuVR0hYqKCmV2DZ0uaHTs9xOUlZfj3MeBoYNdldkdwlffZnD3OG9lshBCCCFEl9TR732O5pwg7/xFrK2tGTJooDJbCCGEEEIIIYTokk6fPU/Bxct4DB5I3972WFtZKYvU0KmmpyssLKKsvJzbRgzpsAEjIYQQQgjRsQwd7MptI4ZQVlbGxcLLymwhhBBCCCGEEKLLuVh4mYKLl7nDazj9nZ3MChjR2YJGeefzce7jgG0PG2WWEEIIIYQQdbLtYYNzHwfOnS9QZgkhhBBCCCGEEF3O+QsX8Rg8kO7drJVZ9epUQaOr5eUywkgIIYQQQjTJ0MGuXC0rVyYLIYQQQgghhBBdzqWiK/Ttba9MblCnChqVy498IYQQQgjRDOVmLPophBBCCCGEEEJ0dhUVFWZPSWesUwWNSq+WKZOEEEIIIYQwW2npVWWSEEIIIYQQQgghqnWqoFFr02q1pKeno9Vqa6T7+/uTnp5uki6EEEIIIZpHf/+1du1aw7Z06VKWLl3K2rVrSUhIkHswIYQQQgghhBCijVhUVlZWKhPb27Hjp7C376VMRnPwCHeP81YmN1tCQgJLly41SXNzcyMuLg4Af39/AIKDg4mOjjYpV5uvvs1olfMUQgghhOiImnLvk5CQwM6dO0lLS1Nm1crNzQ0fHx+Cg4Px8fFRZpvtq28z8Bo5TJkshBBCCCGEEEJ0KU2Np1hk5pd1mKBR2LI3Adj+bEibBY2WLl1KQkICGHVGGP9bP+rI19fXEERqSFM6ToQQQgghOqvG3vuEhoaaHSyqzbZt25ocOJKgkRBCCCGEEEKI60FT4ynX5fR0+unmQkNDSUhIwM3NjejoaFJSUgz/XbBgQZMCRh1PHvGPqFE/Ek+eMquGWsrmJxM1O4hFuxre+3qQFTePoNnr0eiUOW0nb0c4anU48aeVOe3odDzhajXhO4zaSW1ponGkDoUQXVRzAkZUj1ISQgghhBBCCCFEy7sug0bLli1Dq9UaOiyio6MJDg425Lu5ubFw4UIWLFgA1UEm5TpH1w8dZzOyyCsqUWZcl0oLszl0qJC2rA3d3kg8R0aS2o6BKtFxSftoIfmZJK5ZRNgkL9RqNWq1J75T5hEZl0xWobJwlaoArrrG5jUpjEUbU8krV+7RVenI2hXFvCm+eOrr7s+L2LS3jmBneR6pGxcxfYxnVZ2NCmTeikQya61nDVFqNeoVGmVG4+hy0eyIIvzpxJoPUByIqnENlVvUAeVOQgghhBBCCCGEEF3TdRM0Mg76rFy50hAQcnNzq/Np1+DgYIKDg9FqtSxbtkyZfX1wCmTNwUxiH3RX5lyXPJ9IIvtABH4qZU5r0ZH65VZc5oa07t+UES2dVBu1D7PVMlqxE8jdFUHgqFDidX7Mf+tLNAc0aA6ksf3VEDxzNzFjzHTWH6wrKjeCOa/HErtFv8UQMQGSV4Th/0Q8ua0ZOOoQ71sdmhVBBD4dT6HXfFZsiSV2ywrmDMhm9Wx/gt7UYFJzxRqi7vElbF0qDhMjWLMlhqi5fhTuWMSUMeHEt/DzGTqthvgV4fiOCmD6sk0kF9YS8lfPMLp+ptua2R5gO4uAkcqdRHPp78Oaws3NzeRhHyGEEEIIIYQQQrSc6yZotGzZMtauXQtGnQ36gNDOnTsNecbc3NxYsGCBydpGQrSp/CTi49yZ4e+pzBFC2kcLyN0RTuAbMH+PhtjlIfipnbF3ssfeyR73kQGELI8lLWEqGQ/PqyOg4Yx6tB9+Y/Vb1T6JKwNgdyQxXX0I2PF4XtmYhdeL24l9eRZBY/3wGxvEnNcTSXzRk0NrXiH+uL6wjuQVoWw6FUDUJ2nEvDyLoLEBhDwaSey3O5gzIJmIR9aT2WKBNg2r/acTuQumvriDNbOV+dWcPIyun9Hm50Du3izcO0xQtmtZuHAhKSkpBAcH4+vrq8yulf6+LCUlpcnrGQkhhBBCCCGEEKJ+10XQSD8V3bp161i6dClUdzycOHHCkF9f4EgfNGqLwFHVdEeLSDySyvonAvFSq1GP9CX8TeVUR3VM2VPPk+fatPXMq556yXNMOFG7c5VFaqrreOWFZO6INEwv5DlmOoviNBQ21NlXPQ2Qcqqfutbpydt77Zz1UxhlFRuXaFw9FGYmEqWvV7UXgU+sJ1Xx0gznkpZE5HQvk/PSrFCjVkehnChJd6SW49a25lBhJvEvTMd3pNEUTmk1r5Ve3u6PSfIKJ6i2p9xPKdrIiuRaRzXk7d3Eoj9XTxs10pfpL8Qb1WF1/Y2JIBlIXuZb8zoUZpK4Yh6Bo/RTb81jfT3n3CBzj6eYwspzzHQid2SZjlqog+EaHskyqm8vxWs3Kl9vHelIfdkTtX/NzuzMtwJQqyNJNjqp+o91jTltsSG1tQ/zP0OqtFTbrXpv+BKRAqRE4Kt8/5XnkfpmuOFaBD6xnlRN1fv02ufBtZFKqZ9FMn1UzVFLxp8JdbaJBs7VQBtP5DKI3BxF0CBl5jWqYbNY87I9UauSqHUGtVq4T5lFCDq27s00Sq2exs34M62O68Jpo+un9iLwiSgSj+hfqRnv27aq7zwtGuB2Tw/jVAA8/EMIHFlK9uHqI57+mK1xOtznPkOIsr5tvVj8wixU2euJb7FAm5qwLzVkfh9DxHQv3Lsr8+unS41nfbYX4VMkKNsa/P39SUhIIDo6mri4OFJSUti2bRvbtm0jOjrasOnTsrOzSUlJwc3NjaVLlxru54QQQgghhBBCCNGyrougkT44RPXCyUuXLiU0NJS0tDR8fX1ZsGBBvYEjV1dXqA4gtY0kls+MQjs2gg1bYoh60I3UNWH4v5Rcs3PUXPsjCX3hEN5PbSB2yxoW36Jl02OBLPrM3C5QYzo0/5zBlGWpDJ23gdgtsWyYN5TMF6Yz45+KqYiaofCzRfjPXs/Ze16qmiroxUDOxi0i8P6anffm0B2IYsaU5aT2DmPNllhi31mMd/ZqwkJXo6lx0qlEPrqcX28MYf6TAQy1VeZfo9OsJuieRcQXB/HSllhi34kg4MJ6wu5WTLVUnsn66VOISBvK/Ndjid2ygfk3ZhIV6l/Hdcjli/eT8XoggJqTA6YS+ZdIDnnPZ8OWWNYs8Ea7MZzAZ0w7tXN3hOM/ez15dz5LzJZYYl8NgQ8jCDKs6+HF4gMaNLsi8QP8XtyF5sAapjpXH6BYQ9T0KSz/3oGwlVVTby32ymZ1aBira1Zaw8w9Xnku8U/4E/Z2HuOXxxC7JZYV0yF+WRDzPqyl879W2cQ8GUaiy19Y81Ysa5b7cSkugjnrTNtow3Wkwu/eWai02/nmsNGOZPFjUi6EBhhGITR8rCqNa4t1qa99mPcZ0pJt12uBBs2BXUT6Ar6R7DqgYc0UfUPSoflnGGFrMvCYu6Zqf+9DRP4lklSjP2OwP5LwF37F/YH5zJ84FP0gj6r6TYQZVZ8JG+YNJXVZIEFvGQVmzDjXKjpSN0eSvegZQgwf7TqydlQHT6qDjPp1duwDH2WOJp4vaguo1UblYDjvKjo0a6qncQuqOv+Y5QGcfbuWaezyk1h0dxjrLwRWXZctLxF4YSuL7glifSYNv2/bsr6d3fACtr6fWDP4NSiEDR8lEjmp6sQKM1JJRkXQmNqDMKrRAYSgI/lgtjKriexxV9srE81USNIHW2HKo0xVBrhEi9Bqtaxbtw61Wo2/vz/r1q0zeUBHPyrc1dXVUE6tVrN06VISEhKUhxNCCCGEEEIIIUQL6fJBo/T0dGbOnAlG8+cnJCQYAkZxcXEEBwfXGThKT08nISHB7KlTWoYLs97cTlRoQNVUR8/tYMcSD3RxbxpN89NYgaz5YANzplRPHfTmJqL8dSSu3Irxc/BmqZ6OKGBlbPU5+hEQGsX21wPJ2vgmH5vbqVqvPJI/SkTnG8maRUFVUwVNWUzc6yGQvZ4vflGWb0geyYmpqB5YQcwrswgY64ffxFlEvbYY9+z1fJxWs6fe78VEdqyKYPGiWXjV2e+YS/wr68nyjyJx8/yqqZkmhhDxblzVVEsrE68FcX75gvXZMOflKGZNrJrGatar64kYqSPxo+Saa8AcTCRGE8hf7q0ZEgAIXLmdDY9W1U3QoxvY9EoAul1RbDVc0EyStufhsWQzsU9eq8PNrwai272JL6r7ZVVO9tj3VqECVLZVU3OprKry8vZ+TKptECs2Gp/zGha7ZbH+w9RGBwjNPl5mEvFnPVi8MZb5U6qmigpatJkV9+pI3vIFWaaHrcNZ3B7bbnjtQY+uISIUcuO+MWrz5tURXpOZZZvL9hSjd8vxVD4+qGLWJL/qTnYzj9WEtliretuHOZ8hLdx2be2xd3JGpQJUKpyd7LHXRx+MpzAzXI8NJL4Zov8LCn5EfrSDNc8tZnGoF/ZUjR6MXJaM3yubDO0+IDSK9S96kbVqI0n6kzXnXAEKk4nf4mkyiiQrLpygd+DJBA2aA5uZ/EsEr31ZvYeVJ96TkknNqC3AW4vjv/IjMGJgr+p/x/PKm1kEvJJoqIOA6RHEvTsH990RRBkFtPKS40ks9iPytcWG6d4Wv7uBELJYn1Q1zrG+922b1vegWaxZGQAfLsJ/XDhRO1LJyqu9DeuKCwE/3AYoc6pVB9pyL9a+f5s6uJXVn7kzPzywqj5Eq9JqtYaHevSbPjDk5uZmshalEEIIIYQQQgghWleXDxqtW7cOqgNG+vnz9YxHEOnn1DcOHNUWcGobatQ3mj6j7jklHD80JGfUCC2YZ7Qf3k5G/7ZyZ/yUANBm8GsjgzxZKdvREERI9dPjevaTItixZQ7eLbL2gz3ObirQZpJpdH6qiVFkZ2ey2Mu4rDmcCXw5kcRVQZictbMzaiA3T9kR7Efg2No64xWyk9mugaDpk3HXd9hSNdXSjLAR8Nk3pOoP3dsZTyArM/PaNH5WHsz5KJvsdxTnBWSmbCd3ylQCjK+bgR9+3qZdme4TpxJALhmZ+jbiyZwPEkl8wrSy7Ae4A4fQ5psk18p5UiSJH60hqL9RopUzzmpAe9bsqbr0zD7eyDns+CiR+Sanbo+7K3BQyyXj5Dopr6EKtacfFBt3SJtZR1ZeTJ3rTm7Sj4aAVd7+ZDS2IQSO1jd4M4/V6LZYu/rbhxmfIa3YdpXy9iejwY+QCaZTmKmGe+JnklJtdCDjFQM78/YmkUwQIYogmceo8biTSMaR6gRzzzUzg8SRU/HTjyLJT2T1C3nMfz2SgEH22Dv1QgV4uF17dW5qP/IKLxr+XRedNpXVS6PQ2AYwZ1LVazZ8birOXzVqBmEjIWl3qqH92zu7o0JLpuG9DNgGEJWdTeaihj/82rS+AffpMaTtWsOsEYfYuiyMQF/PqilQd9UydaA5jhytGURvUzpSP1xPbl1Tg4o2FRoaSkJCAgsXLmTbtm1tOOpbCCGEEEIIIYS4PnXpoJHxiKKFCxdCdYBIHzjSP9VK9RR2aWlpYDRlij5gtG3btvZfcNltKCOA7NMt15Xm7O4BJJPdyKWaLp08BLjgonz8WuWO11g/PGrtxG4sFX5PbGCOfTzzxlStexO5MR6NtkldkAZ5ezexaLZ+nZBra4I0Wb6WQ4BLjcoAD08/QEOWvn4HhbDi5UAyXpmC122+TF8SxdbdWbWvA6VLJf7ts8yaHmD+U+7O7ngAyYY/WL321K4o5k2pXmNHrUb9503GezXsdCqbloQZ1iAyrFvTVOYer3rto6DqNY3UajXTNxoXqF6PRf+6lGvo1MLGupaIppl15Ok/A/eD20nNBigkNSUZ1YxA0yCpmceiuW2xKe1D+RnSWm23FtqsZGAEQ5vR11t1jETmeZlec/WU1Ziszmbmueb+fghucTdM7Ze3+2OSRoYRaBh4dAntQcD62j421ipSfz93LQGAZCLGmJ6Tp38Y67O9idi2wRAgrfNzEw9u9gU0WeirW+U3nw2P2BP/hG/VukcvbCL+QC66jljf1ew9g4h4J43MzDSS3okkxCODTU8HErQsqfEBoGFDGwxEtqrj8by2RUfg7Km1TP0oWoo5D+Okp6cb1qT09/cnLS2NuLg4FixYYNb+QgghhBBCCCGEaLwuHTTSz4s/bdo0k3Rl4Cg0NNQQINKPONKLjo5u/4DR9co5gIiPNKR9GUvEDBfObo9iur8XQc81oRMSyIoLw3/2dmwmRbL9ew0aozVBWkWZMkGFR+gGNAeT2fXqfG7nR9Y/HYiXTxibMk2DYbq0JLb2nk+IfrGcJtGR+oo/U579EY/HNpN0oPo1vzNLWbBu2VsJuzuM7VaBRH6QVrW/ft2apjD3eMWpRE6YwnKNB3P+lVRdTkPMbONC9vg9FVu13lX19qRvjR75BjSijjzHM8PtEB+n5UJhKt98piJkgrfRujXmH6u5bbFl2kc9mtF2W1cgEUbX23ibodaXMe9cz/2eCrb6dYd0HPolGXxvxjA2p/AsZwlArQi8qGpU+QjmvG56Lrv2aMhMj2XOyBqFa1WiDAZZORPwXCKatCRil8/AJW87UX8OwOv+CJIaOTK0ecypbwWVMx4TZxG5RUPyywFk7VjEpgPVWbb2QCraU8qdqukuoqu1jttW5q4YNG5zeHRSYz9PRGPoR38HBwebNXpI/0BPaGgovr6+Zu0jhBBCCCGEEEKIxuvSQSO92joWjANH+hFGwcHBREdHs3LlSkPgKD093WS/dqM9yiFA3b/lnr/O+z0LaukUbUjfG/0AHTWWnSjXUZhfaPbT8PWqPlZhmQpntR8hj0ay4UsNyS/7cej9RWytWtajETQkrkiFR1cQFeqHR3977I3WBGkyJzdGAGfP1pxSLOtIKuCFh75+iwspzNeBrTueU2YRsWoHad/HMqdnKlGvGwfCCknasRX3GePxNJ42rCGnj5IFBOj/YF4Sm7YUEvDiWyye4om7U/VrdjD/FWsSo0hlDitenYWfumrdFMO6NU1g7vHykjaxNT+AyLWLCRrpXl3OHofuxqVUuHtVrXek37zcGnlijakjK0/Gz3BHszuVLE0qiSZT0zXmWM1ti01sH8rPkFZpu7VzGx4AZHG0GQGPXgNHAOAywvSa6zfDCMcmnWshZ7Xgd2Pfa0nFFykEbIzqWJuVjN+Nyg9MZ9SjTc/Fc5DR+kLVqs7/LDWrO4us/YCXB/oj6woLKSzUoXL2wG/6HCLfSkKzJxK/zHgW/afhD7+2q+9Ckl8JIuj+TdR2Vu4TAwlAR9bvVbVu7+1HADoSv699JT3d/mTiUREy+to6U20uP4mNb+fi9VgYXua9IUUT+fv7k5CQQHBwMCkpKaSkpLBt2zaio6OJjo4mODhYuQtUB49mzpzJ0qVLDQ8HCSGEEEIIIYQQouV06aCRPvCjn4JOyThwhGKNI/2iy9HR0UZ7tJVssn83jchk7YknFS8CvPVBo76ofWtZ+yEvj2zjf+vtT+Ib476V8ly++SwZvALwM15fxgzu3gF4sJX4L017P3V7o/Ad9Qjx9fXh9FfjB4ZORL2804qzLkrmxVFeBG007Vx09w1gBDqjwJT59aArBl15iWna79k1yjWKOoAZXpC44wtyjYNlxRq2xx6Ce8fjV/2weuaWILxGLSLReC0he2/8/IEyo/M6/jHvfeZF+JT6Ok5TSdprOklUbnISyXgRMLq6jVS/Vp3xsYHcLP2qPGbQ6aAYTI5QnEV2UyvN3OOVA+hMR7yU53LUaB2VFtHIOvKcMAP3lHiWv7EVVehUTAb6NOJYzWqLZrUPMz5DWqPt1sHZOwAvkon/0rQudIczSTVJqZuHbxAeJLE+ThFwKM8l1ei9YO659ho4wnDNAGysIePUtannCvcnk4wHzr2rE8oz+eFz48/gxvHwn4EXicR/Zvq+1R3YTuxBCJzoVz3VYCHJL3jhNWUTmcbXZZAfASOr3kINabv6tmfEcGcOHYzli7SaJ6b/e+7O1Q2p/1RmharIffs14o8rChdrWP3yVnTqVhxBZ4bczzaSWBzIXxRrOYmWZzwVsL+/P8uWLSMhIcHsQJB+pHiHebhHCCGEEEIIIYToIrp00MjHxwdfX1+0Wi1r165VZkN1gGjbtm0ArFu3zlDOzc3NsA5S28tl06OhRO1IJnVvKolvhjHjJQ0ejz5HiH7Rdtzxu9cLUiJ5Yk1iVbmNiwh6eD1nTQ9WLZXI+8NYvyuV1L2JrH8kiIgUFbOeCmn8mg3DZrHiUQ+Snp5BRFzVOSbHRTDjya24G5/jka1MH+VFhHFwyc2PQC9IfukJVlefy6angwh9W3HW9gH85UkPcteEEvZm1etL3b2ViKejOGQ7iwDD4uTm1oMnAbNVsHkeYSviSd6byNYXwvAN3VTr+hzmcyfkufl4pEQQ9Mh6Evemkro7nqiHQ9l0KoCoZUGGNWc8H1hMgG0Sy/8SwdbdqdXXNpxFceA10c+whkfu3o/ReE0lwHCta5f6UpChbhLfDCPouWRUoU9eq//+fgR4Qeor81m0MZHU3fGsfjqIwOdqWTnHyR13W0j9Mp7kvalkVXe4e46dhYpNzHskivjdqSTGRRI2LoxN5vXp1WDu8ZxHB+BFKpFPLGLTrlSSd6xm0f2Bta991ByNqSP0U9Rp0GhUzLrLyzTP7GM1ry2a1z7M+wxp6bYL9rjfqIL9ScTvTiX1SPV7f1AIzz3qgealGdfa7MZ5BD0Zb9izQdWfO1lrpjP9lap2mro7nqiZgYS9HEtq9Z8y91xd+qohM7e6zp3x8vdCt/lNth7MI3fvah55JxsPkkhOLYTyQlL/uYjtk54xqr9GGhTCc096kPzctfdt8o4oQh/eRO7EKCLu1de2PQGz5+OhXU2o/rrsTWbrc4uJOqhi1lijYGEd79u2rG/nByJZc+9FNoX6EvbCVsP5xq9ZxIwnt8LEKMLH6oNAKgKWxzH/xlQi7vMlvLp81efA9Kp2t3l+7SPoTvxY9T2g3DS51AxXNZFOQ+w7GlSzZxHYImvzCXNptVrS0tJISEhg3bp1LF26lISEBGWxGrRardlBJiGEEEIIIYQQQpinSweNAFauXAmKgJAx/ZOueuvWresAHRABRL77DPa7o5g3O4xFb2fhvSiW2L96mUxf5f7gW8Qu8kO7eRFhs8N59WsHwrZtoOYKKoBfJDve9OPQG/MIm72I9VneLI5LIdK/KU90q/D663Z2rfTj6IZ5hM0OY96Go3i/uIvtJueoo1Sn42yRcZeeO7PeimWxn5ZNT4cR9sSrfGEfxvbXlWetwmtRIkmvh2Cf+CJhs8MIe3o9R4cvJnZPpMkID/PqQYXfcynELvImKy6C8NkvEpvnx4bvY5kDJB+uORrEXCqvxSR+voYQ20RenB1G2GNRJPeeT+xXMYQYz2TVP4iYPbEsHn6U9U+HETY7jBcT7Ql5PYm40OrQXXkmie9ozFiA3Y/IbRvwO7TepI2kvBhgVP/uzHoviagHupO8YhFhT6/mB/swEndF4QccyjIKUaj8CF85C8+M1YTPnkfS79XJYyNJiVuMd9ZWIh4L48UtZ/F7M43YR4CUbLIaORWh2ccbNIu4z6MIUSUT9XQY89b8gMPsRHa94gcc4miLvUUbUUcAeDL+QXewncVkRczI/GM1oy2a3T7M+wxp0bZbdUT8HlnDrOEZrH4sjHlf6sdOqfD6a2zVa357EWGz57E+YwSR75m/jhOo8FqeSNLrs3BJiSJ8dhhhy2LI9VrBrh0RhlFR5p6rvbcfAWlJpFZP4eY+fQVREw8Rdb8/M95T8czmJDa94UfqE16ob5vEJiLYutzPzCkEa1PzMy18RTIuc2NJeSsEd6NASY3rMnse67PUVZ/ZhgBM3e/bNq1vK3eCXk8h6Z35OB+PrT7fcKI+z0O9oOZrw9aLxR+lELvAj4u7o1g0O4xFaz7mUD6oPL0ZWtcyQp9FVX0PKLc3Uqkx418TFX65kU1aD+ZPb851Fm1F/9BPXdPYCSGEEEIIIYQQomksMvPLKpWJ7SVs2ZsAbH82BHv7XspsNAePcPc4b2VyvZRPq/r6+jJt2jR8fHxISEhg586daLVafH19WblyJSdOnMDHx8fkGI311bcZjT5Pvbwd4fgug6jvYwhp5LRxogs4uJ6A+7OI0KwhsK7OU3H9MqN9dKrPEM1qPKevZ9YH2USMUma2tkKSnvYlyjmGpOeukyBBu9Z3/XRHtrJoZiRJBBL53gpmedbRwEWH1dh7n4SEhDqnD6Z6ncng4GBmzpxpku7m5sa0adOaNRr8q28z8Bo5TJkshBBCCCGEEEJ0KU2Jp1DfSKMzJ09w8Md0tr39hmF7PXI5r0cuZ9vbb/D1rp0c/LFjzyOvDxi5ubkRHR2Nr68vaWlpLF26FH9/f8OoIl9fX+Li4nBzc2t2wEiIZhk5n+TsugMC4jrXaduHjtS31qMpNk3N/D4RHUF4t0vfrT2BSyJRvz+PRR8qR5R1dh2xvuunGjaLDXt2sNhbhapnp2vgogmCg4NJSUlhwYIFhjUoG7JgwQJSUlKaFTASQgghhBBCCCFE/WqMNPp61052f/IhBw+YFxDqN9CVkbf7MHHKA4y8vXkBl5YcaaTVagkNDQUgOjoaHx8ftFotCQkJ7Nu3D61Wi5ubG3fccUeLdz409mlbY51qlIAQosPpkJ8h5VlsnRlEZH4AEU/NYoQT5P20nhfXpOLy5A4SF5lOm9eWqka4RKEdu5jFT03Fu7c9KlsduvyzHNqbTOHoOQQ2dR2j9tKB61t0Xc2596H6vg3gxIkThjRXV1f8/f1xc3MzPNzTEmSkkRBCCCGEEEKI60Fj4inGTIJGEXNnmR0sqk3UO1ubFThqyaARRh0QLdXJYK7mdJx0yA5fIUSn0WE/Q8rzSN38Kq/9OwnNaR326kBCnlrM4ike7R/AKM9D8+EmNm75mOTMPHSAqv8IAibOYNZTs/BzVu7QCXTk+hZdUnPufdqaBI2EEEIIIYQQQlwPGhtP0TMJGt13e/N+QN81ZRpPR65QJputpYNG7aUzdZwIIYQQQjRXZ7r3kaCREEIIIYQQQojrQVPjKXWuadQRde/eTZkkhBBCCCGE2bp3s1YmCSGEEEIIIYQQoppJ0GjmY08Z/7NR+g10ZeKUB5TJLcrKslPFuIQQQgghRAdjZW2lTBJCCCGEEEIIIbocS0tLysrLlckNMg0azX2KmF3fcNeUaYwcZd7aRP0GujLzsar9mrOekTm6dbPiaM61BZKFEEIIIYQw15GcE3SzkqCREEIIIYQQQoiur1fPHpy7UKhMbpDJmkbhU8Yz8b5pzJxbNeLozMkTnD2lNfy/Xr+BrgCGINHXu3by64/7AFp1TaOLhZc5k3eB20YMwbaHjTK7w+hM8/oLIYQQQjRXZ7j3Kb5Swk+HjuHi3BtHeztlthBCCCGEEEII0aVcLLzMqTPnucNreKOmajcZaXTm5Am2vfMG990+jPAp4/nPO29w5uQJQ8Co30BX7poyDZcBbmx7503uu30Y990+jNcjl/P1rp3Gh2oVDvZ2WFtb89OhYzLiSAghhBBCmOVIzgl+OnSMbtbWEjASQgghhBBCCHFdcLC3w9HBjn2aw5zOyzd7qjqTkUb33T7MNFfhrinTDCOJzpw8we5dO9n2zhu15jdFQyON9C4WXubc+QKulpdTXlZO6dUyZREhhBBCCNFGbFTdKdGVKpPbXffu3bCytKRbNyv69HaUgJEQQgghhBBCiOvOxcLLnL9wkUtFV6ioqFBm19CkoFHE3FmM9L6DmXOf4uCP6bweuZwzJ0+0WdBICCGEEEIIIYQQQgghhBBCtCyT6elmPla1llF9Dv6YzsED6Wx75w3Cp4zn4IF9vPp2LDMfe4qHzNhfCCGEEEIIIYQQQgghhBBCdDymQaO5TxGz6xvumjKNfgNdjbNqpV8D6dm5YYwcdYdZ+wghhBBCCCGEEEIIIYQQQoiOx2R6uvAp45l43zRGjrqDkbf7cObkCc6e0nLm5AkAQ1Ao4rFZ145g5K4p03josaeaHDyS6emEEEIIIYQQQgghhBBCCCHaR51rGvUb6IrLQDf6DXDFZYArLgNdGwwaUb3f05ErGHm7jzKrQRI0EkIIIYQQQgghhBBCCCGEaB91Bo1qc9eUaUyc8kC9QSOApyNXcNeUacrkBknQSAhRF9se3bFRdcPSwkKZJQQVlZWU6K5SfKVUmSWEEEIIIYQQQgghhDBTiwaNmjPKCAkaCSHq4GDXg6tXr3LxcjElJaVUVho+toTAwsICG5vuONjZ0q1bNy5evqIsIoQQQgghhBBCCCGEMINJ0OjrXTt5PXK5aQkjdQWN+g10ZeJ905g59ymT9MYyN2h05YqOy8VXKC8vp6KikvLycmWRdnW56ApWVlb0sOmuzOpwrl4to1s3a2Vyk1hZWWFpaYGVlRV2PXvQw0alLFKD/lrqSkuprOg6gQALSwtU3btjZ9uDHj0aroeUg8fYtvsnCi5fofRqOcW6q8oi7crS0oKKFrw+tqpudO9mjWNPG2bedRv+I4coixjY9uiOTlfK5aIrODnYYdvDBktLGW0krqmoqKT4Sgn5Fy9j17MHKlX3ekccdfTvkHMXLiqTOrS+vR2USR1Oe3/XARRf0VHUgdvdlZLS6+6+hSZez45+LSsqKzvkqNxrdW2Jna2tWfdHXfE+sbH3iAAXCy9z/sJFLhVdoaKiQpnd5iwtLenVswd9ejvgYG+nzBZCCCGEEEJ0ciZBI4AzJ0+we9dODmbs4+CBdOOsWoNGMx97qtnBIj1zgkbnzhdQXlFBr549cOnrqMzuEI7mnGCAS2/sevZQZnU4+386zOjbhiuTm+XsuQIuFV3BytKSvn3qvkaFl4oovlKCS19H7GxtsLS0VBbptCoqKrhcXMLZcwXY9rDBvldPZRGDJW9/Ss7pfC5f0Smzrgt2PVQM7u/Eqrl/UmYBYKOyJr/gEgP79cHKquu0EdHyyssrOHnmPE6OvSjRlSmzoZN8h3yXfpC7x3krkzukr77N4E6fkcrkDqc9v+voJO2uNeqoNbTWeZp7PeVaNp+5dd1V7xMbc48IcPrseQouXsZj8ED69rbH2spKWaTNlZWXc+5CIVk5J3F0sKO/Sx9lESGEEEIIIUQnVuPXV7+Brsyc+xRRb28lZtc3xOz6hqh3thL1zlYmTnkAlwFuhnIxu75psYCROa6U6CivqMB9YN8O+0NdgEtfR9wH9qW8ooIrdQRCrlzRUXylhBvd+2NvZ9tlOgL0LC0tsbez5Ub3/hRfKamzHlIOHuP3M9dvwAjg8hUdx8/kk3LwmDILgEuXi3FysJOAkWiQlZUlTg52XLpcrMwC+Q4RLcyc7zqqv+8qpN11eOZcT7mWLUNf1xUVFRTXU9dd9T7R3HtEqkcYFVy8zB1ew+nv7NQhAkYA1lZW9Hd24g6v4RRcvMzFwsvKIkIIIYQQQohOrN5fYP0GutJvoCsjb/cxbP0GuvLJj0eI2fUN/Qa6KndpVZeLrtCrZw+6d+umzBIdTPdu3ejVsweXi2tfW+Ry8RVc+jpi3cUDAdZWlrj0dayzHj7Y8wuXiuvuLLheFBbr+OCbX5TJAJSUlGLbw0aZLEStbHvYUFJS+9R08h0iWlpD33UAl4uKsZN21yk0dD3lWrac7t26YdezB0VFddT1dXCf2NA9IsD5CxfxGDyQ7i04JWNL6t7NGo/BAznfyaZVFUIIIYQQQtSvU/0SKy8vlyc7OxGXvo51zvOvKy3Fzvb6CATY2dqgK629E/v8pdpHRFyPzhcWKZMAqKyslDWMhNksLS2orKx93Qv5DhGtob7vOoDyigppd51IfddTrmXLcunrSHlF7XV9vdwn1nePCHCp6Ap9e9srkzuUvr3tuVRH8E8IIYQQQgjROXWqoFFFF1kA93pSV+dtZUVll5pqpD6WlpZ1Lt5cerX2dVeuR6VXa+84EqKlyHeIaC11fdch7a5Tqut6yrVseXXV9fVyn1jfPSLV6x91lCnp6mJtZUVFRYUyWQghhBBCCNGJdapfY3U9+Sk6rrIyuWb1KdZdVSZdt6QuRGuT7xDRWur7rpN21/nUdT3lWra8uupaCCGEEEIIIUT76VRBIyGEEEIIIYQQQgghhBBCCNE6JGgkhBBCCCFEK8nIyCAhIYGYmBhWrVrFqlWreO7553nu+edZtWoVMTExxMTEkJCQQE5ODvn5+cpDtInOcp6icbRaLWvXrmXt2rWEhobi7+9PaGgoS5cuJSEhQVlcCCGEEEIIIbDIzC+reyLtNha27E0Atj8bgr19L2U2uSfOcNPQG5TJHc7RnBMMcOmNXc8eyqw65efnk6HRoMnIUGbVy8vbG28vL5ycnJRZZtn/02FG3zZcmdxifjv6P9xd+ymT2+xa7t6zB01GBuHh4U2uo5ZQVz0ELo9RJl3XklaEK5MoLLzEkEEDlMlC1OnY8VOd+jvku/SD3D3OW5ncIX31bQZ3+oxUJnc47fVdRxPaXVPvB4x5eXszccIEZXK9GltHneU8m6Ku69mYa5mTk8OePXs4lpOjzDLLkMGDmTZtWpPuXRpTR+15nrRQXXd2ddUBgObgkWZ9H6xdu5Z169Ypk024ubkxbdo0Fi5cqMwy21ffZuA1cpgyWQghhBBCCNFJdemgUX5+Pnv27CGnlh/CTk5OeHl5MXjw4Cb/0K1LU4JGCQkJZGg0ymSzODk6Njko0piOhaao64dwY69lU8TExBg6QZpTRy2hrnpoStBoyh89eew+H2WyWU6eL+Slf3/FyfOFyqwOoSsEjTQr1EzfOIcd2RF4AeQnE/X0as5Oj2HNFGdl8SbJipvH4i9H8NI78/FSKXNFawSNioqK+P34cWVynUZ4eiqTzNYSQSOtVkt6ejo+Pj64ubkps1tMU4NG+fn5xMTEGL6Lvb2b93ob0l7fdTSh3TXnfsDYnPBwBg8erEyuU2PrqLOcZ1PUdT3NvZb5+fmseu01ZXKjOTk6smTJEmVyg8yto/Y+T1qgrqluiwUFBc0KXrWnuuqAZgSNtFotoaGhaLVaZVadfH19WblyZZO+MyRoJIQQQgghRNfSpaeny9BoyNBoyC8oqLEdy8khYefOqvwOML2GcWBrwoQJLHnmmTq3CYqncvMLCoiJiekQr6OjyM/PN3lqtivV0e1DXRnYx75J26hhbgzoY688ZJeWtyMctdqT8A/zlFlVDkShVquJOqDMaCk6zmZkkVdUosxostLCbA4dKqTljijq88svv/BqVBTbtm0ze3vzzTc5f/688lBtJiEhgaVLl+Lv78/atWsb1XHYFvTfzfrv4q7y+dwSanvQpSkymjECyByd5TzbQ0vVTX5BQau+LzrLeTYkODi4xt/PyMgwTLFn7hYTE9NiddKe0tPT8ff3r/G57+bmRnR0NNu2bSM6OrpGcCgtLY3Q0FCTNCGEEEIIIcT1qUsHjcyZMmXPnj0mc7fXtsXExJCRkVHjB2lrCJ42jYkTJuDk5FTnNnHCBIYonsrVB0VEVUeBk5MTS555xiQ9v6CgRZ6Kbm/vfJLe5JFCB45o+fFIx+o8bhs6kl9YTuJpZXobcApkzcFMYh90V+Y0mecTSWQfiMDPaJSRZoUatTqKzt/CO5aioiI+iI9XJjfo1OnT7Nq1S5ncZvbt22f4/3Xr1rFs2TLS09NNyrSnAsX36bGcHFa99hoJCQlt8l0rRGfRWUbOdLTzzMnJqfHAWEPbsZycJk/T15HUNh1ddHQ0KSkpBAcH4+PjQ3BwMHFxcTUCR1qtlqVLl5qkCSGEEEIIIa4/XTpoZC7lj0blpn8Sui2ePmzOj+78goI2OceOLCYmhoSdO0lISKgROHJydGz02gkd0cnzhcx9LaHRgSP9ftet4mSWr0iicbUmrneNmZJO6WhWFlevXlUmt4u0tDRmzpzJ0qVLazx93pFkaDSseu21NntQozMZMnhwjZHHS555psZDJB2F/nydHB2VWV2et7d3k163k6MjQwYPxsnRESdHxxojy1taZzlPcxnfQwcHB9d4r5izdfb7xLVr15KWlmaS5uvrS3BwsCE/NDSUtWvX4ubmRlxcnElZqkeqdqSHDIQQQgghhBBtT4JGjdAWAZk9e/Y02FGmnHrNWHtM89LQ+bYV4zWMMjQak8BRc+bbpwO9Rr2T5wv5JPU3ZXK9Iv/9lTKpTQ1s12nx/JjzaADsWsTqFJ0ys3Z5qWxaMh3fkWrUak98/xxJfGYTQk6n4wlXqwnfoZ8eL4/4R9SoH4lHk7aeeZO8UKvVeI6ZTuSuXEBH1o5Ipo/xRK1W4zVpHuvTTKfWMx5VVDX9nprpGwE2MV2tRr1CxhuJ2iUkJBAaGkpCQscOIOunrGuP77S6tPf3wIQ6RiF3VF5eXjg5OTVqvaK20hbXcsmSJcwJDzcEV+ri5OhI8LRpVUGLJUsIDw9nyZIlLFmypE0CGJ3lPBtS2z2e8r1iztZUbdGmzFHbKCNXV1cAli5dyrp160hLS2PdunWkp6fj5uaGr6+vchcZbSSEEEIIIcR1ToJGHcyxnBxiYmLq3FatWtUiixY3JD8/n+eef77BDruYmBh27tzZ7j+WjQNGeiaBo1o6Ezrba1R6e1ca73xi3pOgkVu+apVp6Qb2sefHtxcy5Y+eyiwTbz8TzIv/d3c7Bo5UqMMiifTXsfXJKJKLlfkKpxMJnxDG6sNDmf96LLFbVjCndyoRU2YQdcDMoFND9kfyyCta/JZtIPadKGa5ZbL16VlM/3MQQdtVhLwcQ+w7UYQ4JbM6dDnxdUyt5zxlDZoDGmJmA8wi5oAGzQIvZbF28euvvzZ6E61PP/1QYxdJb2v5BQWtvt5RZ/we2F09ra7+nkD53Xe96kjXMiMjg9179uDo6GgIrswJD2dOeDjB06YxYcIEvL28qtawXLKkasRPdcAiJyenVc/NWGc5z/bSkdqUOep6GCAhIQF/f/8a+frPf31QqbY8IYQQQgghxPVJgkYdkPG86sotv6BAWbxV6Nf+Sdi5s84fy/pATXt3WNUWMNKrb3RYZ3qNdXl7V1qD09Tt+iGTXT9kKpNbhD5YFDn77joDR28/E8yoYW6MGmY6b36bs3Yn5OUoAoq3ErkmlbpDPzpS31lOcu85xHwQxayJfviNDWLOm5uImpjLpmc2kVmu3KcJes9ig/74E0OIeHcDIeSiOR1AzLsRhOjTX41gBMkkpZqONjJQ2WPvZI9DdwAVDk722NsqC7WP3377jalTp5q1PfbYY1hayldSW0pLSzN0JHa0DkLjUQ/HWnG9o874PVBQPdq4Le8JzDFk8GCCp01TJreZjnYt9+zZw6rXXiMmJobde/YA4OjoyODBg5k4YQLBwcGGEToZGRmsWrWK555/nk0xMax67TWee/55dpsx+ry5Ost51sc4kNqS59HR2lRD6vscV+a5ubkZpqyrayq6utKFEEIIIYQQXZ/00IlaTZwwwTBHfW0/lo0DNXPCw5s1pUdz1BcwamhKus7yGhtS3/pGJ88XErml9aalMx7tVFvgSB8wAnisnvNsM24hRLzoRe7mCFan1RE20qWStEWH+4NT8TMOvli5MzU0BLTb+eawUXpTqdV4GB/f1gF7gEkBpn9XfTN+AC0RqGpjM2bMYMWKFcrkGvr168emTZvw9Kw98Chal37Kovbm7eXFnPBwXvnHP7jrrrtqTGuWodG0eKdwZ/wemDBhgslokPqmFGtLEyZMwNvbu93WWOpI19L42MdyctizZ48hyKIP0FA9kiWmei3G2gKAe/bsadURLJ3lPBvi7eXFjYMHk5+fbzISSh9Iasxm/Bo6Upsyx4kTJ5RJtXJzcyMlJQWq1zhSBpT0lGsjCSGEEEIIIa4fljc5WtFRth/fXsiPby9UnqNoJ8ofy/onUJU/kpUde23F+DyUGgoY6XX012iOutY3Onm+kCnPvqtMbnHKwNHcKVVz4ysDRq0xPV5TeIS+zGJ1LpteWI+mtrhR/llyAbWzszIH1XBPAsgl6/dWDH5Z2ShTOrWGAkcSMOoY2nO00ZDBg3nlH//A0tKSDz/8sN7poPILCiiopdO6OTrb94BT9TpBgwcPxtvbu8OcV0fQUa7l4MGDq9agqiOgpz/HDI2mzvsYvWM5Oa0WkGnKeerXNlJqzfM0hyYjg/DwcMO/MzIyOFbLiP2GNv3oIr2O0qbMYW7QKDo6GqpHEtX3wIC5xxNCCCGEEEJ0PTLSqBNwcnRkwoQJBE+bhrdX265VYvxjec+ePSbrJ7Tnj+SWCBjpddTX2Bhv70rjgCIoU1sgqbUYB44eu8+HXa8+3CEDRgBYeTL/9cV4ZK9n+QZNPdPU1aKMxpUXUE/gSAJGHUd0dDRubu0zhaSjoyMffvghB378kfMXLiizTUyYMKFVPpM70/eA8VRcMTExNTq5Oyr9vUxdAYqW0lGupbeXl2GNIG8vL5wcHQ3b4MGDyake2VMf/TSNtQUzWkpjznPI4MEsWbKkzjpszfOsz86dOw3/1QetgoODDSPyGrPpp+Iz1lHaVEsIDg7Gx8cHrVbLzJkzldkmfHx8lElCCCGEEEKI64QEjTqBJUuWMLF62hf9j+C2ZPxjWT8tSXv+SG7JgJFeR3uNLaGtp4IzDhwN7GMPHTFgpOc5hxVPepD15nI27VfkObngDmTn1VxDSJedSSrueNxY9fqE+ZSBIwkYdQy+vr5s27bNsLZFe/H29uaxRx+t8zPX28uLJc88U2uHbkvpLN8Dxmsa1fVd2BFNmDCBiRMm4OXtrcxqce19LTMyMoipXiPI0dGR4OBglixZwpIlSwyjYRq6dkMGDyY8PNzwOn5voHxTNOY89edD9Wi3Jc88w5zqKRKNpyRsjfNsyITq6+3l5WUyRdzg6hF5jdnq0t5tyhx33HGHMqkGfSAoISFBmVWDBI2EEEIIIYS4fknQqIOrbQqQwYMHt/maAcY/ltvzR3JrBIz0Ospr7MxMRhx11IARACq85q5gjjqL1as2KbL8CJytIvf9j0ktNkovz+XjuHhwm8H44Ubpwmz6wJEEjDqG6Oho4uLi2r1jsKCggPPnz1NRUaHMYsjgwVUd08HBbbJeSGf4HvD29iZ42jTD1tojdzqr9r6W+QUFVaNSqtcGSkhIMExthiK4oryn0wdo8vPzSageRXMsJ6dVpn4z9zynKe5H9dMkent7mwS3Wus866M/D+9WDki2d5tqiK9v1fTA9dm5cydLly41jM6qT3uNPhVCCCGEEEK0PwkadVKO7dBJNHHCBJY880y7/UhuzYCRXnu/xq7g7V1pTHn23Q4cMKpm68Xil+fgrkxHhd9jKwi4sInwP0ewdXcqqXsT2fTkHCJ2uzPntTl4Win3aX993b2AZD7ekUqqJrfDTqM3Y8YMtmzZIgGjduTr60tKSkq7jy7SO5aTQ8LOnTU+3/Wd0W39edzRvweMO8g74ppG+oCBfjSGIb363wVtGFBor2s5uHpaOT39tG179uwxrMmlr6cJEyaYBF28vbwMAaNVr71mOAbVgZqW1JjzNJ76LT8/n4yMDHKMAkTGowBb+jwbkpGRQUJCAgkJCa0esGqvNmUOV1fXBgM9aWlpZq1h11G+H4QQQgghhBDtQ4JGHVxOHUGSutJbW1t3BOi1RcBIr71eY1fS1lPjNZXKdzGRoSplMvQPImZPLIuHH2X902GEzV7Opgt+RO3aTsSoWsp3AO4PvEzExIvELwsjfLOGjnwFhg4dqkwSbWTbtm3ExcU12LHY3gYNGtSunbId8XtA3ymu3NpjDZnaJCQkEBMTYwgOaao78vXnp/x3W2mPa+nk5GQIBClHgumDGvr2vWfPHvLz85k4YYJhVF2tAaNWeFioMed5LCen6vpWpyfs3Mmm6nW1jAM1yuO0Bf2opwyNxhDsysnJqfFeaWjbXX0tGtIebcocbm5uREdHK5NNBAcHEx0dXe+oJHOOI4QQQgghhOjaJGjUCI7t8CMxJyeHjIwMk7SEhIQaT/B2dXX9iG/pgFFndupcRw4TtB/n6TFkZ8cQ0l+ZA6Ai4OVMsrOziRilyHL2Y86qHaQdzCY7O5O0DyIJ8Wx4LSOv5dlkZ0fgpU/oH0JMdjYx052rE5wJ2ZxN9uYQ9ClVvIjIziZ7uWFPk/Rr+9fyNwBsPZnzThqZ2dlkvhGkOLZoqhGengzoX2vjaZCvjw/dunVTJreL4OBgsrOz230quoa0Z6Coo8svKCBDo6mxdRT5BQUmD3foz7euf3d1Tk5OVaNSlixhTnVgxtvr2qe2cVtf9dpr5OfnM3jw4FoDRkCrrQXVmPPMLyhg1Wuv1biuxiOOWus86zN48GBycnJMAlZ79uyp8V5paNuzZ0+7PZTVUnx8fFiwYIEy2cDHx4fg4GBcXV2VWQYSMBJCCCGEEEJ06aBRS/9wNf4R3dLqemoxv6CAhJ07DfPMr1q16rrqdKmPBIxM7Ur9zTDC5+T5Qnb9kKksIoRogoceeoihHh7K5Hr5+vgwZcoUZXKb0S+I7ubmxrZt2zpcJ6DxQxhOjo7MCQ83md7qelbX/UBH01nOsyMYPHgwEydMIDg42LDujre3t0mQY9Vrr5GRkVFrwMjJ0bFN3h/mnCfVARljTk5O7Ny5s83OUyknJwdHJyeTB6qmTZvGhOo1iMzdgqdNa/V1kdpCcHBwndPL7dy5k7Vr13LixAllFlQHjDr6wwVCCCGEEEKI1mdRWVlZqUxsb8eOn8LevpcymdwTZ7hp6A3K5Hrl5OTUOa2ZuZwcHavmfTezg+RozgkGuPTGrmcPZVadMjIyDIsdN8eSZ54x+zwB9v90mNG3DVcmt5jfjv4Pd9d+yuRGX8tVq1aZdAZ0toBRXfUQuDxGmdQstw9zY2Bf+04bMEpaEa5MorDwEkMGDVAmC1GnlvwOMXb16lVlUp2aM8Lou/SD3D2u+R2XWq221aeh++rbDO70GalMNot+FG1bdNK213cdTWh3neV+oLOcZ1PUdT0bey0bkp+fbzKlX10aG8xo6Tpq6DydHB3JLyho9HnSQnWdkZFhOLf2CFo1V111AKA5eKRJ3wdarZaEhATWrVunzKqVfkq6pgaMvvo2A6+Rw5TJQgghhBBCiE6qyweN2kNTgkZU/yjPycmp80d5Q5ryQ7mlOxaU6voh3NhrqQz+NeW1tqe66qGlg0adnQSNREvo7N8hLRU0agvNCRq1pfb6rqOJ7a6z3A90lvNsrLquZ1OuZUPy8/PZuXNnrQ84OTk6Ehwc3OhpG1ujjlrjPGnjuu6o6qoDmhE00tNqtSxbtoy0tDRlFlQHi6ZNm8bChQuVWY0iQSMhhBBCCCG6FgkatYKmBo3aQ2t0LBir64dwZ7mWLaWuepCgkSkJGomW0Nm/QyRo1PLa67uOTtTuWruOWkpbnGdd17M1r6X+4ZiC/HwcnZxwcnRs9Kgdvdaso5Y8T9qprjuauuqAFggaGdNqtaSnp6PVavH19W3yqKLaSNBICCGEEEKIrqVLr2kkhBBCCCFER2e8ntDECROaFYhpTZ3lPEVNbm5uBAcHs3DhwhYNGAkhhBBCCCG6nk4VNLK2tlImiQ7OykquWX1sVU1f96SrkboQrU2+Q0Rrqe+7Ttpd51PX9ZRr2fLqqmshhBBCCCGEEO2nUwWNLCwslEmig7O0rP2aWVhaUFFRoUzukioqKrCoox66d5POEr3u3ayVSUK0KPkOEa2lru86pN11SnVdT7mWLa/Our5O7hPru0cEsLS0pKy8XJncoZSVl2Np2al+UgohhBBCCCEa0Knu8K2srDh7rmmLLYu2d/ZcQZ1PkKq6d+dycYkyuUu6XFyCqnt3ZTIAfex7KpOuW3162SqThGhR8h0iWkN933UAVpaW0u46kfqup1zLlnX2XAFWdQQbrpf7xPruEQF69ezBuQuFyuQO5dyFQnp1gnVchRBCCCGEEOar/ZdaB2Vn24NLRVcovXpVmSU6mNKrV7lUdAW7On5E2tn24Oy5AsrKu/ZTpGXlFZw9V4Cdbe318Ofxt2Bvq1ImX3d62ar484RblMlQ/WR3RUWlMlmIWlVUVNY5GkC+Q0RLa+i7DqBnT1suS7vrFBq6nnItW07p1atcLrqCXc/aHxi5Hu4TG7pHBOjT24GsnJOUXi1TZnUIpVfLyMo5SZ/eDsosIYQQQgghRCdmUVlZaeiNTU9PN81tBldXV9zc3JTJZjl2/BT29r2UyQCcO19AeUUFvXr2wKWvozK7Qziac4IBLr3r7HToSPb/dJjRtw1XJjfL2XMFXCq6gpWlJX371H2NCi8VUXylBJe+jtjZ2nSpqS0qKiq4XFzC2XMF2Pawwb5X3SOKlrz9KTmn87l8RafMui7Y9VAxuL8Tq+b+SZkFwNXSUnrZ9egU7yfR/i4XXeHS5St0q+PJ7c7wHfJd+kHuHtc5Fpf/6tsM7vQZqUzucNrzu45O0u5ao45aQ2udp7nXU65l85lb1131PrEx94gAp8+ep+DiZTwGD6Rvb3us6xgJ15bKyss5d6GQrJyTODrY0d+lj7KIEEIIIYQQohOzqKysrFy6dCkJCQnKvGZbsGABCxcuVCY3qL6gEcCVEh2Xi65QXl5ORUUl5R1sru/LRVewsrKih03tnZYdydWrZXRrobVkrK2tsLCwwMrKCjvbHvTo0fAImitXdFwuvoKutJTKLjSaxMLSAlX37mbXQ8rBY2z7+icKikoovVpGsa5jPcVsZWlBeQteH1tVN7p3s8LRrgczJ96G/8ghyiIGVpZV76mB/fpgZdU1OoxE6ygvr+DkmfPY9exBfQ+nd/TvkHMXLiqTOrS+neAJ8/b+rsPo+66jtrsrJaXX3X0LTbyeHf1aVlRWYlnHiMv2ZFzXPW17YNuIuu5K94mNvUcEuFh4mfMXLnKp6EqHWOvJ0tKSXj170Ke3Aw72dspsIYQQQgghRCdnkZaWVjlz5kxleotJSUlp9IijhoJGQojri0VlBcUlOpwc7LDtYVPnwtni+lRRUUnxlRLyL17G1kZFpYUEF4UQQgghhBBCCCGEaAqL119/vXLdunXK9Bazbds2fHx8lMn1kqCREELJyhJKSkop0ZViNKumEFhYWGCj6o6NTfd6RxgJIYQQQgghhBBCCCHqZ/HXv/61sjWmptOToJEQQgghhBBCCCGEEEIIIUTHZwgaubm5MW3aNGV+k5w4ccKwRpIEjYQQQgghhBBCCCGEEEIIITo+Q9DI19eXuLg4ZX6TaLVa/P39QYJGQgghhBBCCCGEEEIIIYQQnUKdQaOlS5fi4+ODj48Pbm5uJjs1pCWCRkIIIYQQQgghhBBCCCGEEKLtWCoTqA76JCQksHTpUhISEtBqtcoiQgghhBBCCCGEEEIIIYQQogupd6SRfl2iBQsWEBwcbPaIo5YYaTRk0ABlshBCCCGEEEIIIYQQXUJ5eQVXr5ZRXlGBBRbY2HTD0rLW57uFEEKINlPnN1F0dDTBwcEArFu3zhBAEkIIIYQQQgghhBBCCCGEEF1PnUEjqgNH+tFF69atk2nqhBBCCCGEEEIIIYQQQgghuqh6g0ZLly41BIp8fX3Nnp5OCCGEEEIIIYQQQgghhBBCdC51Bo3Wrl1rmJJOud4R1esWKTchhBBCCCGEEEIIIYQQQgjROdUaNNJqtaxbtw5qCRglJCSgVqvx9/evsaWnpxsdRQghhBBCCCGEEEIIIYQQQnQWtQaN3NzcCA4OJjg4uNYRRnVJS0tTJgkhhBBCCCGEEEIIIYQQQohOwOKvf/1rZUJCQo0RRfWpbUSRq6urYc0jrVaLv78/ANu2bcPHx0dRun7Hjp9iyKABymQhhBBCCCGEEEIIIbqE8vIKrl4to7yiAgsssLHphqVlrc93CyGEEG3GEDRyc3Nj2rRpyvwm009vJ0EjIYQQQgghhBBCCCFMSdBICCFER2SRlpZWOXPmTGV6i3BzcyMlJUWZ3CAJGgkhhBBCCCGEEEKIrkyCRkIIIToii8rKysr09HTWrVtX73pFjeXj40NwcHCjRxkhQSPRTJWVlXzwwQekpaXxt7/9jT59+iiLCCGEEEIIIYQQQrQrCRpBUUkpT637GIA3Fkylp013ZZEOobOcpxBCtASLysrKSmVie2tq0OjU+ULeSkxld0YWJaVlOPS04V7fP/D4FF/seqiUxbu0yspKMjMz2bBhA9988w3l5eWMGjWKxx9/nDFjxnSqm5Dt27fzxhtvsHnzZjw8PJTZpKenM3PmTMNUiJWVlbz99tt8/fXXbNiwARcXF+UuQgghhBBCCCGEEHVaunQpJ06cUCbj6upKdHS0MrlJmhM0OnbqAq/Fp/BT1klKSsuw6W7NRG8PngjyY0Afe2XxDqs5wZizBZd5eGU8py9cMknvbm3FMHdnFkwbw+3DqtZfb67mnKcQQnQ25n0TdQI/Z58i9JX/kPzTMe4eNYznwiZyx03ufPjdr4S9+j4nzl1U7tJlVVZWkpCQwLRp0zh//jwvvvgiq1evpk+fPsyZM4d169ZRXl6u3K3LsLCw4PHHH2fHjh2NDhhlZWUxbtw4tm/frswSQgghhBBCCCHEdWLBggVotVrS0tJMttoCSW3t5+xTzPnndn4/nc+sSbfzSvhkQu/y5ruDv/OXqPf57fhZ5S6tqqiklEeit/NI9HaKSkqV2a3uliEDeCV8smF7Yqof5y4W8eTaj/hi/2FlcSGEEA3oEkGjgstXiH4/GfueNmx99kEiZ9/NtDtvZsWj97Lh6WkUFpUQte0bSkrLlLt2SZmZmaxevZq5c+fy3nvv8ec//5k//elPrF27lldeeYVNmzaRlJSk3E0IIYQQQgghhBBCVK/THRcXh5tby4xUaSll5RXEfpVB925WbHj6AR6f4svkO4Yzb6of/14WgpWVJZs/309ZeYVy1y6rf+9eTL5juGH7y6TbeeeZYPr17kXcVxouFeuUu7SZhIQE/P39Wbt2rTLLxMyZM/H39yc9PV2ZJYQQba5LBI0OHNFyJDeP6eNGMqifk0nereoBPDD2Zn7KOslvx89A9fDVP0VsJmLj5yZlf805jf/Tb7HxE9MP6KPaczy8Mp7RT6zDb/6bPPPWJ+QVFBnyd2dkcfvctcR+nVFV7vF1fP3jUZ7b9AV3LXmHrBPnTI73SuxuJix+m8O5eSbpLaGyspLPP/8cW1tbpk+fTvfu14bLWlhYcO+99zJu3Dg++eQTiouLoXp6N7VaXeOLafv27YwbN46srCyT9NzcXBYuXIinpyfe3t784x//oKCgoMZ+X3zxBWFhYYwbN45Dhw6xaNEiZs+eTWFhoaHs1atXee655wgLCzM5RnNFR0cTHBxMfn6+Ie3cuXP84x//wNvbm+HDhxMaGsoPP/xAZWUl+fn5BAcHExgYyIkTJ1i+fHmN156Zmcn8+fPx9PTE09OThQsXkpuba8inGa9dCCGEEEIIIYQQHYubm1uHCxrprpZxvrCYgX0c6OvQ0yTPta8Dvp6DOF9YTGFxCQCVlZB66DjTI7cy+vGqfq2n1n2ENu/ajDy19WvtzqjqDzl1vpAX3k1izFPruX3uWu5ZFsOnaf9Fv9hFxMbPGbfwLX7OPsnP2ScZt9C0X+3yFR1RcXtM9v/gm5+pqKi5Wkb6b/8znOe4hW+x+fP9XC1r2kw5rn0d8L9lCP87m8/xM1V9Q5WVsO+/ufwl6n1GP7GO0U+s4+GV8Rw7dUG5O+m//Y9pL7zH7XPXMmHx22z+rGnn4uPjg1arZefOnXUGjmbOnEl6ejqurq5NWhteCCFaWpcIGqVn/g+7Ht3rnKfUb8QgKioqmxSk+Tn7FHNXJ2BlZcnzYRNZOP1Ofjt+lide38n5wqqgi976D3+gWHeVe33+wMC+9gTeMYxLxToOHNYayhQWlXDo9zP84QYXbuxvGuBqCZcuXeLgwYPcdttt9OvXT5mNra0td9xxB9nZ2Zw/f16Z3aCjR4/y8MMPY21tzfr163n11VfJyMjg6aefNgn6nDlzhmeffRZnZ2ceeugh+vbty8SJE9FoNBw7dsxQ7sKFC/zyyy/88Y9/xNHR0ZDe0goKCliyZAkZGRm8+uqrbNy4kRtvvJGHH36Yzz//HAcHB2JiYtixYwcDBgzgxRdfJDExkcGDB0N1YC0sLIzy8nLWr1/P66+/zsWLF3n44Yc5evSoyd9qymsXQgghhBBCCCFExxIaGkpaWhq+vr4dJnik6mZNH3tbjmjz2Peb6YOs1laWRM6+m81LZ9C7ly0ASQcOs3jDLlwc7Xjx/+5m4fQ7yT55gSfXfVRjKQfjfq0BfXpx4txFnnj9Q37KOsVT08by0sOTGDygN//Y+jW7NVV9IRGhE9j58l8YcWM/RtzYj50v/4WZd3kBcKlYx6L1u/hi/2HC772DV8In4z3MldfivyXm8/2GwBPAUW0e0e8n8yefP/D8rIkMc3fm7V1p7NFkXyvUSHY9TNcdSjpwmKffTMShpw0vzr6bZ0L8OZN/mSVvfWKyLtLP2aeI2Pg5ZeUV/PXBAJ4I8iPll2NkVj+M3hhubm6kpKTUGTjSB4x8fHzYtm2bSZ4QQrSXLhE0unylFFub7vRxqPpCVLLpbk03a8tGD0ctKillbcJeBvVzYs28KUwdM4IHx9/KS/93N6cvXOKrA0dMyk8aNYzYZx/kpYcn4TmoH56D+uHa14H03/5nGBacffI8/ztbwLhbBqPqZm2yf0soLy/n8uXLuLi4oFKplNkA9OzZkytXrqDTNa4+rly5woYNGxgxYgR///vfGT9+PJMnT+bvf/87R44cITU11aT8s88+y+rVq3niiSfo168ft9xyCy4uLvz000+GMocPH+bEiROtHjjJysoiNTWVJUuWMHnyZMaNG8eyZcsYN24ce/bs4erVqzg6OtKrVy8sLS3p0aMHjo6OWFlZUVxczJYtW7jzzjtZvXo148ePZ9KkSURHR+Pi4kJMTAylpaZz9nak1y6EEEIIIYQQQojGMQ4YxcXFdZip6qytLHl6+lj6OvRk6Tuf8sSanXz7yzF0V2suyXCpWEfcVxpuGtSPfz7+J+7zvYkHx9/KmvlTKCwq4bO0/5qUV/Zr/fDrcawsLVj52L08OP5W7vO9iZcfnsSAPvZ8mvobZeUV2Nuq6OvQE2srK6ytrOjr0JOeNlXBmpSfj/FrzmmeDZ3II/eMZvIdw/nHI5OZ8seb+Pj7XzlbcC1Q083aipWP/YmH7xnN1DEjeOEvd+Fo14O9B3OMztB8ZeUVHNGew6Z7N+x72nBFd5VvMrLx9byBFY/da6iL5TMDOHHuIum//Q+qR3LFfLaP7t2seGPBVB4cfyszAm5h4zPTGebWV/lnzFJX4EgCRkKIjqpLBI3MVdtw0/rknLpA9slzBI4eRi/bawEYtWsf+jnZ8XP2KZPy424dQjdrK8O/+zr05PZhrmQeP8vJ81XTkh04rKW7tRVeQ12N9mx7J06caPRIoxMnTvDjjz8yefJkbG2vBejc3d0ZOnQoBw8eNKT169eP2267DQsLC0PagAED8PHxITU1laKiIiorK9m3bx+enp7ceOONhnK1OXHiBIGBgajV6hrbzJkzlcVrsLOzo0+fPhw9etQQ4LG3t2fjxo2sWrWqzgAbwO+//86BAwdqvG4XFxcmTZqERqPhzJlrT5u09GsXQgghhBBCCCFE21EGjDBa48jVtX37c6ieei322Qf58/hbOfT7GRat38XYBRt4Ys1Ok76vw7l5ZJ88z6RRQw2BHAD1wD5EPXoPd9zkbkijln6tGQG3kPDSX7hpkIshrYeqG452PbhYpKs1UKVXVl7B7oyjDOxrz+g/XAu2WVjAY/f58HTwndh072ZIv7F/bzxc+xj+3btXDwb06dWktZmKS0qJ+Wwfew/m8McRgxjYx54eqm6snHsvq+dNMamL3r1sseluzdn8ywDkX7rC0RPnuH2oGze4XJshqHs3K3qoTEcuNYYycKRfv0gCRkKIjui6ChoNGdBbmVSvM/mXuXyllH9+kMLtc9catruXbOT309fWyqlPwG1qCi5fQXP0BLqrZWiyTjLM3bnG2kttzdXVlT59rn0Zm+P8+fOcOHGCJ5980iRo4+Xlxd69e5XFa+jWrRtjx45Fo9Fw/Phxw1R6fn5+ODg4KIub6NOnDytWrOC9996rsT333HPK4jUMHTqUp556ipUrV+Lr68szzzzDN998Q0lJ1Ry/9bl06RLnz5+nd++a7eemm27i1KlTDQbgmvPahRBCCCGEEEII0TZqCxjpubm5ER0dbZLWXux6qFgS4k/ymsfZ9vxM7r3jD/xy7BQPr/yA736pGp1zsagE3dUynB3tTPa1trLE56YbuFU90CS9Nke155i/9kPDmkT69YsaortaxsUiHQ49e9SYaaefUy/uun0oDj1tTNKNWVhYYGlhXrfllweOmPTb3bnwLTZ9uo8xI29k8YxxWFtVHaeiopLP0v9btW7SE+u4fe5aZq/4gMtXrs0ec+5iEcUlpdzY3wmjZ4FbhHHgSKvV4ubmJgEjIUSHZN6nbwdn16M7xSWlnL9ousaQXklpGVfLKgxfEo310MTbeCV8co3twQm3KovWMHJwf9QD+7D34O/knLrAEW0eY2++EZvuLT81HYCVlRV2dnacPXu2zunnioqKsLKywsrq2tMjjfHcc8/VCNy899573H///cqiNXh7e9OvXz8yMjI4duwYhw8fxs/Pz2RUTm1sbGzw8vJizJgxNbYRI0Yoi9dgZWXFQw89xA8//MCKFSsAeOaZZ7j33nvRaDTK4mYrLzd/EcSmvnYhhBBCCCGEEEK0vvoCRh2VpaUFw92deenhScQ9NxOHnja8+8UBikpMp9FvigOHtcxZtZ3KSnhjwf18vjLcsH5RR3LLkAEm/XVrnwziy38+yqrH7zPMHFRZCes/+oF/bN3N2JE3Ev9CGJ+vDOf1+UEmI49a29KlS03+rVzjSAghOoKmRVE6GB/PG7h8pZQfj2iVWQCkHjqOpaUFt3k0/ASFMYeeNqi6WdPfqReT7xheYzPniQz7njaMHu7Or7+f5qsfj1JRUcnoP5gO/21JvXr1YuTIkfz0008mU6bpFRcXs2/fPm666Sb69Wvcl3yvXr3o06cPLi4uNQI3Y8aMYdiwYcpdaujbty+jRo3ihx9+4LvvvsPDw4MhQ4Yoi7W4oqIiCgoKsLe3Z9KkSbz22mt8+umn9O3bl7i4uDoDbBi97gsXak5veOTIEQYMGGDWqK32eu1CCCGEEEIIIYSokp6ejlZbs/+oswSMfjxygqnP/5v/7L62ZrLejf2dGHFjf87kX6KopBRnx6r1hS5fMe3zqKysmoatsIG1vz/+/hC9bFW8OPsuvIe64uJoZ1i/qCG2qu44O/SkpPQq5Yop5nRXyzh3sYirZeY/iFuf/r1N++3GjhyMU68eJmXOFxbx1Y9HGH+bmoXT7mTwgN64ONrh1KuHyYiivg49sbXpzv/OFhjv3iKM1zCqbY0jIYRob/rvyC4RNBo1zI1h7s7s+PYgx8+YThv3c/YpPtz7K7d5DOSmQVVBEltVN5wde3Im/7LJkxcXLhVTUnptPlYP1z64OTvw4d5fySsoMqRXVsLegzlcLGp4ajOAgNuGUHSllG27Na0+NZ2Fxf+zd+dhWpeF/sc/wwwDDCCMIKCgiLjgRkouKKKBS+LJCknPMZdcy6XStDS1PJVbWqeyUjMXFEtNA36JiUmiYYiIoaEoKosgKOAgQywCzjC/PwaGmQdQUFHU1+u6nutyvt/7+T7b2HQ9b+/7Lkq/fv2yZMmS/PnPf67bvydJampq8sADD2TUqFH5whe+ULc/z+abb54tt9wyM2bUbvq3auzcuXPrfs7KvYt23XXX3HvvvamsXP3Hs6amJk8//XQWLapd//WdFBcXp0+fPvnnP/+ZW2655UNbnu3222/PV77ylQb/x7Bdu3bZddddU11dnRUr1r1G7rbbbpu99torDz74YJYsWT2bbe7cuXnooYey5557rleA+6heOwAAAFBr5syZOe644xp8P/BxCUZJsmWblsnKJdkWFkSfykVvZcbcyrRq3jRNG5dkm3at02Hzlhn+5IsNvu+aMXd+jr38j7n9waca3L9QVfWKVK+oSU3N6mPzF76VigXv/v1PUVGy106dMu31N/NMveXsamqSG+4bkxOuujuz31zY4D4b04qamlSvqFljj6TpcyobvDdtWzXPbtt2yL+nvJaZbyyoO/7WsrdTueitup83VP1gdOedd66xx5FwBGwKVv2N/EREo9YtmuX7x/bJ4reW5YQr786Pbh+Rv4yemP8d+FDO+tWQbNa8aS76ap+6JeFaNGuSz+7QKc9OfT1X/nFkHnzyxVzxh4fzg1v+lhUrVv8lbN2iWU45Yu+8VvGfnPmrIbn30Qm5/4kXcsGNf80FNz5Qt0bsu9m+Y9t0bl+e5W9Xb9Sl6VbZZZdd8r3vfS8333xzTjzxxPzpT3/KQw89lPPPPz+XXHJJTjvttHz+85+vG9+xY8d07949v/nNbzJ06NA88sgjufDCC3PLLbc0uG7Lli1z+umn59lnn825556bhx56KKNGjcpVV12Vb3zjGxk/fnyD8euy0047ZbvttsuKFSs+tOXZVr3eCy64IA8++GBGjx6dX//61/nTn/6Uz372s2nWrPa/QGnZsmU233zzjBo1KqNGjcqbb76ZsrKyfO1rX8tjjz2W8847L4888kgeeuihXHDBBZk7d25OPfXUlJau31Tmj+K1AwAAAKvVD0cfp2CUJFu12SxnfWn/vDTzjfzPZX/M74Y9kQeffDF//PvTOe3nf87U1+blxM9/Nps1b1r3vda/J7+W864flvufeCF3P/LvfOvXf0nT0sY56sDdCi/fQK/dtk1F5eKc89v7cu+jE/Lze/6RE666O7Mq/tNgXJPGJWmzWVlemf1mhv7zubo9jw7fZ6fs1qVDfnjr33Lr8HF58MkX87+3/S13PfxMjuq9ezpt0brBdTamzVuWZZfO7TPymcm56OYHMuSx53Le9cPyo9sfahCSSoob5fhDe2TRW8tz1q+G5u5H/p17H52QM385pEFE2hCFwWgV4QjYFH1iZholye7bdcigi/4nn9tju4x46qX8ZNDf89C/Xsryt6uzbYfytGhWu4bpKqcesXeO6r1bRo6fnB/e+rc8Pfm1fO+/D0q78oabAx6+90757TlfTlmTxrnmT4/mx7ePyJz5C/Orb34x/9Vz5wZj16VlWZPsv1vntGredKMuTbdKUVFRvvzlL+fee+9NmzZt8uMf/zjf+ta38o9//CPNmzdPly5dGsSKsrKyXHLJJdl9993z/e9/P+eff34222yzXHHFFQ2umyT7779//vCHP6R58+Y599xzc8YZZ2TWrFkZOHBgevfuXTh8rdq1a5eePXume/fuH9rybF27ds3tt9+erl275uKLL86JJ56YRx99NNdcc02OPfbYunHt2rXL6aefnqeffjpnnHFGXnnllSTJvvvumz/84Q8pLi7O2WefnXPPPTetWrXKwIEDs8MOO9R7pHf2Ubx2AAAAoKGZM2fmoIMO+lgFo1U+v/eOGXTR/2SPrlvl7pHP5JJbHsxvh45O86alufZbX8rn99pp9di9dsovzjoycysX5ce3jci1f34sO3RqmxvO7Z+Obd959ZP/6rlzfnTSYXlz4ZL89K5H8vC/Juf8ow/MwT22z+tv/qduplNJcaOc3G+vtG7RLL+897EM/efEZOX3Yb88+8gcvvdOueWBJ3PJLQ9m3KSZ+cHxB+fUfns3WBZuYyspbpQfn3Rojjpgt/zjmam56s6Rmb/wrVz7zS+lXXmLTJ41r25G1We6bpmrTu+XkuJG+dndj+aG+8ak377dcuBnuhRe9l0NHjx4rcFolcJwNHbs2MIhAB+6opqa+pNMNw1Tp7+e7TpvWXh4g9XUJP/vn8/l5/f8I+3LW+bK0w5Pt23aFQ7b6KqqV+Sim4Zn4VvL8quzv7jRZxqty9KlS/Pb3/42t912W0488cR885vfrFui7sO0ZMmSfPe7382uu+6as84661M12+bT/NoBAADgozZ48OBccMEFDY794x//SKdOnRoc+zBUV6/I229XpXrFihSlKE2bNk6jRp+Y/76blXFy8ODBOeeccwpPNbC+4wA2plV/Iz/Rf4mKipL+vXfLDd85Klu2aZlmTRoXDvlQzKpYkGenvf6hLE33Tpo2bZrzzjsvV155ZVq0aJGSko/muUybNi0vvPDCp3J5tk/zawcAAIBNUeEeR/BB6dSp03qFoPUdB/Bh+ERHo1W6b7dlrjunfzq3Ly88tVHNmb8w9z46IeffcH/KmpTmkM+u/zJmG0ujRo3yxS9+MWedddZ678PzQXn11Vdz33335fvf/3723nvv7Lzz+i3v90nwaX7tAAAAsCmrv8cRAHzafaKXp/uojZowNeffcH+23qJ1fnTSoem+3cf/Nb0f9913Xy6++OIcfPDBufjii9O+ffvCIZ9Yn+bXDgAAAJuKmTNnrnPfmE6dOmXfffctPLzRWJ4OgE3Jqr+RohEAAAAAfMhEIwA2Rf4SAQAAAAAAIBoBAAAAAAAgGgEAAAAAACAaAQAAAAAAENEIAAAAAACAiEYAAAAAAABENAIAAAAAACBJimpqamoKD37Upk5/PUdfeU/h4U+1f914TuEhAAAAAD6mqqtX5O23q1K9YkXO+e19eXFmRZYse7twGDTgO0JgYzPTCAAAAAAAgE13phEAAAAAfJIVJWm3RXnmzJ1f+wMAfMTWOxrNnz8/48ePLzy8TuXl5enSpUvKy8sLT72rqdNfT7st2hQe/thpUVZaeAgAAAAAGixPV5SiNG3aOI0aWRQIgI/WekejSy65pPDQuyovL8+AAQPSpUuXwlPvSDQCAAAA4JNMNAJgU7Ref4nqzzAqLy9fr1vew+wkAAAAAAAAPhrrNdNo8ODBGT9+fLbbbruceuqphafX6r3cZxUzjQAAAAD4JDPTCIBNkb9EAAAAAAAAiEYAAAAAAACsXJ5u1d5DlZWVheeTJNOmTcv8+fNTXl6evn37pkePHoVD1mB5OsvTAQAAALB2lqcDYFNUvPvuu/9o8ODBmTZtWl5//fW13pYuXZokWbp0aV544YVUVlZml112aXChhx9+OOXl5WnWrFmS5IUXXsjrr7+e8vLy9YpM9c1fsCjNm5cVHv7YKW1cXHgIAAAAAFJTU5MVK1akpqYmRSlKSUlxioqKCocBwIeq0bRp05Ik5eXl2W677d71lpUzj+q75ZZbMnLkyHXOVAIAAAAAAGDTVnTxxRfXJMmAAQPedUbQtGnTcvPNNydJvvvd76a8vDy33HJLpk6dmr59+9ZFpSQZOXJkpk6dank6AAAAAChgeToANkXv6y/Rww8/nKlTpyYrI9HNN99cd1t1HAAAAAAAgE3f+4pGPXr0qJtdVF5engEDBtTd6s86Yj0sXZCKV6bntVfmZeHSqsKzm6alC1Ixc16WfEye7ketunJO5sxenOrCEx9Lc3PnJfem6OYXCk+s6Y2xGXDMvSmqdxswfG7hqLWaPXxY7X3W53HYQCs/w2PuzRUTCs8BAAAAAJ9G73t5uvnz52fIkCGZP39+BgwYkC5duiRJBg8enPHjx1ue7l1UV76UJ658IBN/tqzB8dIzu6fnpYemW4eS2nGzx+QvfUalYlKDYav12zF97+yf7VsnqZqXCRfflid+VpXWd/5PBhzbOcWF41faoOsmSdWCzBgxKk/d9FIqhq6qRSUpu2iX7HVW33TrVJXJv7wpI89r+HrWVJKtRp6Ufn3arPO5fZiWPDcsQ3Z/PksKT6xU/L0+GXDlPmldNT1PnHV3JgwsHJEUn9A1PS49Mntu36Te0WWZ88hDGf2z51MxfOWh3Zqn/QUH5qCju6d109pDC//55wzuPSXL0yTbjDk5h/dslSSpnv1k7u/3SOY8k5Rd3z9HnbljylZf/CM0N3de8o8c12W31Jy2c+HJd/BCrjjmuYw/+aAM7teu8OQaZg8fli0HLk122CavX7FvOhQO4H1Y+Rm+nBy1np8HAAAAHxzL0wGwKXrHv0QPP/xwHn744cLDDZSXl+eoo47KnnvuWXjqIzIxQ268K9feeFeGbOqTExZNyRMXDK0LRqX9mqdsr9pTy2+YkNHXjEtFvVk8q+JKaf9WaX1ymwa3tvu1SVltX9pg633dqgWZfNNdefCI52uDUacmKevXJMWpypKrJmTUeQ9l2qKSlG3bIW1XXeOEVildFZz2ap6Wq46f3j7l5SWbRDAqVHpsw/eg9clt0nbnFms+1z6t0vqEVinbo/bH6jumZNzRd2Xc5FXBrCoVw4dmeN+Vwahbk5QdkOS5xZlz4vDcf8OELFxjltayzH5sehauvP/Cp19KxTOFYz49OvQ7MjX3HJ0awWgjaJevXnF0au45WjACAAAAAJJ3ikaDBw/OyJEjCw+vVXl5eQ4++OC6WUYflYl/vSvX3jghrxae2EQtmfx8pt2UZI+O2fvV83PSA9/M8eMuzEmvH5ldf9I13b/ePW3rhaDqJGnbJjtcc3KOufW0BrejfnhgtmpR7+IbYH2vu/CZkXnirAVJ6+bpMvKknPTquTn+gXNz6sLjs/cvOqfbBQdmmxZNslX//8lRddc4Op85ufZFtD7vyNXX/v3x6bVH7Wya9+7pXHXKPXmj8PD70bNz9v51w/fgmFtPy5dO3iUtG0S5krT/Xv8MGHRGjn/6/Bw/rU+69E/yzJxMfmRmlieprng+T/1yepYnaT3oKzn+hXNz/GPn59hxu6Rli2TJBY/n6UmL6180SbJ8xEuZU7lyVtdjcz4hy9kBAAAAALCpW2s0WrW0XHl5ecrLyzN+/Pi626Zs1/86Nud849icc1TnbFZ4chNUvWhZ1phokqS0wy7p9cOvZO9uzQtPfXSq5mTynVOzJEnpxQemZ+/2qVt8r0XH7Pmd/8mBe7VaczbOxjT75UwuPPaRKEnZtrumS+/az2tZ5eIsS1UWjpuQWSOSHNo13Y/svHJZuZK03GP/7HpmSVK1IFOHT1k5q6ieETMzbdKCLK+YkmnD1/YbsiFq960ZMHxuMmHkO+8rtHLvoTX3t3mX/Yve7bob5IVcUbD/0fpcc8zNhfcZmTGFg9bXhJEpOmZY7lyjRtY+t7U9lzUff833cczN96bokrGZ3fDwuz5eg+uu7f5ZeY1V5wr3kKr/uRV8VrW3tT32Kqv3PVrX66pT+Ljv9HwBAAAAgE3SGtFo/vz5dXFo/vz5GTx4cN1tU49GHzdl23ZM+R5JnpmVcUfflgeHvpTKd2sEFUuz8IUpmfbcS6tvk+Zkybvd7928y3WrK2dl1mNVSZqkY5+uBbNuPkSz32g4s+gfUzJzXec+TItm57Wna2cNlXVqlSZZlopJFalOUtxzu3RoUe8NK2mV9vvV7tm1/OlZmb909alayzLrsSmZ/QEuTTdk4D9S9OSWtUu93XN0an7QJkMG/mOtAWSDPPTcB3zdnXPJqmvdc3Rq7tktlxcOqW9lqNh/2jZ5vd79Hj9sXvb/kILFmJvvzf4Ptcnj9Z/3ddtk/OXvEFjezRtjM2Dl3k+r34uD8sfMyJbrel0vL87I4cNS9KvkuvrPpf6eU9371rte7ee1Tm+MzYBjVu5bVfC61vh83xibAWfPSBo836PzeJd3eL4AAAAAwCZnjWhUXl6eAQMG1P182mmn1d3qH/80eGzUqMJDdaZPn/6O59dHcace6XnNjmm5fZIn5mXGUUNzz343Z+Twl1K5RkhYZXFmfHFYRuw+dPXt2BGZ/K616d2883WrKxdkyStJtm2R1m2bFN75Q/PGzJvz/a5d07Vr13TtdVEezc35yqqfL/5+Hnmq8B4b6InpGfftm3PPKatvQ375ZCrW+DyqMn/E4xk9cHhGXHZb7urz50y6I0m39umyX8eUVi3NktdrF5ZrsnWrgv2mSlK2ZYvamVqzF2dJ/Wsf0Cpl2yfLh0zI03fNSXWapOXRH0ChO2y3NeLB44clQwY+995n5GQjXne9zM2dv5qRITtsk9cL9jza77QPax+kuZk2LclhW2a/+oe32DeD7zk6l3Svf3ADrLx/w72G2uWr/90meXluRq61js7L4Oz7gb3uMX9Z+d7W/3y32DeDf9AmQwaObTg76fXFGZKmGbBXw72RPrzPAQAAAAD4IKwRjZKkR48edYFo5MiR6dKlS7p06ZLy8vK6MUOGDMktt9yyztu0adOSJK1bt667z8fJlVdcliP6HZorr7is8FSmT5+e3XbZMWeecVrhqQ3UJO0P7Z9jxv1Pev6+Y8o6JXlqXiYfMTT39L4tT6xlv5skKe3fKq1PbrP61q9NWpa8/7Dwztetqt1bp6Qkef8P9Z5tsddFuWXKlEyZMiV/Pr322Gl/qv15yq235Ji9Cu+x4ZbfNS+VA1ffKp5ekOWFg5Is/+VLmXTKhEy7dE4WPpVkrzbpNvDI9Ni29g1atRdR8Vrer+KSdSzk16Vjtjm6SfLEnMy5oyo5unO22X3jRLr99mmTZHGmrTVAvHcb67preGNaBr+cHHVAl48wSrRL3wOa1s64ej9L4r2D2cOHrV7u7fJ5SZZm2uuFo5KsJdq8dy9k5EPreG+7b5nLszSDn6o322jlsePOXsssJAAAAADgY2Ot0Sj1wlHfvn0LTyVJpk6d+o63+fPnJyuv83F03PEnpnPnzrnqyssbhKNVwShJLrr4B/Xu8d4Vt+6c7qcfn+NfOCl9h+yStgckeWpOJlw6MpMrCwa3bZMdrjk5x9x62urblf3S5f22uXe5bnHTFmnSNsnkRXmrclUO+QjNvie/velzuerq03Lzf1+VpwvPv1c9O6fXGxfm6zX1boMOzVZNCwcmpd/ZMd2u75qW3VIbAC/tl14926zc16kkzcpr/2nZ7MVZ1uCeVVnyxuLaqNS6SZrUj0pNW2SrPp3q9otq3W+ntHm/n+0nXI+OH1QoeW869Dty5TJ687J/vf183m88WbVP0pb/bLd66b3rtslRhQM3hjf+kw1bjLR2WcHXT25auxRi3fuwcUIaAAAAALBxrDMaZWXw6dKlS+HhZOW5d7r17ds3V1xxxTrvv6nr3Llz/jp8RINwVD8Y/e7Gm3Lc8ScW3u39adE+2/c/Ml+4qUdatk1y7/S8NrNhbvioFLfdKu33TpLFmTVu5lpn3nx43sg9F1+U7f90S475ykV54urJ+cpPP7BstJ5KUn7o/ul15pE56CftkyzLnGsey8TZK5cJLGme8m61tWf507Myf1H9+y5OxXMr9zvq1j7lBUGqbOcd0+HQJB3aZJve7bNx5hnxwWq4F1NdPLn5hcKB62fCyOz/UNP88bqPaHm3LTbLe8n9tQFt1fuwKqQNa7iUHQAAAACwyXrHaPRO+vbtmwEDBqzzdvDBBxfe5WOnMBx90MFoyaRRuf/iYZlYEIaqqqqSpUk6NU2zFutYxuzD1rRjtj+6Y4qTLPz9mEx8pd5zrlqcGff+Offf8VKWvN+tldbDG3/+fi7a8c+5aOVSdFt85ae56qWv5Kr3u5/Re9IkW/XrnW7HJvnn9Ey44/ksrEqSkrTde6e03S3JvS/m+Wfm1S1XVz3z+bx4z7KVyxN2TcuC5euK2+6SXr//Sg5/rH96bLuWKU4fkDFPzkt2aJe+W6w8sDIUjJ9VMENm5TJw62uN624sW3TJgB2SH/xpbGYXnnsnT11VuwfWKfdkrS1jy+Y5am1LwE14Pes7t7BDvyPz+GFJpv2n7rl16dg0eXlxahfuXG3Mk/MKjiSzZy3+cN7Dddo5fQ9Lhvxz2prv7YTX84P1Wgpv51xy3TZrfy8BAAAAgE3Se45Gnxb1w1E+wGCUpdMz4Rdj8tpVz2f01jfknsuGZdRNw/Lgeb/LXbtPyMJFSfGRO2abDgVFoWJBZg0dmVEDhze4jb73ybzWYDZLrYWPjMvowrF3jMqkwhlM73rdkrQ/tE92/VZJ8sSsjNvvpgy5alhGDRyeERcMzIPHTMlr3x6Zpydv/JlRW3zllkz5/p71j+SYW6fURaQPXYuu2fPbO6YsyZKfPJ5xz9XuRVXcqXv2/HarJMsyo/cd+ctVwzLqN3dncP9RmfNUkjM/kx77rVrOrr6StNy2a7bZvk1K17If0nvy0HMNlkubPXxY9n8oufy/689iWRkKBj63ekmxN8ZmwNmL0+OwukENrdd162uTLjusI0ZssHb56rnb5KiXZ2TLSxqGo9nDh6Wo4NgqT//95tp/+Mff8sjaBqwtRk0YmaI/JZfv0HBo3hibAWtbiu6Nsfl5wZ5AHfZql6MyLz+vN3bMzffm52mzxpJzHTo2T16ekVsmrD42e/iwFJ09I0PqD9yI9vvSyve2/mypN8ZmwOXzctTJ++ar9YJW7VJ6ay5FN+YvMzIkbdK3e8EJAAAAAGCT9ImJRm+MHpprb7yr9jZkev6T5NVRK3++8a4MeY+rRKVeOHru+Zc+mGCUJE07Z+8rj8yuFzVPsiyVlz6fSV9/PjN+uaB2RsrRO6bnxfum/RoTTapSecGETDql4W3ixc9nVsWa03yqb5qy5tgTx+eVmUsLRq7HdZt2zN4/+XK6/7B5MntxKi5+PpNOmZBpv1ycbN8q29zZL3t3+3QuptZyr/3T/aImyaIFmXz94ytDW/N0OaF/ev6iNhxVXPx8Jn17eiqfSorP7J6+P+m91r2SNorDdst1GVu318yWA5M/Xnd0Lin4Mn+/0wr25vlVct09fbP2nc2Sy39w9Hpdd7V2+eoVu+Xyl2dky7p9b97H8mVb7JvB9xyUP6b+9e7NlgOb5/Fz17405p6HnFb7Dwd9Pn3WWrbqxahV13xyy9RcsVvWvGKXXHfPQRnwz/r7+NyborNnpMcPjs7gfvVm42yxb64r2PNn5D5HZ/CXmte/YK3ufVPzgzb5weWrr3l29l255NuHZNV7O+25d35dmZsuXzo6NT9Igz2dio65N/tP2yav39M3+9UbDQAAAABsuopuvvnmmqlTp6a8vLzw3Brmz59f989XXHFFg3MfpKnTX0+7LdoUHv7YaVFWWnhoraoXzcucydMz5+V5WVLVJC137prtd+uYsvqzTKoWZM7kOete/q2kedpu33HlUmdVWThzeioqVy2IVqhJWm7bMW1blGzgdVerrpyVGc/NSMUbxWm5Q+d07NZ+jTG1qrLwlempWJSUdeiU9m030ai0dF5emzwvy0papf327Ru+9w0sS+UrMzN/UVLWqXPat149sHrRnMx6ZUGq0yTl23dO63pBqLpyVmY8PSMVS5uk/e47pWOn5g1mGFUvmpM5ryxIVYv26bhtqwbnls+entkVVSlp2ylbddjQ929u7rzkHzmuy26pOW3nwpMAAADAR6S6ekXefrsq1StWpChFadq0cRo1+sT8990AfEwV/etf/6oZPHhw4fF31KNHjwwYMKDw8Afm0xaNYOMRjQAAAGBTJBoBsCkqqqmpqZk/f36mTZvWYCbRuvTo0WO9ZiW9H6IRfFBEIwAAANgUiUYAbIqKampqagoPftREI/igiEYAAACwKRKNANgUiUYbkWgEAAAAwNqIRgBsivwlAgAAAAAAQDQCAAAAAABANAIAAAAAAEA0AgAAAAAAIKIRAAAAAAAAEY0AAAAAAACIaARrV71oQRYurSo8DAAAAAAAn1ii0aaialkqZ87JwqWFJ/iwLXxmWO7Z+Xe5a/fbMuq5xYWn165yfO7f7+r8vvHvMmrSssKzG0/VsiycOT2vTZ6VysplqS48v4aqLJk9KxWVH+JzBAAAAADgY6GopqampvDgR23q9NfTbos2hYc/dlqUlRYeWkN1xUsZd8PITLx0Qd0X/qWn75jPnHdY9uzWvG7cwn/+OYN7T8nyuiMrtW2S9r84LAcdu0talyTJssy46aY8+PV6saNPq7Q9oGO2Oqx7uvfsnLKS1aeqZ4/JX/qMSsWk1cca6Ldj+t7ZP9u3XpxpNwzMiLPWElF6tsn2PzsyBx3QPsWF597V4kz7zcCM+Paa1y09oWu6XXBo9t6tVYqrFmTSzwZm1MXLUvyd/fKFKw9M+6arx1ZXTsiIY4ZnxoiStH/g+Hyh33t5LklSldfuui33f3VekqT1PcdnwNEd3/1aleNzf78Ree2pVun27Mk5sFuTwhHrbfnkR/L/ej+Zytnv8Fqq5mXSwKEZ/fV5DUPRoR3T/Zojs/cerRrcZ/nMCRk38Mm8/Pt5WT5z5cE+bdLlO33Ss1/XtKz3OwEAAABsfNXVK/L221WpXrEiRSlK06aN06iR/74bgI/WJ+ov0Rujh+baG++qdxuRiYWDNiWVL2X0eUMzYWUwKj60SYqTLL/ppYw7+t48MXlts0FKUnZCm7TsvzJKVCzLnBOH5f7fTMjCwtXUtm+Slsc2T+kbC1Jx2fOZ0Pvu3HXKsEyqaDhwVVwo7d8qrU9u0+DWdr82DSJTkqRb87Q8uU1aHrryxBPzMrn3XRk+Ys56zHR5B92ap+UJrVLarfbH5XdMyYQzh2fi7KqkpFW2O7ZH2nZLqn85IROeWVDvjssyZ8STmTEiybG7ZM/ea4ks660k7fv0yPYXtUnri7qne5/3c633Ylkqxk1J5ewkqUrFiKmZX/i5Vi3I5BvuzaiVwaj4gOYpW/VZjJiVCeeNaPAZL39lTIYfPTwTL60NRsV9mqdsrySPzMu0L/6/jHy/nxsAAAAAAJ8In5BoNCeP3nlX7nyuRQ75xrE5Z+Xtq7styt9vHJpH3ygcvylYltdGjMqkO5Ic2jW9Xj0/pz50bk596/js+b2S5Lk5mXjr+BT0naT/jul1/Wk5dsi5+fpbp+XQO2ujxpJBEzKtYHDpiQfmC4O+mZOevTAnvXpouhybVN/xfJ64YUIq6w2tTpK2bbLDNSfnmFtPa3A76ocHZqsW9S666rq3npZjHzo/p87/Svb8YZPa13Pv86l4H8vrlZ7SN18YdEZOeuH8HPvCfml/QJJ/zsq0p2vjSOm2n033s5rXzk669cm8tvKxqitezISb5iVpkq1O3ycdC57vhiru0CN9rzwtx1zZL93aFhaz1aqXLkjFK9MzZ/biLK9a97gNsnR2po2oneWUJNXDX8yrsxt+rtWVUzLpzgVJmmSbx87IqY99M8c/dH6+vvD49Pp953T53n7ZYdXzXjor//7F45nzRFL8nX1y+Pzzc+rIb+b4cefnmHE9stU1+6fnhx7GAAAAAADYFH1ColGy66HH5pxvHJpd6x3boteO2TpLM+2lOfWObiIWzcyke1cugXb63tmh08ov+Zt2zK4n7pKyJNV3TMzkmWubbbRS0zbZpvd2Kd8+ScXSLFm67vkipZ165KBLe6Rl22T5rePz8jtddwMUt+6cHfp0qI0OlUuzrDBybZBVdy5Jy+13yjZ7liSpSnXdNZunS//Ppv0eSW6amPFj5qW6/iyj0z+THvu12fAAUrFyP6KiwttvM/KZNZfNy9I5mXjDzbmt2e8ypMvd+cuWv81t/UZmzhOFAzfc8pkvZdawJEd3TbeLmiST5mTa0wUzgZYuy/LKVT9UrT7XomN2Pf1/cmi/jlm1MOKSSePz4m+qkm3bZNez9s82tWsYJilJ670OzRe+t1+DZf4AAAAAAPj0+oREo/bZYovCY0nSNpu3TP5TWVF44iNXXTErlU8nadEqHXfvUPclf5KUdeqc9v2SzFyQimmL3mHpsKosfPm1/Gdykm1bpHWLd95Hp7TTdmnfJ8krCzLn5YLrVizNwhemZNpzL62+TZqTJe8WgaoWp+KZitpl0jq1Ttn7CBDVr8/JrGdeyrTnns/EoY9l4h1VSYc22Wrn1nUhqLhT93Q/q1XtzKa7JmTOzBcz8Y7aWUZdTumRrd7L4zdtkfI+9ZblO7b5usNT1YJMvunejD5rXqpTkrJj26T1Ca1SWrHsHT6n9bUsFWOmp7IiKTu0e3Y6tDbGVQyf0mAGV3HbrdK+d+34Gf3uyF9+Myav1Z86VmdZKp6elSWp3Zuqy7bv/PsBAAAAAMCn2yckGq3DG1MybWGy9Xb15x9tGqoXLc6SlbGnZeuCRNG0VVp2SpKqLClc7+2FWXnxjuEZdcPQ/OWU3+WevtOzPEnZUd2zTduGQ9fQtEVats3K6y4qOLk4M744LCN2H7r6duyITF5LjFg+7vmMGzg8I395d4Ycc3NGnrc4SZO0P3LHlL+PVdqqfzk+o/YcmhG7D8voY6ZkSWXS8tID0337+rGjebY5cp9sdUCSm/6df/5kVKYNT4q/1SPd92hVb9wGaLFjel1Zb1m+6/tmm0MLB9Wqnv18Jvx+cZKStB3ylRxz52k5ZtAZOeGxA9N+t8LRG6huabrm2Wrvjmm783Zpu1eSYS9lRv0l6pp2zp4X7JetjkyyaFkqvj0q95f/Nn8ZOD6v1V+isGppFs6s/f0p3aFtWr6PzwYAAAAAgE++T3Q0mvjk9PynZef03rnwzKZg5Zf7JStv9ZWUrJ7pUthsJi3IjLMmZNJZL2XOwNql08p+sl/6nl67pN36Wr3k22ql/Vutnm1zcpu07tcmLUsKn1ySodMz+ZQJmXze9FQMraoNRncekYN6v4el4err1jwtT26VloeufsyFPxmZJ56o3dNoleIOu6bHWW2SLEvlTYtrl6075bMfwjJrVVn4wpTMfy7JkTtmzz6d62aIFbdokuL3uZfS8pkvZcbwJHu0SJNFszJjZtJyhyQz52XauIZL1JVtf2C+MOSMHHrfjmnbJ0mWZc4pI3L/Fr/N/cNmZXm9sVnLrxgAAAAAABT6xEajiX+9K3+f2TaHfHX/rHXluo9a0xYp7bByL6JFBQubLV2QhRVJUpImdXvQrNStVba5vnu6fGfl7Jtjd0nPbx2YrdYnWCxdkIUzk6QkZW0LCkvbNtnhmpNXz7a59bQcc2W/dGndcFiSpH/nbP/7XdK+f+2PZVcemIOO3vF9z2QpPaVvvnDrGTn2ofNz6sKT0ndQ+xTPXpDJ1zyeGQ0mRjVJ+0P3qZsNVHzRPum+W/P6AzaS6iyZXbusX/H2bVO+Pu/5eluWijFTaj/3Z+ZkYu+hGbH3I5l8V+3ZyhEvNViiLklS0ipdjuyfox76Zr7w2D7Z5uSS2mX7vj084yYtTkpKUrby92fZ64uyfC2hEAAAAAAAVvlERqPaYNQ0nznq0Gx6C9PVKm3bPuW71+5bVLi/0PKKWakYl6Skecq7rN7PJ0myc8fsdEK/9L24b7r0S3LX8xk3dErtvjXvYskrUzJneJJOrdJ+h4LrboDSvXfJ3icfmUN/0j0tWydLLn48455aUDjsPVhdNYpbtE+XPjulvFuScXMyp/6ya0mKW3dM+91qg0jL3du/r2Xx1l9xsnLmVfWipVn2QUaYpbMzbUTte1hcf8bXsSvj4PApmTZ7WcP7rFLSPFsd0CeH/6JfuhyZ5JV5mfVsZarTJOW7tU1xkurHpmZGwXsIAAAAAAD1feKi0epg1D+f2ySnGK3UunO6HNk8SVXm3Ds+c+pmkSzOrOEvpnJmkhO6Zvtt6+/ns1px212y53c6pzjJwisfyYTJ6wgKKy2fOT6jr5yQhVVJcf8d06XT2q+73kqSsm77Z89LmydZnGm/fjzTCrdJ2mD1y09V5j87JfMnJWnbNGUbfem59VGSll1a1y5JN2Z6g/2DqhctS/X7eP3LX3kpM4YlOaBzev6+3myvW49O9zNrl6ibMWZ2lieprnwpoy+9O6OfarhsX3VV1cplB0vSpHXTJCVpvWePdOmf5InpmTj0pSys142qZ47PyEuHZsLMd/7dAQAAAADg0+ETFI3m5NE7Vy5J941NPBgltfvw9N8n7XsmuWl8hp/4h4y4aXhGnDcwI85akKRJtvn6Pu+wT09J2vbunV3PLEkmz8vE349P4USS5eOezxM3Dc1fTvxVbtt6RKbdVTvLaIevr2X/n4oFmTV0ZEYNHN7gNvreJ/PaumJISavscOw+2apnkrsmZNyw6WvspbMhlo+bkHEDh2fkL+/OkGN+myFHzEp1ktJjdkmXth/KVKJ31XK37tnu2CTPzcm48/6c0cPHZ+Kw4bn/66My57nC0etrWWaPmZKFlUlpnx2zTf0lCZu2zTa92yR1S9Qtzoy7RmbiZdMzce+bc9e3/5yRNw3PiMtuy129h9fuidSzY7rs3qp2Jlnr7bL3BTumLMnCs4blnpW/Z6N+c3fuOXJEJl/2Usb//t+pNAkJAAAAAOBT7xMSjebk0TtH5t8Lk6Qif7/xrlzb4DY0j75ReJ+PXnGnHul70z5p3yepvndWpn19Qqb9cnHSunm2uq9/+vZc+cX/ujTtmO5n7ZKWrZPqn43NU080nHmSYbMy7ayXMueOlTNJjuyY7sOOTa+17v9TlcoLJmTSKQ1vEy9+PrMKa1Q9xR0+kx7ntU+SVF7zWCbOXPfYd3Xv9Ew+ZUImnzc9FffWPufS7+2Tvmd2f9/7JX1gWuyYvS7dL+371D7fiUeMyOgvTsicpa3Sco/Cwetp0cy8MnxBbQjs0zllDV5rk7Tdu2tad0gybEqmzSxJl5P7p9fv26e0dbLkN1My+esTMu3SOVkyKUm3Nun2m0Oza4dVFylJy55H5vDHdknrvZLqu2p/zyZ9e3oWPpOUfqdHDvh2jxRunQUAAAAAwKdPUU1NTU3hwY/a1Omvp90WtbMrPs5alJUWHlq7qsWpmDwlr728ONlyq2yzW+e0LpgJVL1oTua8siBVTdukw/ZtapdIS5IsS+UrMzN/UXWKW7dPx06tUl0xPbNnL6sXkIrTpHWHtO/UfM0IVbUgcybPyZJ1tZ6S5mm7fce0LEmWz56e2RVVKSm8Vt01ilPWoXPab+CsoNrr1n++SXGLNunQqU1K13mpqix8ZXoqFiVlHTqlfdv3udxefVWLU/HK7CxcWpLy7df8LJKketGsvPzIS5m3qDitd98pXbq1SfXs6alYVJLybdd+n3Va9f6ledpu2zEtC+9b93ySsk6d035V4alanIrJ0zPn5TmprExKu2yTLnt0TtsW63jTqpal8pUpmfFCRapbtE373bumfdsma/5OAAAAABtddfWKvP12VapXrEhRitK0aeM0avQJ+e+7AfjYEo02ovWORgAAAAB8qohGAGyK/CUCAAAAAABANAIAAAAAAEA0AgAAAAAAQDQCAAAAAAAgohEAAAAAAAARjQAAAAAAAIhoBAAAAAAAQEQjAAAAAAAAIhoBAAAAAAAQ0QgAAAAAAICIRgAAAAAAAEQ0AgAAAAAAIKIRAAAAAAAAEY0AAAAAAACIaAQAAAAAAEBEIwAAAAAAACIaAQAAAAAAENEIAAAAAACAiEYAAAAAAABENAIAAAAAACCiEQAAAAAAABGNAAAAAAAAiGgEAAAAAABARCMAAAAAAAAiGgEAAAAAABDRCAAAAAAAgIhGAAAAAAAARDQCAAAAAAAgohEAAAAAAAARjQAAAAAAAIhoBAAAAAAAQEQjAAAAAAAAIhoBAAAAAAAQ0QgAAAAAAICIRgAAAAAAAEQ0AgAAAAAAIKIRAAAAAAAAEY0AAAAAAACIaAQAAAAAAEBEIwAAAAAAACIaAQAAAAAAENEIAAAAAACAiEYAAAAAAABENAIAAAAAACCiEQAAAAAAABGNAAAAAAAAiGgEAAAAAABARCMAAAAAAAAiGgEAAAAAABDRCAAAAAAAgIhGAAAAAAAARDQCAAAAAAAgohEAAAAAAAARjQAAAAAAAIhoBAAAAAAAQEQjAAAAAAAAIhoBAAAAAAAQ0QgAAAAAAICIRgAAAAAAAEQ0AgAAAAAAIKIRAAAAAAAAEY0AAAAAAACIaAQAAAAAAEBEIwAAAAAAACIaAQAAAAAAENEIAAAAAACAiEYAAAAAAABENAIAAAAAACCiEQAAAAAAABGNAAAAAAAAiGgEAAAAAABARCMAAAAAAAAiGgEAAAAAABDRCAAAAAAAgIhGAAAAAAAARDQCAAAAAAAgohEAAAAAAAARjQAAAAAAAIhoBAAAAAAAQEQjAAAAAAAAIhoBAAAAAAAQ0QgAAAAAAICIRgAAAAAAAEQ0AgAAAAAAIKIRAAAAAAAAEY0AAAAAAACIaAQAAAAAAEBEIwAAAAAAACIaAQAAAAAAENEIAAAAAACAiEYAAAAAAABENAIAAAAAACCiEQAAAAAAABGNAAAAAAAAiGgEAAAAAABARCMAAAAAAAAiGgEAAAAAABDRCAAAAAAAgIhGAAAAAAAARDQCAAAAAAAgohEAAAAAAAARjQAAAAAAAIhoBAAAAAAAQEQjAAAAAAAAIhoBAAAAAAAQ0QgAAAAAAICIRgAAAAAAAEQ0AgAAAAAAIKIRAAAAAAAAEY0AAAAAAACIaAQAAAAAAEBEIwAAAAAAACIaAQAAAAAAENEIAAAAAACAiEYAAAAAAABENAIAAAAAACCiEQAAAAAAABGNAAAAAAAAiGgEAAAAAABARCMAAAAAAAAiGgEAAAAAABDRCAAAAAAAgIhGAAAAAAAARDQCAAAAAAAgohEAAAAAAAARjQAAAAAAAIhoBAAAAAAAQEQjAAAAAAAAIhoBAAAAAAAQ0QgAAAAAAICIRgAAAAAAAEQ0AgAAAAAAIKIRAAAAAAAAEY0AAAAAAACIaAQAAAAAAEBEIwAAAAAAACIaAQAAAAAAENEIAAAAAACAiEYAAAAAAABENAIAAAAAACCiEQAAAAAAABGNAAAAAAAAiGgEAAAAAABARCMAAAAAAAAiGgEAAAAAABDRCAAAAAAAgIhGAAAAAAAARDQCAAAAAAAgohEAAAAAAAARjQAAAAAAAIhoBAAAAAAAQEQjAAAAAAAAIhoBAAAAAAAQ0QgAAAAAAICIRgAAAAAAAEQ0AgAAAAAAIKIRAAAAAAAAEY0AAAAAAACIaAQAAAAAAEBEIwAAAAAAACIaAQAAAAAAENEIAAAAAACAiEYAAAAAAABENAIAAAAAACCiEQAAAAAAABGNAAAAAAAAiGgEAAAAAABARCMAAAAAAAAiGgEAAAAAABDRCAAAAAAAgIhGAAAAAAAARDQCAAAAAAAgohEAAAAAAAARjQAAAAAAAIhoBAAAAAAAQEQjAAAAAAAAIhoBAAAAAAAQ0QgAAAAAAICIRgAAAAAAAEQ0AgAAAAAAIKIRAAAAAAAAEY0AAAAAAACIaAQAAAAAAEBEIwAAAAAAACIaAQAAAAAAENEIAAAAAACAiEYAAAAAAABENAIAAAAAACCiEQAAAAAAABGNAAAAAAAAiGgEAAAAAABARCMAAAAAAAAiGgEAAAAAABDRCAAAAAAAgIhGAAAAAAAARDQCAAAAAAAgohEAAAAAAAARjQAAAAAAAIhoBAAAAAAAQEQjAAAAAAAAIhoBAAAAAAAQ0QgAAAAAAICIRgAAAAAAAEQ0AgAAAAAAIKIRAAAAAAAAEY0AAAAAAACIaAQAAAAAAEBEIwAAAAAAACIaAQAAAAAAENEIAAAAAACAiEYAAAAAAABENAIAAAAAACCiEQAAAAAAABGNAAAAAAAAiGgEAAAAAABARCMAAAAAAAAiGgEAAAAAABDRCAAAAAAAgIhGAAAAAAAARDQCAAAAAAAgohEAAAAAAAARjQAAAAAAAIhoBAAAAAAAQEQjAAAAAAAAIhoBAAAAAAAQ0QgAAAAAAICIRgAAAAAAAEQ0AgAAAAAAIKIRAAAAAAAAEY0AAAAAAACIaAQAAAAAAEBEIwAAAAAAACIaAQAAAAAAENEIAAAAAACAiEYAAAAAAABENAIAAAAAACCiEQAAAAAAABGNAAAAAAAAiGgEAAAAAABARCMAAAAAAAAiGgEAAAAAABDRCAAAAAAAgIhGAAAAAAAARDQCAAAAAAAgohEAAAAAAAARjQAAAAAAAIhoBAAAAAAAQEQjAAAAAAAAIhoBAAAAAAAQ0QgAAAAAAICIRgAAAAAAAEQ0AgAAAAAAIKIRAAAAAAAAEY0AAAAAAACIaAQAAAAAAEBEIwAAAAAAACIaAQAAAAAAENEIAAAAAACAiEYAAAAAAABENAIAAAAAACCiEQAAAAAAABGNAAAAAAAAiGgEAAAAAABARCMAAAAAAAAiGgEAAAAAABDRCAAAAAAAgIhGAAAAAAAARDQCAAAAAAAgohEAAAAAAAARjQAAAAAAAIhoBAAAAAAAQEQjAAAAAAAAIhoBAAAAAAAQ0QgAAAAAAICIRgAAAAAAAEQ0AgAAAAAAIKIRAAAAAAAAEY0AAAAAAACIaAQAAAAAAEBEIwAAAAAAACIaAQAAAAAAENEIAAAAAACAiEYAAAAAAABENAIAAAAAACCiEQAAAAAAABGNAAAAAAAAiGgEAAAAAABARCMAAAAAAAAiGgEAAAAAABDRCAAAAAAAgIhGAAAAAAAARDQCAAAAAAAgohEAAAAAAAARjQAAAAAAAIhoBAAAAAAAQEQjAAAAAAAAIhoBAAAAAAAQ0QgAAAAAAICIRgAAAAAAAEQ0AgAAAAAAIKIRAAAAAAAAEY0AAAAAAACIaAQAAAAAAEBEIwAAAAAAACIaAQAAAAAAENEIAAAAAACAiEYAAAAAAABENAIAAAAAACCiEQAAAAAAABGNAAAAAAAAiGgEAAAAAABARCMAAAAAAAAiGgEAAAAAABDRCAAAAAAAgIhGAAAAAAAARDQCAAAAAAAgohEAAAAAAAARjQAAAAAAAIhoBAAAAAAAQEQjAAAAAAAAIhoBAAAAAAAQ0QgAAAAAAICIRgAAAAAAAEQ0AgAAAAAAIKIRAAAAAAAAEY0AAAAAAACIaAQAAAAAAEBEIwAAAAAAACIaAQAAAAAAENEIAAAAAACAiEYAAAAAAABENAIAAAAAACCiEQAAAAAAABGNAAAAAAAAiGgEAAAAAABARCMAAAAAAAAiGgEAAAAAABDRCAAAAAAAgIhGAAAAAAAARDQCAAAAAAAgohEAAAAAAAARjQAAAAAAAIhoBAAAAAAAQEQjAAAAAAAAIhoBAAAAAAAQ0QgAAAAAAICIRgAAAAAAAEQ0AgAAAAAAIKIRAAAAAAAAEY0AAAAAAACIaAQAAAAAAEBEIwAAAAAAACIaAQAAAAAAENEIAAAAAACAiEYAAAAAAABENAIAAAAAACCiEQAAAAAAABGNAAAAAAAAiGgEAAAAAABARCMAAAAAAAAiGgEAAAAAABDRCAAAAAAAgIhGAAAAAAAARDQCAAAAAAAgohEAAAAAAAARjQAAAAAAAIhoBAAAAAAAQEQjAAAAAAAAIhoBAAAAAAAQ0QgAAAAAAICIRgAAAAAAAEQ0AgAAAAAAIKIRAAAAAAAAEY0AAAAAAACIaAQAAAAAAEBEIwAAAAAAACIaAQAAAAAAENEIAAAAAACAiEYAAAAAAABENAIAAAAAACCiEQAAAAAAABGNAAAAAAAAiGgEAAAAAABARCMAAAAAAAAiGgEAAAAAABDRCAAAAAAAgIhGAAAAAAAARDQCAAAAAAAgohEAAAAAAAARjQAAAAAAAIhoBAAAAAAAQEQjAAAAAAAAIhoBAAAAAAAQ0QgAAAAAAICIRgAAAAAAAEQ0AgAAAAAAIKIRAAAAAAAAEY0AAAAAAACIaAQAAAAAAEBEIwAAAAAAACIaAQAAAAAAENEIAAAAAACAiEYAAAAAAABENAIAAAAAACCiEQAAAAAAABGNAAAAAAAAiGgEAAAAAABARCMAAAAAAAAiGgEAAAAAABDRCAAAAAAAgIhGAAAAAAAARDQCAAAAAAAgohEAAAAAAAARjQAAAAAAAIhoBAAAAAAAQEQjAAAAAAAAIhoBAAAAAAAQ0QgAAAAAAICIRgAAAAAAAEQ0AgAAAAAAIKIRAAAAAAAAEY0AAAAAAACIaAQAAAAAAEBEIwAAAAAAACIaAQAAAAAAENEIAAAAAACAiEYAAAAAAABENAIAAAAAACCiEQAAAAAAABGNAAAAAAAAiGgEAAAAAABARCMAAAAAAAAiGgEAAAAAABDRCAAAAAAAgIhGAAAAAAAARDQCAAAAAAAgohEAAAAAAAARjQAAAAAAAIhoBAAAAAAAQEQjAAAAAAAAIhoBAAAAAAAQ0QgAAAAAAICIRgAAAAAAAEQ0AgAAAAAAIKIRAAAAAAAAEY0AAAAAAACIaAQAAAAAAEBEIwAAAAAAACIaAQAAAAAAENEIAAAAAACAiEYAAAAAAABENAIAAAAAACCiEQAAAAAAABGNAAAAAAAAiGgEAAAAAABARCMAAAAAAAAiGgEAAAAAABDRCAAAAAAAgIhGAAAAAAAARDQCAAAAAAAgohEAAAAAAAARjQAAAAAAAIhoBAAAAAAAQEQjAAAAAAAAIhoBAAAAAAAQ0QgAAAAAAICIRgAAAAAAAEQ0AgAAAAAAIKIRAAAAAAAAEY0AAAAAAACIaAQAAAAAAEBEIwAAAAAAACIaAQAAAAAAENEIAAAAAACAiEYAAAAAAABENAIAAAAAACCiEQAAAAAAABGNAAAAAAAAiGgEAAAAAABARCMAAAAAAAAiGgEAAAAAABDRCAAAAAAAgIhGAAAAAAAARDQCAAAAAAAgohEAAAAAAAARjQAAAAAAAIhoBAAAAAAAQEQjAAAAAAAAIhoBAAAAAAAQ0QgAAAAAAICIRgAAAAAAAEQ0AgAAAAAAIKIRAAAAAAAAEY0AAAAAAACIaAQAAAAAAEBEIwAAAAAAACIaAQAAAAAAENEIAAAAAACAiEYAAAAAAABENAIAAAAAACCiEQAAAAAAABGNAAAAAAAAiGgEAAAAAABARCMAAAAAAAAiGgEAAAAAABDRCAAAAAAAgIhGAAAAAAAARDQCAAAAAAAgohEAAAAAAAARjQAAAAAAAIhoBAAAAAAAQEQjAAAAAAAAIhoBAAAAAAAQ0QgAAAAAAICIRgAAAAAAAEQ0AgAAAAAAIKIRAAAAAAAAEY0AAAAAAABIkqKampqawoMftanTXy88BAAAAAAAwEa0yUaj7TpvWXgYAAAAAACAjcTydAAAAAAAAIhGAAAAAAAAiEYAAAAAAACIRgAAAAAAAEQ0AgAAAAAAIKIRAAAAAAAAEY0AAAAAAACIaAQAAAAAAEBEIwAAAAAAACIaAQAAAAAAENEI+DhZvnx5fv3rX+cnP/lJ3nrrrbrjNTU1GTFiRI444oh07do1AwcOXOfYje2jelwAAAAAgPfrExGNnps2Owede0M++41r6269vnVdLrn5wUx5bV7h8I9cTU3yyNNT8t8/+WP2PvPX2fuMX6f/D2/PA2MnZcWKmsLhn1qTJ0/OgQcemP333z+TJk0qPF3nrbfeyne+85107do19957b+FpNpL58+dnwIABOf744zNv3pr/nq36XL7zne98oPFk7ty5mTdvXmpqVv+78swzz+TCCy/MzjvvnJtvvjmHHHLIOsd+GD6qxwUAAAAAeD8+EdFolUN67JArTj08V5x6eE447LN5ZsprOfGqu/O3cS8VDl0vq2LUTfePLTz1nlVVr8gN943JBTf+NdUrVuTcAb1z7ld6p7RxSX5024hcdsff83ZVdeHd3tXipctzyjX35pRr7s3ipcsLT3+gHh4/OZ/9xrV5ePzkwlMbxZw5c/Lwww+v8wv46dOnZ+zYD+4zYsOMGTMmd955Z6qrN/z39p2MHTs2Xbt2bfDZlpaW5vLLL8+1116bsrKyuuNjxoxJx44dc8EFF6RPnz7Zeuut1zn2g7QhzxEAAAAAYFP3iYpG23dsk8P32SmH77NTzjiyZ+793+Oz366dc/Vdj2TiK3MKh38kxr4wI3c89K8csW+33PWDr+a4Q/bMcYfsmbt+8NWcesTeefDJFzPy6SmFd/tUa968ecaMGZMFCxYUnkpNTU0efvjh/Oc//0lJSUnhaT4kAwcOzIQJEwoPf2gWLVqU0tLSlJaWFp4CAAAAAGA9faKiUaGypqX55pd7pbi4UYY89mzqT1R5fd5/cunAv6XXt67LZ79xbfpdeEv++sSk1NQkcysX5b8uujVf++mfsuit5fndsCdy0Lk35Llps9fr/utSVb0i/++fE9O6ZbOc9l/7pHFJcd25Ro2KMuDA3bNlm83yl9ETs+ztqiTJTfePXeOxk+Sim4bnvy66NXMrF+Wim4bnwHNuyL+nvJZ/T3ktB56zenbUTfePzSHf/X3+Nu6lnHz1Pdn7zF9nv7N/m6v+ODJL6s1IWtfsofqPv2rm1QU3/jVJcsGNf617DhvTySefnOeff36tUWLu3LkZMWJEvvzlL2fnnXcuPJ2Kiopcfvnl6dGjR3bZZZecc845mTVrVoMxy5cvz+DBg3PIIYeka9euOeSQQzJw4MAsXbq0wbhXX30155xzTnbZZZfssssuOfvss/P88883GLNkyZLceuutDa41dOjQNWbhLF26NL/73e8aPK9HHnkkBx544Bqzpuo/bo8ePXL55ZensrKywZj6r3OnnXbKcccdl8cff3yds7M+SJ///OfTrVu33HjjjVm4cGHh6TUsXbo0AwcObPAeDR48OMuX1/4+rlqW8Ktf/WqS5Ktf/WoGDBiQ+fPnr7Hk3aqxN954Y5555pnstdde6xy7ypIlS/K73/0uPXv2TNeuXfOlL30pDz74YFasWFE3ZsWKFXnsscdy3HHHZaeddlrjfd+Q57hKdXV17r///nzpS19K165d07Nnz/zud7/LkiVL6sasWvLv6quvzqhRo+rGHnHEERk1alSDz3PFihX5xz/+0eB6v/zlL9f43QAAAAAAWF+f6GiUJJ22aJXdtm2fZya/lvmLar+cnVWxIGf+amiemfx6vnXUAfnxyYely5ab5/I7/p6Hn345bTdrnkEX/U9+dfYX07xpaU44rEcG//jE7LT1Fut1/3WpXPRWXnx1brp32TKdtmhdeDptWzXPTltvkWmz38z8heu/B8xFx/XNkJ+cmF23bZ9dt22fIT85MV89ZM+68wsWLc0Vf3g43bfbMv/7tUNzwO5dMuSx5/KDW/+2QUvh7bT1Fhn84xPzg+MPTpL84PiDM+ii/0nbzZoXDv1AfeYzn0nPnj3zwAMP1IWFVZ5//vnMnTs3/fr1S3Hx6giXlUHp29/+diZPnpyf/vSnue6667J48eKceuqpmTFjRrJyptKtt96aK664Iscdd1wGDRqU4447Lr/5zW9y+eWX1z3ejBkzcvrpp2fx4sW57rrrct1112XZsmU5/vjj8/TTTycrY8Sll16aP/zhDzn77LMzaNCg9OvXLz/84Q9z33331T2v6urq/O53v8uvf/3rnHDCCbnpppuy00475aKLLsqcOQ1nxL388ss5+eSTU1JSkuuuuy5XXnllxo8fn3PPPbcuDlRWVua73/1uxo8fnyuvvDI33XRTtt1225x88skZPnx4g+ttDNtuu23OOOOMPP744xk6dOg7hqq33norl156aW688cYcf/zxGTRoUI466qhcccUVuf7661NdXZ0uXbrkvvvuy+9///skye9///vccsstadWqVeHl6sZ+7Wtfy2677Za///3v6xybep/RnXfemQsvvDCDBg3KgQcemO9+97sZMmRIampqUlNTkyFDhuTss8/OXnvtlVtvvTU//OEP89BDD+XKK6/MW2+9tUHPMSs/8+uvvz4XXHBBPve5z2XQoEH51re+lTvvvDOXXnppg3CUJH/9619zyy235Mwzz8wNN9yQdu3a5Qc/+EGmTFk9C/HBBx/M2WefnQMPPDCDBg3KhRdemKFDhzb43QAAAAAA2BCf+GhUUtwoTUsbZ+nyqlRV184kePy56SluVJSrv35E/qfPZ/KFnjvnJycfli3bbJa/jnkhK2pq0mazspS3bJaioqR5k9K0bdW8bmbQu91/1eMUeqNycRYuWZYOm7dMUVHh2Vrbbbl5lixdnooFiwtPrdNmZU3StlXzlBQXp6S4OG1bNU/zpquX6WrUqCgXHtsn3zm6d77Qc+dc843/ylG9d8uTk15dYwbTO2lcUnvtzZo3TZJs1rxp2mxWlkaN1vFiPiALFizIEUcckccff7wu9mTlDKG//e1vOfDAA9O1a9cG96murs4f/vCHVFVV5eqrr85hhx2WPn365LLLLkvjxo1z//33JyuvPXLkyBxzzDE56aST0qtXr5x00kn55je/mdGjR9fNSvrXv/6VRYsW5cILL0yfPn3qrtWhQ4c88sgjycrZJ6+88kp+9rOfpX///unVq1e+9a1v5Qtf+EIefPDBLF5c+5m+/PLLueeee/L9738/5557bnr16pWzzjorV111Vb1XUBtYrr/++uy666657LLL0qdPnxx++OG57LLL8tJLL2XMmDF1jztmzJh897vfzeGHH54DDzwwF154YQ488MCMHDkyy5Yta3DdjaFXr1458cQTc/PNN+fll9cdTseNG5e///3vueaaa+re7zPPPDMXX3xxBg0alH//+98pLi5O69at06JFiyRJixYt0rp16zRqtOb/XK0a27Rp05SUlKR169brHJskTz31VEaOHJmf/vSndZ/ReeedlzPPPDN333135s+fn4ULF2b06NE588wz6z6f/v3754ILLsijjz6aadOmbdBzzMrP/K677sqPfvSjumsed9xx+elPf5qRI0dm5MiRDcZ36tQpP/vZz3L44YfnsMMOywUXXJClS5fm2WefTZIsW7YsI0eOTN++fXPmmWfWPcdLL700Y8aMyeTJH85+YwAAAADAJ8vav+H8hDv6c90z+McnZufO7eqONWvSOK1bNMuCxcvqloZbl/d6/+oVK7KipiYtmn24+640LS1J5/arZzYVFSX/td/OaVRUlGcmv9Zg7Kaoqqoqe++9dzbffPM88cQTdcenTp2aUaNG5fOf/3zeeuutvPnmm3XnFixYkMcffzyf+9zn0r59+7rjbdu2Tffu3fPyyy/nrbfeSmlpadq2bZsZM2Zk3rx5SZKioqKccsopeeSRR9KlS5ckSZs2bbJkyZJMmTKlbhmzLbfcMg888EDOO++8JEn37t3z5z//OZ/97GfrHq+0tDSbb755Kioq6mYtPfvss2nUqFH222+/FNWrh1tvvXWD5zpr1qz861//yuGHH56ysrIG43bYYYe6gNCiRYu0adMmL7/8ct1jbLbZZrnpppvy85//PE2aNKm778ZSXFyc4447Lq1atcp11123xsyZrAx5jzzySHbffffssccedceLiorSu3fvdOzYscHn+0Gr//i77bZb3fGioqIce+yx+d73vpfS0tJsttlm+eUvf5kzzzyzweezxRZbZN68eeu1BF+hJ554Ii1btlzjM//MZz6TvffeO2PGjMnbb79dd3yPPfZIu3ar//elffv22WqrrVJVVfu/LSUlJdl8880za9asBrPTDjnkkLz44ovZa6+96o4BAAAAAKyvT2U0SpKXZ1bk7GuH1u1JtGpPoPX1Xu5f3KhRGhUVZdFbDZdY+yh02LxlWpY1yWvz/lN4apPUrl27HHDAAXnwwQdTWVmZmpqaPPzww2nXrl122WWXVFdXN9g36M0338zcuXPzf//3f+natWvdrVu3brn77rvrxpWVleWMM87I1KlT62Z/3HHHHXnjjTfqxiTJPvvsk69+9as555xzsv/+++fHP/5xxo4du8ZeRRUVFfnlL3+Zz33uc3WPeeONNzYYM23atLRv3z5t27ZtcLzQvHnzMmvWrHzzm99s8Br23HPP/POf/6wbt8MOO+Rb3/pWrr766vTs2TPnn39+HnnkkTX2ZNrYttxyy5x55pl5+OGH87e//a3wdJYvX57Kyspsvvnmady4cYNzm222WbbffvvMmjWrQTz5IL3T42+++ebZd99962YOLV++PMOGDctXvvKV7LTTTunatWvd/kXvxdy5c9OiRYu666/SvHnzdO3aNTNnzmyw/1GhRo0aNVh+sbi4OCeccEKaNWuWQw45JF/60pdyww035NVXX33H5QEBAAAAAN7JJz4aLXu7KgsWL03T0pKUFNe+3KdenJnTfn5vamqS33z7yxl+9al1ewKtj/d6/y1aN0/LsiaZ/ebCrOt73amvv5myprXL4bFaUVFR+vbtm+effz4TJkzIggULMmbMmBx66KENZmQUOv300zNo0KA1bqecckpKS2tnfHXv3j3Dhg3LXXfdlT322CO33357DjrooNx22211Uahp06Y5//zzM2rUqFx44YV57bXXcvLJJ+e4447L9OnTkyRz5szJ17/+9UycODG/+MUv8tRTT+Wpp57K1772tQbPaUNdcsklazz/QYMG5ctf/nKyMiAce+yxefzxx/PTn/40SXL++efniCOOqNtv6cNyyCGH5Mtf/nKuu+66TJ06tfD0OtXU1KwR4D4q1dXV+b//+7/87Gc/y0knnZTHHnssTz31VN3+RR+kmpqauplrG2rrrbfO7bffngceeCCHH354HnzwwRxyyCG56qqr3jFAAQAAAAAUGjt2bGbOnPnJj0avzJ6fSTPmZo/tt0p5i9olvv4yemJaljXJ/37tkPTYoWPatW5RtyfQ+niv92/dolm6btUmE6a9nplvrLlRfcWCxXnx1TfSpcPmKW/ZrPD0B2r2mwuzcMmybNVms8JTm6xu3bqlZ8+eeeSRRzJ+/Pi88sorOfjggxss97VKy5Yt06pVq7Rs2TL7779/evXq1eC2++67p7i4OG+//Xbmz5+fJOnRo0e+973v5YEHHsjJJ5+c22+/PTNmzEhNTU3+85//ZOHChWnXrl369++fG2+8MX/+85/z2muvZfDgwUmSxx9/PBUVFfn+97+fHj16pLy8POXl5WnatHYPqFV22GGHvPHGG3XL4a1Ly5Yt06ZNm7Rr126N59+rV6/suOOOSZLFixensrIym222WQ477LD83//9X/7617+mbdu2+eMf//ih7Gm0SmlpaU4++eQkye9///u6fZxWnWvdunXefPPNNWYTLVy4MNOmTUvHjh3XmAX0QWnatGnat2+fJUuWrBFq3n777VRWVqa6ujozZszIQw89VLcfVbt27VJeXr7GLKEN0a5duyxatCiLFi1qcHzJkiWZNm1aOnXqlGbN1v/f+erq6lRWVmb58uXZaaedcuaZZ2bo0KH50Y9+lNtvvz0TJ04svAsAAAAAwDrNnDkzxx133Cc7Gi1csiw//9M/kiRH9d49q9pCVfWKVK+oaTDbZ/7Ct1KxoOEXuuvyXu9fUtwoXzmoeyoXvpWb//pk3q5aPbNixYqaDB71bF6f9598qdeuadK4JEmyTfvyLFn6dmbPX72PytLlVZm/aP1nEixdXpXpc1ZHqpqaZOTTk7OipiZ7bL9VsnIWVPOmpZn62uqQUVOTBo/7USsrK8sRRxyRv/3tb7nmmmtywAEHZLvttisclqxcbqxHjx4ZNmxYXnnllQbnXnzxxbp9YCZOnJiDDjqowXJqpaWl2WuvveqWvKuqqsrVV1+ds846KwsWLKgb17lz5+y88851+8xUVVVlxYoVDZYHW7JkSWbNmlX3c5K6+zz++OMNxr766qsN9qfZeuuts+uuu+bee+9NZWX9z68mTz/9dF2AuP322/OVr3wlM2fOrBvTrl277Lrrrqmurl4jkGxs2223Xc4444w8+OCDefjhh+uOFxcXp0+fPnn22WfzzDPP1B2vqanJY489llmzZqVnz551xz9oRUVF6dGjR8aNG5cXX3yx7nhNTU3uuuuunHTSSamoqKj73OvPfKqpqambUfZe9OzZMwsXLsyYMWMafOb//ve/M27cuOy3334bFMtee+21/Pd//3duvfXWuus1atQon/nMZ9KqVatNZtYWAAAAAPDxMXPmzBT/6Ec/+lHhiY/a/AWLUt66ZeHhdZpbuSgPjJ2UsialqV6xIpNnzctDT72cHw8akdfm/SeXHH9w9tu1c934pcurMnzspIx94dWkJhn+5KRcffejqViwOB02b5kj9u2W0pLiLHu7Kg+OeykVCxancePitGreNC2aNVnv+6/NVm02S1X1itz76IT8ffzkvF21Is9OnZ0r/zgyI5+ekiP27ZYTD/tsihvV9rwmjYvz8NOT88TEGSkubpQXps/NlX8cmUkz5qasaWm+fMCuad60NI2KivL4xOl5YfqcNGvSODU1NemwecuMf2lWnpz0asa9+GoWL307b/5nSe4Y8a8Meey5fH6vHfOVg7qnuFGjlDUpzejnXsljz05LTU0yY25lfnHvYxn97CspLm6U/+q5c9qV1860WLDorYz418tZ/NaylBQ3SptWzdO0tDZyfZDefPPN/OUvf8m+++6bXXfdNUnSqlWrPPLII3nhhRdy3nnnZfvtt1/r2OLi4nTq1CnDhg3L3//+97Ro0SIVFRW5//7787//+7/Zaqutsssuu6R169aZOXNm7rjjjpSUlGTx4sX517/+lZ/97GfZZZddMmDAgDRt2jQtWrTIbbfdlhdeeCHNmzfPq6++mkGDBuWhhx7KN77xjXTu3DnFxcX5f//v/2Xs2LFp1qxZnnnmmVx++eUZNWpUOnTokC9+8Ytp1qxZysvLs3jx4lx77bV5++23s2LFitx///35xS9+kaVLl6Z///7p1KlTmjRpknbt2uW2227L008/nbKyssyaNSt33nlnfv7zn2f33XdP586ds/nmm+f+++/P6NGj06JFi8yZMydDhgzJoEGD8t///d/57Gc/W/DOfjCWLl2a++67L506dUqvXr3qjhcVFWXbbbfN9OnT89JLL2WnnXbKwQcfnMaNG6ddu3aZMWNGbr755rr3+/7778+1116bE088MV/84hfTaOXv/qJFi+qiU7NmzdK6des0atSo7tiqaybJ6NGjM2vWrLr3OCsjXuHYLbfcMq+88kpuueWWullPgwcPzvXXX59vfetb2Xvvves+u6FDh2b58uWZP39+rr/++tx4441ZsWJFBgwYkE6dOm3QcywvL8/SpUvz85//vO4zf+yxx3L11VfngAMOyCmnnJLGjRuv8z1ddXy33XbLrrvumhYtWmTBggW5/vrr6673/PPP59prr02zZs1ywgknvK+ZUQAAAADAp8sLL7yQESNGfLKi0aRX38jIpydn5NOTM3lWRfbbuXN+csrns3e3rRuM36HTFum4Ras88syUjPjXy5k7f1HOGXBAihsVZcrr89Jvn25p0axJNitrmkaNivL3f03O38e/nM/u2Cmd25ev9/3XplGjouy109bZoVPbjH95VoY/OSlPPD8jzZuW5vxjDsyp/fap23spSVo1b5odOrbN2Bdm5IGxk/LUSzNz4Ge2y547bJWpr725Oho1KkqnLVrl8YnT8+CTL2ZFTfK5Pbpm/EuzMunVuTlnQO88+syU/OnRf+eV1+fny712zfnHHJimpbVfujdpXJI9tt8qz0x+LcPHvpjHJ07P9h3b5qjeu+WpF2c2iEZtWzXPwiXL8tC4lzL2hVdzYPcuG2UPpsIQlCTNmzfPrFmzsmzZspxyyil1X4yvbWybNm1y8MEH10WKP//5z6murs4ll1ySww8/PI0aNUrjxo3Tu3fvNGnSJH/84x8zcODAPP300znqqKPy3e9+Ny1b1v4edurUKb17985TTz2V6667Ln/5y1/SrFmzXHbZZenVq1eKiorStm3b7Lvvvhk7dmxuvvnmTJ06Naeddlp69eqVf/zjHznssMPSpk2bNGrUKHvssUeaNGmSgQMHZujQoWnVqlW++c1vZty4cTnssMPqosTWW2+d3r1755lnnsnvfve73H///WnTpk2uuOKK7LXXXikqKsrmm2+egw8+OFOmTMmNN96Yu+++O0uWLMn3v//99O/fvy7CfNDWFTiSpHHjxtlmm20ycuTIdOrUqS6erO39nj17ds4777wcf/zxDWbblJeXp6SkJIMGDcrYsWPTt2/ftGjRYo0gkw2IRo0bN84BBxyQFStW5Lrrrssf//jHLFmyJJdddlmD34levXpl/vz5ufXWW/Poo4+mR48e+e53v5vHH388O+64Y3bbbbcNeo6NGjXKXnvtlS5dumTIkCG58cYb89xzz+WEE07Iueeem7Ky2qUz1/WeFkajtV1v9OjR2WefffKjH/0oW265Zd19AQAAAADezapoVFRTf62kTcTU6a9nu86+9Pwg3HT/2Pzh7+Nz3Tn9s1uXDoWn2YQ89dRTOe644zJo0KDsu+++hacBAAAAAGCjGDx4cC644IJP9p5GsCmqrq7O3Xffnblz59Ydq6mpydixY7Pttttmq61q95kCAAAAAIAPk2gEH7IlS5Zk9OjROfXUU3Pfffdl9OjR+dWvfpXrrrsuX/jCF0QjAAAAAAA+VPvuu2+uueYay9N90lmebtO0ZMmS3H333bnzzjszbdq07Lbbbjn99NPTr1+/FBcXFw4HAAAAAICNTjQCAAAAAADA8nQAAAAAAACIRgAAAAAAAIhGAAAAAAAARDQCAAAAAAAgohEAAAAAAAARjQAAAAAAAEiSopqamprCgx+1qdNfz9FX3lN4mE+Af914TuEhAAAAAABgE2CmEQAAAAAAAKIRAAAAAAAAm/DydAAAAAAAAHx4NtlotNlmLQsPAwAAAAAAsJFYng4AAAAAAADRCAAAAAAAgI/Z8nQL/rMoFfMq83ZVdaqrq7P87arCIR+p0tKSbNaieeHhTU7FmwsKD7GRNC4pTqvNWhQe/kgVlxSnUVGjFDcqSvPmZSlr1qRwyFq99dayLFryVpYvfzsrVqwoPP2ha9SoUUpLG6dFWbM0W4/XULlgUd6cvyCLlryV6uqP/vknSXFxo7Qoa5bNy1uldat3/z3Z1F7Dhj5/AAAA+LQobpQsXbo8S5ctzyb49SsFioqK0rRJaZo2Lc0m8JXLRrfqe77q6uqsWFGT6urqwiEfqUWL30pxcXGaNS0tPLXJWbT4rbRo3qzw8Cbn7ber0rhxSeHhtfrYRKOp019LVVVVtmjTKjt06djg3KZixKjx6b3v7oWHNzmPjX02hx7Yo/DwB2bEqPEb9fofpI39XDfl34m5FZVZuPitNGpUlC3alBeebuA/CxdnyVtL065N67Ro3jSNGn30kxRXrFiRRYuXZu68ypQ1a5rNWq472M6eOy+VCxZm+y4d03bzzVJSXFw45CNRVV2dijf/k8nTZqV1q5bp0K5N4ZA6m+Jr2JDnDwAAAJ8WRTUrsmTpspS3apGyZk3TqFFR4RA2MStW1GTJW0szf8GilDVtkpqij/67r42lYl5l/j97fx9XVZ3v//9PoA2JgpBEXqbCjJRJikPgeFGmNpZnomOoWYxMXp1MTUdSy+xn1Dez1HQ0LRsvavBYVpIn+gzp8bI0E+JIpplYgoaogxgISgEBvz/YG/ZecqnC3mwf99ttFbzXey/W3qz3Vt/P/XqvsrIytWrZQv5+PsbdDuGHjCy187+pWYQxX3+Tprt6BRmbHU5DzrNZhEYX8i/q3+d+Vq87AuTZ4kabvo7EkQMCa4RGVRr7XB39miguKVHmmfPyqqXi6JdfinSh4KK6dGqrG9wc7w/M30rLdCLzrFp7taq24ijvwkWdzc5RWMhtcq9nmt7Uikt+U3LqUbX196u2YsfRn0Nd5w8AAAAAzu5C/kWd//mCCi79YpfVOVxdXeXVsoXa3NTa4VY8ud64uVZUHrS/pY3cHHAeBbUrLS3T6X+fV6uWLZyy4qjwlyIVXLykTu395G4yGXc7DEKja68h59ksQqPjGVm6ybeVw1YYWTh6QGBBaFSlsc+1OVwT2Tl5ulT4q272q77a6Nz5PLXx8ZK3l6dxl8PILyjU+bwC3dzm8k9HpJ/I0q0d/dX25uqfn6M4ey5XP53KVkCXy9/nmsNzqO38AQAAAMCZVawMcVG/69rebitDVK0EcVo+rVuxEoQdlRQXy6tVi2Yx2Y3qXbz0iwou/iKTu+MvjdZQ587nqWULD4etMLIgNLr2GnKezSLuLin9zeEDI6C58vfzUWlZzdlxcXGJWrV03Ao/SWrV8kYVF5cYmyVJFwt/kd9N3sZmh+N3k7cuFv5ibJaayXOo7fwBAAAAwFldyL+ovAsXFRYSpLY3+9olMJKkG9zc1PZmX4WFBCnvwkVdyL9o7IIm8mtRsUOvlIS6eba4Ub8WFRubnUJpaanDB0awv2YRGpX+5lg34kLTSkpKUlRUlO655x7Nnj1bp06dMnbBVSorr7netqyszCHuYVQbV1fXGsv/S0vL7PaX9oa4wc1NpTXUPTeH51Db+QMAAACAszr/8wX9rmt7h1lK3N10g37Xtb3O/3zBuKta+fkFxiZcpfLycu5h1My5urrIARfnapCaxnZZLR8cBywceybYrLjkN2NTs5ebm6v4+HjNff75em+LFy9WRkaG8VBO7dSpU3rssce0f/9+nTp1SvHx8YqKijJ2w1UimAUAAAAAoOEKLjneyhB+N3mr4BIrQQC4XGkpc4CoW7MIjZzRzp07dSA11dhcq9y8PGOT0zh16pRmz56twMBAm+2ee+6RJPXp00eff/65+vTpo1OnTlXbb9myZcbDwkHk5uYqIyNDBw4cqNwyMjKuuxAUAAAAAOBcysocb2WIG9zcalyNAwCAuriUO2CtXfrJM/L29qr8PvXQMd13d2+bPo5o2xcHNCA82NhcrcWLFys3L0+9Q0I0aNAg4+5q+fr6GpuuyJ6kQ436em774kCDjz979mzFx8cbmytFRkZq4cKFioqK0v79+427K7333nsKDw83NtfoSs61IRpyTdQmPj7+soDF19dXISEh6t376s//+x9+UqcOtxibJUmZWf/W7b+/1dhcpx07dujEiRNKT0837rJhua5DQkI0ePBg4+56q+k5XMv3j/j4eC1fvtymrWPHjnrttdfUsWNHm/Yrse2LAwoJ7mZsvqbPoTHVdP4AAAAA4Kwa+99ry5Yt08cff6wNGzY06N+d9f33WX5+gc0cHK5efn6BAjq3MzajmTHOTzc3NY3tK53na2o/ZGSpnf9NatWyhXGXw/n6mzTd1SvI2OxwGnKeTlNplJSUpPj4+AZtSUlJdr8/zqBBg+Tr61uvzZklJSVJkhYuXFhZUWQtPj5egYGBlwVGkZGR+vzzzzVt2rTKfs7gwIEDWrx4ceV24MAB5ebm2mzp6emKj4+v7LN27Vrl5uYaD2UXa9eu1c6dO+sMjGSuQsrNzdXOnTsdfgnGjz/+WKdOnbLZ9u/fX3n9AgAAAABwrURFRWn58uU6deqUoqKi7D6HBQC4PjhFaGS5783s2bMbtD322GN65plnjIezmx3mSfOath07dxof4nQ6duzYoE/OdOjQoUH9m4uMjAybgKg21iGSIwQuGRkZ9QqLqmN5HgAAAABQu4NaHtpT4csPGnc0uRObYhQ9ZbUOFRv3AFfO8iFF6+8Jjq5DpUXKTPlQC/5rhhLOGnei2SjN0r7lUzXs7p4KD31EG04YOwCOxSlCo6ysrCsODhzlD9sdO3dq586dys3Lq3bz9fWtrMSA84uMjNTMmTMbvF2LpeoAmZdAiIqK4l5hAAAAaHrnk7Vh3kQ9MqSnwkN7KnzIcD27PFFpBcaOjqGoIENpafkqMu5A/eWla1/cHE1YY/8QUKUFStu6QvOmDNeQ0J6akZBj7NHo4uPj1bFjR33++ec27adOnWriFVbM4axxu3uwome9rq3HHfWqN5/3iBU1hLk5SpjWU+HTNuu8cZejKMpU6qYFGn93iAY+MkdrduTrV2MfNBtpcVM1Iy5Ld05YoJUrn9O97Y09LldwYo82zIvWO98Y99iXZXUkODenCI3Cw8O1cOFCvffeew3aPv/888v+ALaXE3VUiHTp2lWDBg1Sbl7edTEwX3vttcrfT23b9OnTjQ91GpagcO3atbVuH3/8sTIyMhxmCcOuXbtecXjl6+t7xY9F3ZYtW6Z77rmnzn9kJCUlafny5dq/f7+WL1/O8nsAAABoOqc3a8bwiVr1o5/unbZCK1eu1tJp/VWQMEfRw2O0Ndv4APsLGrtZSdufVqi7cQ/qYpkUHTJkuGYsT9ShQmOPGmRv1ozGCHQKj+qdJwYrev5mFXR6RLNWrta40MvvCdKYoqKiKlfIMQZHHTt2tM88yJCntXLl6qpt7l/VJesDzXtktJZ/46jBkaQTq/XyuoOqNjdycKlLB2rEi59ID8Zq0+Ixxt1oVo5q3+Z0aUSMXooeptDwnmpf058XpQU68UWc5o3tryEjpmp54kE52uclUlNTlZuXV+dqRzvMc5p19WsKlnOpTVOf74EDB+r8eRkZGVq7dq1dVh9zitBI5uCooduVVifZg6+Pj3qHhDhMcNTYFVqWZerq2hxBY70WO3bsqPZeRsbNcm+jupaxa0qRkZGKjIxU79696wyzfH19FRAQoEGDBmnmzJl19seViY+Pr1wL2/L/mhjvHWb8HgAAAGgcRUrZsED7NFqvrVmgSREDFBoepr4RT2tlwgqNKN6hl/+Z3CwngFGN7M2aN2Kq3snsoLFLVmhaqLFDUyvSvuXRWpX3iFb+a4eWPjtaQ8PDFNzew9ix0URFRVX++ys+Pt4mODIGSE2qfU+FhodVbUOj9dKa1Yrqkq4NyzbrtLG/AzmxJlYbjhlbHV/go1uV+s1+rX12lEI6Nd01iMZQpILTkjy9VVNWZHH+X3P0SMw/dLrTf2np8qdl97fFK5Cbm1t1r/OMDKXXEoo0NuO5HDhwwNjlsj5Ndb6WnxcfH19jKHTgwAGlZ2Ro586dNfZpLE4TGsn86fiGbtWpbTLVnnx9fRs1ODp16pQCAwPrrEKw3D/KUV+na6G+r0VUVJSeeeaZRnktTpxo2AKn1b3x2UNGRoYWL16s3Nxc9e7d22b5vAkTJigyMlITJkzQhAkTKtsffvhhBQQEVLxR7thhPKTdzZ492+Yv70Yff/yxwy/l9vHHH1d+ferUqRrf/5LMVUYWHTt2VGRkpE0fAAAAoHEU6HRmkdTrNgV5GnZ5huneR25T17Sjsp3OKdL5lNV6dkR/hYf21IBhU/VOyuXVJ8XHE7V8VsVyY+Gh/fXIrNVKsa5aykvUs6E9NSPR+rFF2vdqT4VHb5TNv86Ordbw0DAtNy8ZdGh5T4WHvq5Dlv3fvK7w0J5anpKjlDUx5mX2wjQsZrVSjGthleYoZY3lPhfm8zpUUUVjOX61LD/ji6PaEDNYA2z6F+nE1tcrX5PwIcP17JpknS+tenjB1hiFh07VVuvzKd6jRaE9Ff2B7X1m094ZpvC7X9chy+MLjirh1WjzOYdp2IQ52mDzmhfp0KrhCh8Sq321fUTeJ0zTE5K1/Z0Firr7dnnVNZsqVS07NixW+yTte2mwwkOnKsH6d3k+WRvmWZ/fAiUcq+1EzDI3a92mrpr22tNq4uIiyRAYWRiDI4fi2VMRI2+TDu21GUsFx6oZa8brXlLx8c1aNNYybqO1KCFd+5ZXs2RcaYHSEhZowrAwhYf21JARMdWO8WpFRCuqS7pWLdioE1bXf83qHjtSjrbGhGnAY3G27wvXmHfn38nbzdgKx1L39XI+YarCQ6O1QZLioiv61XIvPq/QGG3et1drXopW39951RkyOZqMjAwtfv31JgtearNj5846z8URzjc3L6/yljS1FQRY+tRWmXQtOUVoZJngf+yxxxq8WU/yWo5jPWHqaBozOLIEJLNnz64xLHnsscdqDdycRX1eC8tf6Ix/qUNFSr9z506tWbNGixcv1scff6ydO3dWVk6lp6frwIED+vjjj7V48WItXrxYa9ascZjgy1pSUpLi4+Nr/T1brgPrYMaRVHf+1VUbJSUl6bHHHpMk9enTp3IZT0ep6gMAAICz81L7Th7Svs1KOGJc8spDoVM+UNyaaAVZN3+xQDOWZCl02hKtXBKrke2TtWpSrE2IUHxohcY8MkcJhcM0a+VqrVzytPrlrtaUEVOVYCmR8OmpvqHSvm+/r6pkKj2qlERJR/bqW6vjnf4uWac1XKHdq9qq8+WrU7T832GaPn+1ls57RO1TVmjKi9YT4kU6tHKipqz6Rl2jF2jlyiUaF/y9Fk1ZoBSbI9Xso+cnaIOGKGrCRAW3kTmwGa1H5m5Wwf3PVS7vlxM3Uf85a7NOmyczvYIHKFR79G2a1et8JFkJktK+PGh1jllKS8qShoUpyK3iNXln7COanxKgcS+v1sqVr2vcrUe1fNIwzdtuFczc4C4v9zqqI9w7qEuDq3h6atL2vdr+3hyFSgqd9YG2b1+g+9uYd2cnmpc3tJxfrKJ8kzX/seg6l1E7sW+zDrUfoPY5tiHk8i+yjF2vueoCIwtHnn/xanGzzffF37yuCY/FKsXnEb20crVWLpmqOzNWaMoThnsLnd6sZ8bGKqFoiGYtWa2lzw6XR0K0ntlk1Ucyj5FoRS/+XndOel0rV67WrCE5Wme83mriM0STno1W+0ML9PIm2zD0cvUbO5Ikd3d5eDS36XxcW/W7Xtrcv0Dbt6/QCEl6ZIW2b9+r7RN6Go5Vxb19QM1L1zm4HTt3ak0dS8A1BevKodo4yvla5Obl1bkUXW5eXq2VSdeSU4RGWVlX/ge49SSvJRyoKSSwJ+sU0RgcXauEcfr06Zo2bZpUQ1hiCYwk6b333nPqieS6Xgvrv9A5+2txtaxDIkn69ddf9euvv+rGG29U27Ztdfvtt6tv377q27ev7rnnHodbni48PLzyWqjLwoULjU12Z/lkmiRNmzZN7733nvr06aNTp04pKiqqMjgyBkYbNmxQeHi4zbEAAACAxuWh0CmrFdXloFZFD9aEeXHaeiRLxbVWCPTXrDWxGnF3mELvHq5pz8coSHu0q7ISIUsJS1brRN9YxS2fqKHh5n7LVyvKf4/mL0803y+ig4LCO0iJB5VmOXRasnYpQF3a79Gu/ZbjFSgtJVkaGqbguib27n5Oa+aOVl/zEnvPT7lN2rejquoic7OWxaUreFacVk4YptDwMA2NXqL1rw43HKhm7Ues1P8smaNJk6bq3k7mY65JV9+5H1Qes2/E03pzebTafxGr5ZaJ9va3K7S9lPDt0cpjpaXskLoEqP2+HfrSEpIVHFVKijQ0tFfFJ96PbNe6E1LUs+bXPHyARsx9XdO6F2lr4h5z2OSh4AkfaHviHPVthIoddx8vefl4yF2Sews/efl4yd1NFcsb/jNW+3yitdRyTYQPU9SrKzT37ixtmBentBqvpSKdzjgqnV6tZ2ftUfvoBVq5coWm98nShpjh9QsorlBtgZFDVhhVKlJGWrKkDvLzkaQcfbklWR7DYrXUfN2H3j1ac1+aqvYnVmtLiiW0s16G0mrsvh2n6YG2P6H4mxWaF1ekqCWrNc28XOXQSav12ghp6/KNVWO1Fu6hUzX3sQ46tGhJVUhcnfqOHflp6Kt7tf2d0epiOASuI/W9Xty95OXjLQ9J8vCWl4+XvIyVtE5g8eLFdYY0TaG+lUOOcr5Glqoj4zy0NevKpMbkFKFReHi43nvvPS1cuLDBm+P+4WvLcuMry/bxxx8r1TwJfy2rM4xhiaUSyxgYXQ+TyTW9FsbA6Hp4LRrCx8fH2FSpa9eu2rdvX43bt99+W2sppr1YXws1ccRrwTowWrhwoaZPn67w8HC99tprNsFRVFTUZYERAAAAYBeePTXtgx1aOW2AtO91zYsepgHh/TVhXly1S1zp7iEKtp6A6xRQcQ+I38zfn9ijhEPS0Igham+91JNlaa3te5RintsLChks98I9SjOvOZWWtFmnh8Xo+eEdtC/JfDPy0nQd2iP1De+puvKQfnf3tFlaqEtgmCSpyBxcnE/dq0MKU8SAAKtekvvvbqv3fSyMP+PEvs06pGGKGNLBqlVy7zVcI7tLu75INodktyl0iIeK931vXmLrqPYlZCkiJlYR7fco5Vvzi3L8G+3SAIXeaX62Pn4KkpRx7KgKLAGMW4Ci4g4qackwWQp+7KI4Wbs+KFL74f+hUOtrwq2D7h8xXDq9WfuOW7XbKFDOaUkaoLkb48wBxQCNmLtCc/sW1TugaKhmGxiZl4xb9EGRukwYplB3SfLTvc9+oLiXDNeBn5+6SDqdYwldjmrfB0XSfw5WX5vfU4CCQqy+l5T2xQc63X64hoZaV6R5KDh0sHT6oNKslyWskYdCJ83RCM89mv+qoWLISv3HDsD1Yi0jI0O5eXnGZruoz5yiI51vTQ6kphqbLpObl1ev53ulnCI0kjk4ioyMbPDWXOTm5VXejMuyNdYFbj1Bvnz5ct1zzz3XXWBkUd1rQWBUO19fXw0aNMjYbGPmzJmaP3++zTZz5kxJUmpq6jUNQq+V2oIjR7wWjIGR9ftdx44dbYIjyzVNYAQAAACH4Oan0OgFWrP9oPZsjtPcCQNUvPt1TRkerQ3Hal9iTG6G5c7yspQmyc/v8oinS1CYpIM6ccbc0D1METqqL4/kSErXoV1ZGhraS8Ehg+W+Nbliea3M75VSeJv63elnOFo93GD77ekTeyTdpq7tbduvRsG/j0ry0+VPN0BBoZIOpctSbBEUOlw6sldp5yWd+Ea7Tg9TaHBPhQ7x0NaUb1Qs6URasoq799ed/uYHdRqu558drENLHtGQewdrwrzXtemL9KoAyZ7ycnRaUpc2l/9u3H93m/oqSxk/1TGN23ew+ln/Ptw6qN/9AxoQUNRfswqMLPdisWzh/RX9UqI8hi/R0om2weX5pDjNm2K5p1HV/acqZacrQ1Lf39mGpZfLUcaPRdLpFYq2/tmhPTXk2URj59p5DtCkecPkvm+BFm2t/n5IDRk7ANdLla5du9Y5D9hU6nMu9eljT74+Ppowfryx+TKRDz/cqKs1OU1oJPM9iWrbqmO933qZu/o81plZT5Bbnr8jTow3BV6LhsnNzZWvr69mzpypyMhI9e7dWwEBAQoIqP0vhJY3Osv9kBxRdcGRo10Ly5Yt0+zZs2sMjCw6duyosLCKTzpaPPzwwzbfAwAAAPbm3qmnIiYtUNy/VivK56CWr0i0ut/OVbJUI1m491LoUPN9jTKTteXIYPUL9ZKCh2ik50Z9mVKk80f2Kq39EAU3w3WpigzP1z04TEPN9zU6nZKotCEDFOolBd/9iNw37VVKcY7Sko6q/b29rJbh8lCXEUu0/YtExc2dqDt1UOueH64hQyfWHejZ02+quldVA7Vp31VSvoqv4dNrVoGRJA15WitXrq7a1mxW4hfJips72KaC78SmifrPKZvlce8crUncW3H/FvP9p65Y9+iK+yNdtk1UaM0LnVzGa8hzemmotO/VWG1tYABoHDtAba7H62XwoEGa+fTT8q1l9aGm4Ovrq8GDBmnC+PG1noujnK9RQNeumjlzprp27WrcVcnXx0czn35avXv3Nu66ppwiNDp16pTuueeeOjfL8mIyfwo/MDDQZr/1eoHGx0ZFRVXuu15YT5A72sR4U+O1qL88803Z1q5dq9zc3MoEf7xVSp7XSFVyTcFyLXTs2NHhroXZs2dr+fLlle9lNQVGFsbqo9r6AgAAAI3uxEbNiH5E87dXUwngFaZ7h0ja18BPb/t0UJCknMqlsaqcOJ4sqae6tLO0eOnO8AFS4kHtSpBxTVIAAHDHSURBVN2rQ30HVExKu92mvg96KCElWWnf7pH7kDAF2R7qirT/3QBJGcpo4AR2bbxuuU1Sji5/uuk68Y2k4ABVFtJ49VRoXynh2x1K+eKg+vYNq1hyr/sARXhuVkrK9/r2Cw/dG3Jb1WEKC1SQVyR5dlDQ0NGa9lKcEv+1WlGeyVq+ase1C/SuhI+f2ks6cf7y66f4xFGlqIO63npZWYCZn7r+zkP6Jv2y5csKcnIkecvdUMR2pZpdYCRJ7XsqNDysausVoDaX3ZfloLYsT5aiYzV3RJi6+HtV3L/FfP+pSv4BCvKUUk7UdX9yL/m1l5TnrS6hVj+7cuup9nXdV8yGl+6dHqu+2qOXl22+7Fpt0NjBdY/r5XK+vr4aP368Q1TxdO3atc5zcaTzlXTZ3Gl1Bg0apJkzZzZqhZGFU4RGSUlJ9aoGMlYSNURNf6Bfqab45V4L06dP1+eff+5QE+P2wmvRMJaKofj4eK1Zs0Zz585VYWGhJFV+b9wacy3Oa8lRrwXr9ziZl+2sjeUfJM3p/m4AAABwYu1vV9e8o0pI2HPZxL1K05WWKql7hzrvJWSjywBFBEtbE7bbHrPwoBI+OiqZq2ss2tzZX0GFiVq1Zo+C+vU035vFQ3f2G67i7au1bp8UEWoVolyFNsH9Faw9StiVbtNe/ONRpdi01F+XvsMVrEQlbLf9t0HxN5v10RHp3rvNwZAkyU939rtNxYkr9M4+qyX33Huq37Ai7Vq9Wvs0XKHdq46T9sEjGjJkjrZafw7QHD7pt2tYinMl3MN07yMeOr35X0qp+KdnhdIsbdm0WWo/XH0DrdoNgsKHy73wA320y3oWOEe7EhKl4P4KtSzRdxWaZWDUAMWFUrHhOij+Kd183yyL2xT6oIeKNyVqn83vyTzGK3koOHy43E+v1gZjkFx4VCmHLputr5v/MM2aOUDaukKrbNbMa+jYwfWO66V61VX62Kuax3Iu1qGQcT7enudrORdL5dDgasIrH6s+E8aPr7ZPY3GK0CgyMlLvvfeepk2bVuO2cOFCm2Wlpk+fXtlm2fr06VO53/j49957r3LftfDwww9XlME1g/CoY8eOxqbrFq/FtWW5/1Fjl1ReL6yXl4uMjKzX9UqFEQAAAByGe09Nemmigr6J1SNj5mhVwh6lJCUrZetGLZoWrUWHAhQVM9xqqbT66KCImInqsi9W0dNWa2tSslK+2Kzl0yZqQ/YAzZ02zHZir0sv3ds+S6dP36aI8Koltt2DwzT09EEdOj1MocHXqOSk03BNjw7QoUXRmrImUSlJydoaF6Mxz2429qy/TsM1fUKA9s1/pPKY+xJe1+RpcTp9d6ymDbGdxuwSMkTtT2fpdPfhCq18YT0UHDpMpw8d1OmhYQq2quYI+o+p6uu5Qy9PjtWmL5IrznnNVM3bJAXfHWYO2aS0uEc0ZNjrSrnSNeHq4tNB7T2llN2btS8pWSfyJMlDoX+NVd+8OM2YYDm/RG14dqrmf9FBUS9FK8hqKTUj9/CpeinCXVtfmqD5m/YoJWmPNr00UfP3BShq+vCrrhpw9sBIuk19H/GQ3ovRlOWbtS8pUZtenahhk+IM1YEeCo2ao77aqGcsv6cvNmv5E9Fadtymo7zunqhZd0tb507Us3EV13PK1jg9G/2IZryzXaev4Ppq/x9zNKuvsbUhY6dAu17qryFTNjes6hHOpd7Xi/PyqSVcsVT6RD78sN3n/CxL0UU+/HCNy77Z43wffvhhTRg/vtbKod4hIYp8+OE6l6xrDE4RGsn8ifrp06fXuFU3gRoZGWnTx/r+HsbH1/WJ/Yby9fWt8YIAmjMfH596X9uDBg3S4MGDFRkZWec9j+whKSmp8v5A9d2WLVvW4ErGayUyMlKff/653nvvPS1cuNC4GwAAAHB47r2mKm5TnGb1KdK+VU9rypSJmjJ/tQ55DtdL78VpWq+GBzbuwVO1/oMFivBM1KIpEzUl5nV96TtRKzetUMRlScBtCh3iIRnvW+QVpnuHSuobpjuv2Vygh4KnrNbKSb2UETdHU6bEaN2h2zVr5dXcA8ZDwZM26oP5w+W15RVNmTJRM5bvlV/0av3PouE295+RJAWG6V5PGe5bJHmFD9FQSX3De9qGav7DtHTzak36XbrWPT9RU6ZM1KItXoqYv1lvjuhg7lSk4sJiFRQXXNP7ANlwD1PUvNEK+naFZkyJ0a5Mc/tl5xerDblhmluva8dL9879H62M7qBvV03VlClPa91Pt2nWO/V5bN1q+neicwRGqgiDYhIrrudNsZox5RV9dD5MryauVpSkfT9aVdS1H67X3olVhMd2LYqZqBmvblZRRJxeG2F9PEluHRSxKFErp92mnI2xFdfzsu1yjzBfzw1ans7MrYMiYuYo2Nhe77FTpOK8YhXlFlzxfbIaLHSOjh9fq1FtjTtgP/W9XpyPJeyoa+7P19e3yQKYutTnXOrT51ry9fWtMwhq6nOy5lJeXl5ubLS39JNn5O1d9deS1EPHdN/djf8CLVu2TMuXL5ckHT9u+HhDPWz74oAGhF/+x059rF27VukZGcbmeukdEtKgSoE9SYca9fXc9sWBBh//nnvu0alTp674HjGW311kZGSDJsuv5Fwb4qqviXTbZQpqYwlgrsT3P/ykTh1uMTZLkjKz/q3bf3+rsblWubm5OnDggHbu3GnT/sADD+izzz6r/L53796V1+7cuXMr2319fTVz5szK7+ujpudwNe8ftX0SrDZ13UuoJtu+OKCQ4G7G5qt6Dk2ppvMHAAAA0ACHVmjA2NUaueagpvUy7oSjqe+/1yzzHtYaMzCq77/P8vMLbObg7CdHW2MGa95vsUpcPryyaq05ys8vUEDnypuloZkyzk83NzWN7SuZ57OHHzKy1M7/JrVq2cK4y+F8/U2a7up1Le522Lgacp5OU2mE5s1SBRYfH69ly5Y1eEtOTjYestkLCQkxNtXqSgOjxuDr66vBgwdr/vz5mjlzpiIjIxUZGSlvb2+bfhkZGYqPj7cJjBzJa6+9dtlSlXVtVxoYAQAAALjeFCnlndU6ZH1fF0lpSYkq1jAF13L/HTR/jRkYObzTm7UqwfZeMMpL1q4vpPYhtzfrwAgAnAGVRlbi4+M1e/bsK/6D+6qrSq7jSiPLa3+1Pv/888uWIazNlZxrQ1zNNSFzqFJXtZGlnLGustDa1FSlo2v8CYTc3Fx9/PHHys3NNe6ycSX3OarpOTTV+8e1UNMnwZrLc6jp/AEAAABUozRdm54YrUV5/TVt4mgF+UjnD63WolXJajMhTusn9dSVrL6FplXff68lJSXZrGQxffp0m/3XWn3/fVZTNUJjKti3QBOmbZbXY3M0rl8HuRela+uqJUo4FaaXNq3QUH/jI5oXKo2cg3F+urmpaWxfy3m+xkSl0bXXkPMkNDJYtmyZ+vTpc0VLpF1NQHDgwAHFf/yxsbleZj79dIMCA0cMjWRe3zc+Pt7YXG9X8heuKz3X+rqaa6Ip1RS4qBn9YVLTc2jK94+rVdNf6pvLc6jp/AEAAADUoDRHKRte16qNO3Qou0heXQYrYuJUTRoaQGDUTDjqv9fq+++zmiaWG1vBsUS9s3q1Enalq8DTT8ED/6pJ06MV6gRlRoRGzsE4P93c1DS2m8s8H6HRtdeQ8yQ0uoauNiDIzc3VgdRUY3OteoeENCgwkgOHRvbQ2Od6tddEU6kpcFEz+sOkpufQXN4/VMtf6pvLc6jp/AEAAADAWR387kfd88dg3eDmOHe+/620VJ9/dUg97/idcddlappYxpUjNHIOxvnp5qamsd1c5vkIja69hpxns7inkbu7ydjklHx9fTV40KAGbQ0NjIDquN3gOH+5BQAAAACgufBq2UI5P+cbm+0q5+d8eTWDiVYATe8G5gBRD80iNHJzbRanCTRbri41jzFXV1eVlZUZmx1KWVmZXGt4n3Bzc9VvpaXGZofzW2mp3Nya73Oo7fwBAAAAwFm1uam1fsw4reKS34y77KK45Df9mHFabW5qbdxVreoqEXB1XFxcVFbmcAs7oQHKysrl4uJibG5Wahrbzf15oWk0ixk+k8lNP2RkGZsBXAPZOXm1Tva7u5t08dKvxmaHcvHSrzVWJLbydLxPfVUn5+d8tfKs/pNgzeE51Hb+AAAAAOCsWnu3kk/rVkpOTdPZc7l2+8Dfb6WlOnsuV8mpafJp3UqtvVsZu6CJ3OjhrsJfHHseBbUr/OVX3ejhnHeWc3NzU3ZOnrEZsNEs7mmUn39JZ8+dV687AuTZ4kabvo6kudy/hnsaVWnsc3X0a6K4pESZZ87Lq2WLGsfWL78U6ULBRXXp1FY31BIu2ctvpWU6kXlWrb1aqUULD+Nu5V24qLPZOQoLuU3uphuMux1CcclvSk49qrb+fvJpfflf7B39OdR1/gAAAADg7C7kX9T5ny+o4NIvdlmtw9XVVV4tW6jNTa0JjOzMzVW6eOkXtb+lTa0f0oVjKi0t0+l/n1erli1U2vRDudH98muR8gsuqVN7P7mbqv8AtiPgnkbXXkPOs1mERpKUfiJLv5WW6uY2rfX7rh1s9jkKRw8ILAiNqjT2uTryNZGdk6eCwl/l6uKim9v4GHfbyC+4pMJffpV/Gx+1anljjUvBNaWysjJdvPSrss/nybPFjfL2amnsUuls9nnlXSjQ77p2kN9N3g5zg9LfSkuV83O+fszIkk9rL7X1b2PsUskRn0NDzh8AAAAAgOuFS3mZCn8tkm/rVvJscaNcXVkSzNGVlZWr8JdflXvhojxv9FB5LbdyaO5yzueptKxMXi1byN+v9jlBeyE0uvYacp7NJjSSueLo3PlclZSWqvS3UodZL9bC3f0GebeqeeLaUeT8fMHYhEZiusHN4T7h43aDm1xdXOXm5qpWni2qrc6pzi+/FOli4S8qLi6xy6emjFxdXeXubqr3c8i7cFE/517QxcJfVOogHxWx/A5u8m1drwodR3sODT1/AAAAAACuF26u0q+/FuvXomI54PQrDFxcXHSjh7tuvNHdKSuMjH75tUgXL/2i0tJSlZWVq9ROS2vW5OKlX+Tm5qYWNzr+MoEXL/3SLMKtkpLfZKrnCkbNKjQCAAAAAAAAAABA43DeOjsAAAAAAAAAAADUG6ERAAAAAAAAAAAAHHd5OgAAAAAAAAAAADQdhw2Njl8HwVFg53b6ISNLLi6S5CKZb7oG5xDYud11cR0DNWEMAHUL7NxOAZ3bGZsBAAAAAADsguXp7K28XBWxnTm7c7wMDwAAAAAAAAAAXAcIjeysvLzcKjiqjI4AAAAAAAAAAACaFKGRnZWXl6lc5ea4yBIZER0BAAAAAAAAAICmRWhkZ+Xl5eZqI6uV6ciMAAAAAAAAAABAEyM0cgTlMlcbVX4LAAAAAAAAAADQpAiN7Ky8nGXpAAAAAAAAAACA/REa2Z25xqgyLyI4AgAAAAAAAAAATY/QyNEV5Sn/YomxtUpJtlI3v6V1736qtAvGnQAAh8Z7OAAAAAAAABwIoZGdVdQV1VBdVHhMn706UbOfekW7s2oIjsouKeeHnUr+Ol0XimroAwBwTLyHAwAAAAAAwIEQGtlbDXmRJMnkr4A/3q9+fxqgwNYm414AAAAAAAAAAIBrxi02NjbW2GhvuRcuKvfCRWOz07nJx0vnzufKxcVFLi6u5v+7SLL8/1f9kv+rXFv5yK9dO7Uy50YlF7N08sj3+iEzW0Ulv+rcob1KK7hVIQPvUoeWbsYfAzu5ycerzuu48ESSkg8eU77JX/7e7jW2qeSSzp44rB9++Ennf3HRjd7e8rD5VZeoMPsnpR/9Tpk5v8rlRm+1urGiQ8mFY/o25aAyfy5RWe5Jpf3wk8pauOvsoSSlnSmRuylfWUe/U/qZfJW18FXrFrbXUOGZY0o/9r3SM3NU5NJCrbxvlJsklZbo7OGvdPCHM/rN5KLcjO/1w4ks5Ra5q5VXS5XkZij92HcVj3P1Visv94rHWZRcUk7WMaUdzdD5ghLd6O0rjxusO6C5q9cY+ClJyd+c0C+ubvrl9I9KS/9Jub+4qJW3t0zWF0xRnjJ/OKL09OM6e6FUpla+8jRm6YXZyjx2WGkns1WkFmrV8ka5WX80orr95Zd09nByxXXcuqN8b5RUekmZqXt1+Izkd4uvTK5W4yjPXb5+3jK5VpzT2Ywj+uHHy8dltePOu6Na38h7OGzd5OMlXx8vYzMAAAAAAIBduJSXl9dW62IX6SfP6PjJM8ZmpxPYuZ2OpKXL1dVVrq6ucnGtCI4qQ6OiDG1bNlvxJ/tr3AuTFeZvUsmZvdr4xjJ9aXx5PKv6wDEEdm5Xx3VcorPbX1HshjSFTPy7xvX1l8m6bfzfNa6/v5SdpPi3Fmv3CauHthukcU9NUFg7k1SUpeRNi7Vu+6mq/W7ddN+T0xXxB3+VnPhYS198X5mVO7vqoZhRuhD3mnbnVD2kQkfdN+MFRd7pI5VeUvqut7RqQ5LyrXq0GzRdU0b3l59rnpLXTNa6/ZcvqeXZoatuyMqwepxJPR6dr3GDu8rTTSrJOaDEfyzQZz9YPejWQRr3X9EK69DSqhHNWb3GwK7Fio07YNyhdoOm64lR/dXWQyrJTlLCPxZr23GrDjf2UGTMTN33+5aSSpT/7SatXfGx0qwuR+8+4/XUmPvVybO2/YOlva9o/vtpCpv4d43p6y/l7NX6F5YpWf017sXJCvOTcva9qRdX71XAows19U9d9csPnyru73E6XFh1PM87H9UTjz+oIF+TCqsbd8+/oCGeqbyHw0Zg53YK6NzO2AwAAAAAAGAXLE/XnJRkKzVhjb48I7W7J1pPzJyjMQ/0EFOMTqw0T4cT12j3CZOC/mO6ps6eo3ERveV5Zqc2bT2g/JJLyty5Ruu2n5Lp9gc1eupMjYkIl3fpMW3b+KnScmVzfXTq86AioyMU5Gsp6TEp6E/j9cTMF/TEqHB565R2f3FAOSUVE/WJHyYp36+/Iie9oBkzntR9v5fO7Hxfnx/LszqqZLrzYY2b8YKmjn9QASapMCtD+sOjGjfzBU2d+LCCTCU6vGWL0vNVEXJ9uFyf/SB1uidaT0yfrsi+HaWfdmr9/0tVzuUZFK4HrXvroYlzNHXSowrxk87sXKNt32SrpPSS0ndv1LbjUsCfntTU2S/oiVH95ffrYcUn7tHZIkkX07Ttw4+VVtJVAx+foxkzp+uhPv7K3x+nxANZKql1f7ZaBwark0qUfvyUfimVfjl5qCIMKjystJOXpNJLOptxTCXqqtsC/aWcJH3yjzgdLmypHv/xpKbOmK6H7vJX4bfva+0nFeOn2nHnfYH3cAAAAAAAADg0QqNmpCTnsJL/75J068MaPeJBhdzRW/3+HK2I3xt7wqmUlUhyl2dLT/l1ClbY0GiNm/ikHgr2l37N0oH9hyW33oqMelQD/xCufhET9Og9PlJOmjJzLsmSwZj6TNcT46J13739FeBjDo1uuV/DHrxfIXf0UEjfQQr2lUrO/Vv5JZJMHRUW9aTGPT5C4Xd0VJs2HRXQrZukbP10puq4UlcNGx6hsDt7qEf4/ep3p0lSR/UbOlRhd/RQj7sGK+xOk5SbrZzCEpXkHFLy15ekwEf16KgHFdKrv+57dLzu6yCV/Jims1aVG7h+9HgoWkP69laP8If16LiH1U6XlPzNMV34TWrd7UGNGT9Tj94frltv9pVflyAFtJZ0Kks5v5oPUCbJzaQWrW5Ru279NWT4kxr3+ASF3GKuXKtlf4tbeqjHrVLOj2nKuZit44cOqOIyzFPakXTlX8xW5o/Z0q0hCrrFXReO7VFyjuR9z5OKfmiQetzZXw88Pl0PBUr5+3YqLaek2nHX6bejvIcDAAAAAADAoREaNSMlead0vkTy7hqkdi3MjW6SuA+M83LzUdA9kQoyXVLqhwsU+9Rjmr0iQZluXRXcq6u8f8tV/gVJpQe08fnHNGnsSE2aMFFvf54nKVcXLlVFOyaTSe61jnj3invIlJSopEwy+XVVgO8lHd40S7Ofmqjnn5+rt/91zPggSSbdIPO9lySZTJLkKU8PY1uxSkqlkvzsimXrjr+vhVNGVpzzUy9qW5akwlwVFlFqdF2yujZb3BygTl5Sydls5Ze2VNvfdZXp9E69EfO4Zs/6m+YvXKvkC5JKzQ9oFaR+Q/vLu/SYPlvxN83+r8e1dPMBlbTvrZDf+8hU1/4W/gq8zV/66ZjSfjymw9/lyXTH/Rr4eynn+1QdP5mmoyckv9uC5NeiWPm52SqRSYHduqqFpUzIo4MCAjtKJad09udLlc/FetzxHg4AAAAAAABHV+sUMhyNeXaS+6RfVzwDH9QTL8/XuEcfVNjtPsr/fqc+WTVba3ccU36xVFImSS3V6c5whfzBauvTR229rnzhq5KsHdq4Ik7JF3rrofEzNeO5+XoiopuxW4P9VqaKKgxTRwVZn+8fwhVyV4BaVyRMQIWyPB3+dLnWfXZAfkPG64kZ8zV75pPq52vdyaS290zW88/P1OiIQerR7pLS93+q9a+8osTv8ure7+ajW7v1kLcO68vP4vVljkk9+gxSvz/2ls7s0e5de5QmHwXdHiBvt4qfd7kSlfx20fx1dfvFezgAAAAAAAAcHqFRM2LyuUVtTFJ+5gnlFJkbSyX9ZuiI5sPkXjHZXFJVXVMRApldPKbd65dp4+5s3XpPtMbNXq0lz0crSFJa8mHluPiqja8kdVXY8Cf1xNSZFdu4aD0UOVoDA81LczVYiS6cPKy0EingvkgN6R+uoN93VTufVsaODdbCy1dtJKldmIaNMZ/v1JkaF/WoIkc9rCCbMADXo1/+nabMAsnU1l/epdk6fvSU1HqQ7ht2v0Lu7KaAjv4VQ8es8Kedin/7TSX+5K+wiCc19f97T7Hj+8tTGfr621P694na9+eXSi06B+s2Tynn+CnJ1Fs9AjuqbbcQ9XC7pLRvMiTPHgrq2FJSS/n5d5SnSnT8WIZ+sQzdX07p+I95kqmj2t5kdXJWeA8HAAAAAACAoyM0akZMfj0U9oeW0g/va/3GT5X63QF9+f/ilPCDsSeaB5M8ff3lJ+nw1k3a/c0xpf/fFm3bdtiqS0vp571K/myZ1r7/qVK/P6b042k6I8l0k7+8W3dQcJ9ukg4rftUafZZ0WOnfJ+mzd+cq9qW39OWZK13qzSRP3w7yk5S+LV7b9yXpy83LtCLugCSppKTY+IB6M93SW2F/MEk/fay1776v5O+OKf2bT7Xx9b/pxTc/VSb3NLouHd78vrbvO6DDSR/r/Xc/1Rm1VFivbmrt2VJ+N5ukCzu1LXGLUpO2aOPKV7T735LKiiuWUvR014Xv92p33HJt3LJXaelpOv7jCRVKatOmpbxa1b6/hZtkat1NQbebK4Hu6KHAm0wy+QWrxx0VTabbgxXQumK/d7cB6nerlP/5W4r7ZKcOf7tXn214S5/9JHn3HaQgv+orjXgPBwAAAAAAgKMjNGpOTP4KiZigfu2kM3vi9PbiBVr/WUaNCyHh2vlq7279c+1KY/NV8779QUUO6Sqd2av4ZXO1cEWcknOsOnh0UL9HZ+qB203K/DxOby+cqxXvJynfr79G/zlEfh4tFTBouqZG9JDp33v1yaoXtXDhYn3ytRQWEaEQ/wZcHYYlszx/N1gP3OMv5Sbpk9WLtT4hScXmyfCcf2frF+uKqIbw6KCwqOcU+Qcf5X/zsdYtnquFy+L0ZW5vDXtggNp6Gh8AR9BYY6DShSR9snqBVqx6X6k5UrtBE3RfL3+ZTB0UMvRRBZmk9O1r9faqtdqd5StvSbpwSjkFJTL5hWvExEfVo/UpJW9apqWvvKj1n5+SZ69oPdS3qzzr2G+SJJOvAu8IliT1uDNYbTwkefjrtuDekqSgO4Jkzoyk1j30QPR4hfle0uF/vaUVS5fpk/3ZUuCDiv5zb9WQGfEe7uQafYwAAAAAAAA0AZfy8vJyY6O9pZ88o+MnzxibnU5g53Y6kpYuV1dXubq6ysXVVS4uLpJcKv5fWqL889m6UGJSG39/eZpnFksuZinzx1O6YPJXYNeOuqEwW+eLbPvg2rGeCGzj56/5i+o3KRjYuV39ruPSS8o5kabMnBKZbuqotr4m/VZYohtu8pdfK/MvtLRE+Wcz9NPpXMmno27t0kHe1r/r0hLlZ6Xpp3/nqcSzgzp17lj12KI8nc3JlTz81dbPvFxd6SXlZGfrF7WsuG7crNt81cbfx9xWcdzj54rl1zlYbb0u6XxOrmTyVxv/lirJydL5Iqm1Xwd5e1QcurCebSrJ09kT6Trzc4lMfh11662G5wSH0XhjoERndy1WbNwBBT36gkZ0LVbOz4Uy3dRVAV062LyflVzMUmb6KRW26KiALv7SheyKa8q3g7wtQWNJns7+lK4zP0uetwQooIOPTNZhaF37C7N1NrdEntbHLMzT2dxLtm1mlnPKyb2kklYdFdSjm/ws13d14876cbyHO5UrHSMyj5OAzu2MzQAAAAAAAHZBaGRHdYZGsLtjR79TGz9/LXktVudzsiVJf35opP78n6OMXS9T94Q54PgadwxUhUY9Hv+7nrinA1U3aHauZoyI0AgAAAAAADgYlqcDalDxyfE39dXeXYp5JlZt/PwlSd1uM9/kBHByjAGgdowRAAAAAADgbKg0siMqjRyXcamhP/a7R3/sf6/O52TXezKw7ioLwHE11Rgo/ClJqRmX1LpruHrcaruMG+DIrsUYEZVGAAAAAADAwVBpBBgYb2Z+PidbX335ucSnx3GdaMox4HlruPrdM4jACM1KU44RAAAAAACApkRoBFgxTgRa/HX8ZLXxu9nYDDgdxgBQO8YIAAAAAABwZoRGgFlNE4Exz8TyyXFcFxgDQO0YIwAAAAAAwNkRGgFMBAKMAaAOjBEAAAAAAHA9IDRycOkfjtSksSM1aewCfZlr3Ht1GvPYzQkTgbCL0ktK/9db2n3GuOMKFSYp/t0k5ZQad9SNMQC7uNZjoD5++lTrPstQibG9DowRAAAAAABwvXApLy8vNzbaW/rJMzp+silnkewjsHM7HUlLl6urq1xdXeXi6ioXFxdJLub/VwQ7C0+M19zJA9S2RUuZ0uM06ZVPbQ90o48CekdqRNT9CvA0t/0Qp0mvZGnMkjnq51vVNWfvAr24QRr9/81RP69LKvz3Hr39QqrCDP0qXTis3QfcFXZvN1kO7UwacyIwsHO7a3AdH1P82LnScx8p8vfGfbi2SnQ2aYfO3DpYIe1Mxp3XWInSN8/W+pIn9dyobqr4aRW/622Gnj3Gr9bU/j4V3xRl6csP39Qn+44p/9eWCug7Wo9G369OHhW7c/Yu0NunIzW78ph1Ywygip3HgM31bZL37wdrxITxCvO3eljuTq2IeUuHrZok6T6r6yN/7wLNXnvA0ONBzX4nWgEqUfqHc5XYfqam9rc+cM0ac4zIPE4COrczNgMAAAAAANgFlUbNgcldrVu1lMnN0tBDo198V0veMG8vzlJIyUYtfPl9pdfy8emSH+K0cm22BsbMVD8/SR4t5enlXuvkcuGPexT/4Q6lFRr31Cx/7wJNWrpT+cYdDuirL3cbm67ZROB1IXenVjhNpVq2Dn2yVgnfZBt3XHs/far1+wZoXKRVuFOYqwvGsf3GuxoXbg6MVKK0TbO08ecBeuqVd7XkjfkaWPapFr6bJMvw9PtjtPodi1X8t7W8ERgwBq5Oc3q/q5s9x0CeklfN0vaSwebr+++K7nxY615YqzTry7kgT2d1v6ZajZElb7yriICqLhcunJKGzLHZv+SNR1XRxaSAh0bLb8Oyelc4MUYAAAAAAMD1hNCoWXKXyaulPFuZN/9uum/iNA0887FSfzT2NcvZqbeX7FTbiXMU+fvaYiJbnn94Um+89aRCnLHMqBpMBF7POui+Vz7SCw90MO64xi4p+f+9rxbD+qtTZRAsqeiSCtVRfu2sxnarlvK0DNfCA/pyu6+GPXS/Ovm2lGerDgobFamg/TuVagnt3DqoX8Rg7U7YoRyrQzcEY+B6ZscxcGa/tn3TWw+MGmS+vv3VY9QYDfx1iw6fsHpo0UXldOkgP+sxYvOhCqnkUrY63XKL7ThqZfXnnkdvDYwsUfzOww1epk6MEQAAAAAA4OQIjZyFa0XFUElJNVNgRccUv2SNFLVQT/St33I8lX6I06SxcUo3f1vxqfotSktaq4XTRmrS2Mc0++0tOlsk8zJSIyuWBfr2Lc0eO1LxP1QdqvD4Fq17+XFNGjtSMc8t1mff51XtlFR4/FOtiHms4pjLPlZaUtzln+DPPqD4ZRP11NiReipmrjbuzaqa9DNXvWxL+lRLp43UpA+PWT+yWt2CuuuP/Qfqj/0H2m8isChLX66fq9lPjtSksY9r4fqd5tfTSv4xbbN63vHf2r52yj2sz1bMUMzY6o+R/uFITXp/p1Lfna2nLJVBpZeUuXetFsY8pkljR+qpmAWX/U5Umqe0hMV60fK7Xvax0i5YHTPmLR3WAa2PsX29a/1d1+P3lJkwRZPerqqgkaSz22dr0pt7K9vyv/tYbz9X8TMmTTNcC+ZrMf7zJK1/4THzdZSnL5eO1PMJGZW9pGztfnmk5v9vlmTev2Kv5VzNx/i/qtd+0rRqXvtC69/NAn32/V7F11Z9VXhYh7/uoX7BhrH487+VJlNVSGSUk6V09VYn6/l8345qpwM6a5UQmW4P0cDjO3W4nlUUjIE6xkCN53bl73cV76OfKvmzFxVjeJxFo4yB3J1aMXaKPrMOYbK3aOHY2dqWJfuOAf/BmvHGdIW1surn6i6TTLrB6m8q+eeyJG/3WpZLzVPOGan1jS2NO2y0vWOQ2m5Psq1iqoFDjBEAAAAAAIAmQmjkDEovKXPXp9p9Y38FBRhmnEuz9eWqWKUGP6cn6nn/hjp9G6dN6SEa98q7WvLadPX+ca3e3pklqZsi3/lIC8f3lu58UgvfsboHyU8fa9HiVAX85e9a8sa7ih0boEPLX9RnP5n3n9miFS+/Lw2br4VvrNbzD/ko+RPDvZsuJmndC+tVcs98vfbGu3rt6QdUkjhL67++ZNXpgBIScxX2xAua0a/uT8v/+T9H6a/jp+iv46fYZyKwNFtfWi/JtOQFhf28RvNX7bUJy7bF75DnQ4v02hurNfv+Vtr2VnzVZGfJYW187hUdv22aYle9pzf+bj7GJsOn6P83Tsm3jNbUmZEKaiXlfPGK5idKw55drTf+8Z5eiPZX8sJF2l25MlWJ0uNf1IrDHTT6efNyUX57tPS1imUQA0Z9pFVLnlQP9daYJR9p1ahuFQ+r63ct1fl76nTXg+q0f7/VsohZOvplhsLuCpGnpJLv1mruijQF/dff9cY/3tPCmAHK2TBL8d/ZzgBvi9+jtsOf04yIHmohH4X0DVfOnlRllpo75B7W4eNd1S/48nOw2PbPBJnMr/3cP7fStrfeV6rlvEqztHvJXCUoUrOXvKvX/n+j5f1V/GX3JbJxMk3J6qp2fob24hKV+KUp8RWrUDTJapmwoovKqS1UsjB1VKfbM3Q4wzCxXwPGQC1joNZzu4r3O0n69n1tyxugJ2a+oH7V3M6mUcaAb7jC7srWl99WBaf5x1KV3mWQahkCTTMG3Ey21UCSSr5L0m6/EerdpaqtuKRYurRH75vDspjnFmvbces/A4pVUiQV7l9jDrsf14srPlW6cYlV/466TTt03OZ9qXp2HyMAAAAAAABNiNCoWTJXdow1bxMe18JEKeKZyQqx/pS2cpW6YbF2/3yLLmRn64JlovxqdYnW+Ed7VywP5B+ufgP9deZYRi339Lik1M/e1w2R0RrYxUeerVrK+/cP66G7Tynx/yqqTDIPfKr0uyZr3JCu8m7VUt5dBumhYb1tjpL5eZyS+45RZC//iuWGOvTXA0ODlLwv1epnd1XkpGj1u6OHgjrU/klzh3BihzZ+M0CRUeYlmXy7amD0ZIXkpem4uaJHkgaOnqB+XXzk2cpHne4KV49fDyjdUkniGqSIRav1xL1d5e1hkql1V/X+Q7BKsrP1S9UhpEHTNO6B3gq6o5v8TJJf3+e05IXx6uHfUiaTSX69BqiHjum85edeSFLiZyZF/PVRBfmbl4sa/aQe8jis41nWB7ZW9++6Qh2/p3a91S9wr1K/M08GZx9S8on7Fdaroq+p22i99vpMDeziI5PJJO8ufRTSrUQ5udaTx9LACdN1X68eCgr0l0mSZ/AAheVsUrK5dC7/uyQdDhykHtVM2lsMnDDd/Fx81Kn/IIX9ukc/WV77rCRtPx6uMePNS8b5dlW/4Q+qh+EY1vLPZ0l3dpQxMyosMynolgD1GDlfr72xUjPu81XyqhcV/0M9SiFs+Kp1Oynt301wX5prwZHHQD3PzVY9x0CXaI1/dJCC7uihtjbv22aNMgZaqsdd/ZXz2R6ll0pSng59fUABd/dWW5tH2WqqMWAjZ6fefuuwBv7Xg7bLOLq1VCefYPV76u9asuTvGh2crYSXl9tWNXl2Vetug/TEi+9q4SsT1OPc+1r4tqFq1c1XbbqUKPPf9QtXAQAAAAAArheERs1SD41+0eoG3//4SG8smaP7uhhLEE7pwq0TNHveHI0ue0srt1gvy3UVDEsDtW7dUSortmoxytJP30iZG/5WFXSNHaml/ytVrKaXpzM/Zsuvc4dalxw682O2tHNBxRJJ5u35dw8bfravTDdafevg8s+cUMntQWrrYdXo21/jXhivkNZVTaYWxt9ttgotS2+5mWS6kKqEtyxLc5mXzDLyaGW+4bzZDSXK3LmscmmuSWPn2lYHZKfrsHroVuvZZLdueuCF+brP6pP/tur6XVvU9XvyV49+3ZR84LAKJeV8t0eZQ8IVZHkCJnflH3q/ammusRO1/lvDIap73Tx7K2xQiXanHpN0SUe/PaCAfr1rnby2OYanr1qrRL+VVXybfypNOX4BalfdpH8Ded7xqGbMHK+Bv/eXZyt/BTwwXeMGZWvb/kMNvO+KSZ4extfbcTnyGKjvudmq5xiodYk1NdoY8Ow1QAN/3aLUdEkXD+vwt90UdkftVahNNQYqmZdULfzzNEUY7sHn13+m5k59WD3a+cjTt4PCHp2uyC4HtPv/LEm2v/pNXagnInqrrW9Lebfrr8hJ0er07RYdsFmysaVM3pLMzwMAAAAAAAAVCI2aJXeZvKxu8G2cS60UrIEDu8nk5q9+Y55Um/+3/AqqFq6N336VwiatrAq6LNtD3SSZZLpRauHhbnyYjZIyqd2I+Zcf44kB8jZ2vp5cTNL6l9/XheBpennNR1plWTKrDplbXtTS//PVQ8/9U6ve+Uir3pmv+4ydrkDtv+v68+s1WD3271daYZ7SvslQv15BlRP+hV+/qfmbctXjv1aaz321xtxpOEC1TArqfb+0a7/SLx7W4a97q1+v2ifMa3ODyVNq5WkbRFwzJt3atbeUk1dRLePRSn7K1QXjMlvVKCmVTI1zUo6JMVD/MWAKVsgQaXfqMRV+/39KvXOwel/5ELj2Y8C8pOrhXrGa8R9d63HcDrr1dinzZ9sKKxvtAnSbMnT+onVjsVTC34IAAAAAAACMmC65XvgN0ugof+1eEqfDxhvMNzp/deolpZ/Mk8kSdLVqKc8WLeXpIUkt5dfRX5nHMmxu+m7LR+26mHTm2Cn9ZjxGzamZw/Nu10Wm7zN01jrLKzym3Zu3XH4PjpqcSVPyr+EaeE9XeZqXcSoura3yS5Ly9NOxU+oxMEJBfubXz/gY/wD10GGdsVnlLFupm99Xao0rn9X1u24A33CF3bVXafv2K/XYYIV0q/o9n83Yq5K7HlC/Lpal7cwTwPVgum2ABmqLdm/Yo+S7BijE19ij/jxv6SS/E4f1k81kdO2823SQvj2lHJvWPCUvG6kVe22Xyso5fUjy81ELSWrXRT10TGetX/vsdB1Xb7W1KZXKVk6mFHTLVSQBTciRx8CVnZujjwGTgsLul3Z9po1f71VI3/CrCt2v3RioCIyS356teNNkTYnsVk1gdEyfPPmY4n+wbsvTmSyp003m1+H4+3rqyTjz8ntmuad0Rl3VxroaqjRbZ783qdMtPlaNAAAAAAAAIDS6jvj1f1Jjbtuht1ftVM61ur9RNW7w8JSOZeh47iWVlEqSj0KGPSjTZ29p494M5V+8pMLcDO1+e6LWfV0xSd6pb6R6fP2m1m2v2J9/Yqc+SbRdXipgwAT1OLZGqzYfVs7FSyq8mK3DH87Wwn9l1G+u1BF1GazRvXYofv1enTW/Ll9ufEvxP7WSX+1rV1Vp7a8AbVGi+bXL+e59rdt4WDqdpxpvu6KW8vM36XBivA5nm3/uP9dqm6QLeeZP7LcO17AHShT/zsdKz614vdM2L9O6r6XWlqDFo6U8dUiZ6XnmpcLq/l3XX0v1+EO4dm9Yq7R7B1QtyyXJ++Zu0q547T6RV3leG7+Xzl6wvrFJDdy6KewBXyXvT1LIH0LqWCKsDrcO0gN3Jmn92i3KzDW/jps/1WFjP2udgxSmDJ2xmTH3UY++/ZW24S3zc7qknG/Wav1nvrqvT3DF5LkpWGEPSImfVP2s3e/HKbPPINvgq+SUMr/vqh5dm8lkuCOPgXqc25W839VfI42BgAEa1mqvkr8OV8gd1dxTrCGu2RgoUXr8Aq3Li9TUqBB5/nJJhRfNW6HlHb6bev/5Fm17Z23F7+xinjK3v6WN3/bWwD90qOjSpY+G+X6q9RsPVPw5kZuh3XFrdPjO+9Xb+t5l2ad0VIMVeKtVGwAAAAAAAAiNHIeLsaER+Chs/HSFHF2jjV/VWCpy1Tx7RSgycI/ejpmoxBMVbabfR2vG7EEq2f2iZj/1uGJeWKP022dpdG/zxLbvII17/lEpca5mPzVRL39ySm2DDbdS9xukJ56frMCflunFpx5XzKy52u02WuPur88SRg7KzV/9Ji3SENNnWjLrccU894q+ND2ouZP61//T//73a9LsEZWv3cLtHnro8QelnFxdqDFNMyloxCKNuT1d656p+H1kdhujyDulMxcsE9smBUS+oKk90rX+hccV89Rsbcz6g6Y+86gCLC+4Z2/d92iQkldM1DOJxyoeVdfvugE8gwcoTP4aFma7rJff3bM04wEp8bWJipk1V9vcHtWYP0k5P+fWK0DsdOdg+ekaTJjLR/2emK8IxWthzON65v/bqLMdQxRk7GbNs4d63HVYqUdtAwTPuyZrbpS/kpdPVsxTj+vFuGyFzZ6vyMp7ulT8PsbctEdvPPe4YmJeVLJntGY/Hm4TfJUcS9WXgYPUw3qC3JE58hiox7ld0ftdAzTKGHDrqh4D/KW7+qjHVd+L6BqNgdw9SvzslPRDnBb+7XHFPGW1vb1H+eZune5/QTP65Cr+5ccV89RELd3vr9Evz1Q/S3Dq1lUPPPOCwnLX65WnzOPkpgmKnTzI5nrKObpHZ63vEQUAAAAAAABJkkt5eXm5sdHe0k+e0fGTNnesdkqBndvpSFq6XN1c5eriJhdXF7m4uEiy/F9K/3CkFp4Yr7mTB6hti5YymZdeuiaKLqnw33v09gupClsyp2rSzV5KJVk9v7PbZyv2uwgtnN6AyWMHEti53XVxHTdHhUmLFfPNAC15wjZwuSKG61Zntmj+c6m67+9zFNbaqt3aTx/rxTekca8+rE7XckwrT18unazMwf/U6DvtPxvOGHBUl5T85uM6fNe7GnfX1QanjjYG6qHkmOKf+6faxMzXQAcIVwM7t1NAZwc4EQAAAAAAACqNHEB9Coy+X6v5Ty1XsuWj1tdI+iePK+aFtUoz7rCHM59q/v/vLX1pXpor/8QWbYo/pbC+Ic0yMIKDKrmk/DN7lfDJAQ3s3/vqAyNladtLM7TeehmyD+N0ts8g9ahpslySbn1Y4wbu0br4Y3VXhTRAzt63tLtDrCIdIDCCYyopzNPZpI367ND96tfrGgRGDjYG6lai9M1rdOah6Q4RGAEAAAAAADgaKo3sKLBzO31/LF0urm5ydXGtttLoepL/3cd6f0OCUs9cksm3m/o9PFmR/Ts026XnqLJwPPl7F2j2hnT1iHhOTzxwjZY1zD2szzas1bb/O6XCG30U0PdRRY8apLYexo5GJcr81xr9dNeT6udv3HcFCpMU/6F0z5hw+TV15UYNGAOOJk9fLp2ojZm9FTFtpu7rck1GgOOMgfr46VOt+66Hxlyr8X8NUGkEAAAAAAAcCaGRHREaOTcmzHG9YwwAdSM0AgAAAAAAjoTl6ezOpWKFusqMiLAIAAAAAAAAAAA0PUIjO7NUFpm/M+wFAAAAAAAAAABoGoRGjsClst7I8i0AAAAAAAAAAECTIjSyMxcX8/2LXKTK2xiRGgEAAAAAAAAAgCZGaGRnLi6u5iojlqkDAAAAAAAAAAD2Q2hkZxVVRi6VVUbERQAAAAAAAAAAwB5cysvLy42N9pZ+8oyxyWmVlpaal6hTZWTkUrlOHQAAcHYBndsZmwAAAAAAAOzCYUOj4+bgyOb0ystV8Z25zXqXscFhVCw+Z2iS5KLAW9uqZStPuchFLq6ulfc3IjRyDvn5BfL29jI2A9cNxgBQt/z8AkIjAAAAAADgMBx+eToXF6vQxSpUcZHV15WbqwNuxnO03crLqwm8HC/HAwAAAAAAAAAATs7hQyPJEhZZ3++n4j5A1psxjHGkzXiulc/ExUXlZWXmaqqqZ0dkBAAAAAAAAAAAmlrzCI2kyqCoKoyxymHMkYtDbza5UdVzqFxwr7y8IjyiyggAAAAAAAAAANhBMwqNjKwiGWMljyNuNhFS1XMoKytXebml2si6yojwCAAAAAAAAAAANJ1mHBo5h4rASOaQyCoyIjMCAAAAAAAAAABNiNDIzizL0rEyHQAAAAAAAAAAsCdCI3urpsoIAAAAAAAAAACgqREa2Vm5yg15EeERAAAAAAAAAABoeoRGjoKsCE7loJaH9tTyb4ztAAAAAAAAAABH5TShUUl2hg7v/VQbV8xQzIfHjLuB+ist0ukje5QQt0DPjujv4MFHkU5s3ahdJ4qMO2p0aHlPhS8/aGwGAAAAAAAAAFznnCI0yt+7QE+9vFxfZphkcj2lQmMHB0eRkSPJUcKMMEXP26w0T3fpRIGxg4PJ0perF2jVF1nGHQAAAAAAAAAANIhThEbe4TO1avlSPTHmfoX4GfcCDeGn+xcf1PZNSzRrxBC1N+52OAGK2nRQH0QHGHcAAAAAAAAAANAgThEayWQytgBXzN3d2NI0zidMVfi0OG3dNEcThvRUeGh/TXh1h06XZmnXq9EadndPhd89WBOW79H5UsujcpQwradmJORUHag0RylrYvTIkJ4KDw3TsJjVSjlftVuS9FuODsVNreGYkrKT9c6s4RoSajmPzTphLOHL3KPlMYM1ILSnBgyL1qKEdBUbugANUlqgtIQFmjAsTOGhPTVg2FS9k2J1bUtSaZa2vhpdcW0OidaihD3aMM3q/lnZmzUjdKoSsq0e883rCg99XYcs39fn5wAAAAAAAADXIecIjQBnsW+FtpT+Va9t2qvEuKnySozRI/fGaF/357Q+Ya8SV02U16anteqLmpbNK9KhlRM1Y3+AZr2zV9u3b9bz7RI15YkVOmSd6Ly3Qgk+U83H/Ku84p7WuhTzfZGKk7VoxFR9G7pAH3yRrD1b1+j+7AUaszK5KhTK26F5UUtU9J9xSty+V4lvjFZx3Gi9vL2m8wLqdnrzFEXHSePe3qE9+5L1wbMdtGVSjDZlWnoUad+i4ZqXcrte2rxX2zct0L2nV2vVPtvj1KXunwMAAAAAAABcnwiNAEcSOkezHrlNbXy81Kb7aI0bIRV3H62xEZa24Ro5rEhb0tKNj6xwfofWxblr0pypCu3kJS+fDuobE6tJnsn69kerfiNiNKvymMN0b98i7TuSUbHPracmJezQayNuUxtPD7m3uU33DgxTcWaWLJFQ2ubXtXVYjKbf3UFePl7yChymsVE9tTVxj4xFTUB9tR+2Utvj5qhvJy+5u3uo/d3D1E8HddpyURXs1ZZNfpr0UkUfL58OCp30tEYajlOXOn8OAAAAAAAAcJ0iNAIcibvkUWubh7w8peKa1oHL/F77FKagLlZtbj01Ni5OUd2t2jy9ZVyF73SBudLIzUMe5/do1bOW5el6athLe6x65ujEoSxp01QNMO8PD+2p4fOTpd/MxwCuhEeR0jbNqVw2Ljw0Whus95/4XrvUU106WTdegbp+DgAAAAAAAHCdIjQCYCtvh14eu0I5fRdoc9JBJaUcVOK8ATZdin6TukyJ0/bte223+cPUxqYnUH9pcRM1ZZefJq3Zo6SUg0pKiVOUdQcPD/nJWx6XJasNU+fPAQAAAAAAAK5ThEaAM+l0u/oqWSds7s2SpV2rVmhXfe/XcuIbbS0crJHDb5OXW0VTUal1BZGfunb30InUdBX7eFUsT+fjJS8vL3l5XeVsPq5jOUpLTVff4X9VaHvzdWRz3UlqF6Bg7VGa9VKL1SqSfjO2WdTj5wAAAAAAAADXKUIjwJm0Gaxx0cVa9vJqHcouUEFellJWzdG87ZLfLcbONWjTQcH6QOs+OKrzeQU6nbRC85YmSydylGPuEhwxR32/WaBnViXrdF7Fz9m37BFNeOeoalo5D6idl9p38tC+uNXal1mgguyjSpi/QBsk5eSY76bl1V8jo6VV8xZU9MnLUsqq1/WR9WH8b9ed7ZO1YcOeimszM1mrVnxg1aEePwcAAAAAAAC4ThEaAU7FQ8FTVmtpn+/18mP9NWTII1p0fICWvj1VwcabGNWk02i9tmqi9M9oDRsyWBM+8NCkudHS6RydtyRC7YfrtXdideexOXpkSH8NiYjWRzdM1UvRt112rySgfjwUOmWj5oZ+r3nD+2vIY68orVeMpvWVTpw/V9kneMpqvWTpM2KOEvwG6H6b49ymqFefVvtdT2v4kP4aPmOjvEZOVd/K/fX5OQAAAAAAAMD1yaW8vLzc2Ghv6SfP6PjJM8ZmpxPYuZ1cXMp1g9sNcnNzk6ubm1xdXeTiUpHlubi4GB+CZiQ/v0De3l7GZuC60ShjoFSSedlESVLxHi3q+7S83knWpGCrdqCZyM8vUEDndsZmAAAAAAAAu6DSCADQTBRo36v9NcFmWcQl2tRlou7tbuwLAAAAAAAAoKEIjRwFRUUAUAcv9Z22RhF5KzQhomL5xWXZw7Ty7YkKsq4+AgAAAAAAAHBFWJ7OjgI7t5Ori+R2g1vF8nSubnJ1da1clo7l6Zq3RlmaC2hGGANA3VieDgAAAAAAOBIqjezNxfIfAiIAAAAAAAAAAGA/hEZ25uLiYt4kCosAAAAAAAAAAIC9EBrZmYuLqzkssq02IkACAAAAAAAAAABNqRmHRuVVW3kz2KzP1+o5uLq6mIMj832MKveRGgEAAAAAAAAAgKbTjEKjivClvHKzymQMkYxDbjYZUtVzcDGHQ5Zl6igxAgAAAAAAAAAA9tA8QiNLSFTVYExhrIIYx9uM51r5TMrL5eJqqTKqenbERgAAAAAAAAAAoKm5lJeXV6UVDiL95BlJFRU5FhVfl1dkLpX/r/jahiM9m8vSH6sl6FwqaoxKy8rMS9RV3NOosuIIAABcFwI6tzM2AQAAAAAA2IXDhkbHzcGRMwvs3E4d2t4kV1dXuZorjgiNnEf6yTNMBOK6xhgA6sY4AQAAAAAAjqR5LE/nxCyZXeVSdoYKKwAAAAAAAAAAgKZAaGRn5eXlKisrkyQqjAAAAAAAAAAAgN0QGtmZsdKIKiMAAAAAAAAAAGAPhEZ2Zh0WWQdGhEcAAAAAAAAAAKApERrZWVlZGQERAAAAAAAAAACwO0IjOzNWGREgAQAAAAAAAAAAeyA0sjMCIwAAAAAAAAAA4AgIjRwE9zMCAAAAAAAAAAD2RGgEAAAAAAAAAAAAZwmNSnR271otjHlMk8aO1FMxc7UxKdvYySFRVeSACn/Uh/NGqE9woAIDu6vPI7FKOGnsBAAAAAAAAACAc3GK0Ch/32LNTyxWv2lvaskb7+qF6AClrfqbNn5XYuwK1OGcEv4WobVFo7RuW6pSU7bq1Tu+0ow/x+qrImNfAAAAAAAAAACchxOERlk6sO2AejwUrX5dfOTZqqX8ekUrclCJdn+XYezskKg2ciDHt2jNjoGa8uwodW/rLW/fThr4zByNKVyv3YeMnQEAAAAAAAAAcB5OEBp1UL+n39W40JZWbSaZbpBMJqsmoD66jNJ/pyxVhK9V2w0e8pCHPNys2gAAAAAAAAAAcDJOEBpJplYtZbKe0C86oNQv/DUspJtVI1APbh7y9vWwaSrau1XrO07R/XfaNAMAAAAAAAAA4FScIjSyUZqtL1ctVtq90zWki3En0ECnPtTkqV9pzOsT1J1KIwAAAAAAAACAE3Oy0KhE6fELtPHSCI17qJtYnQ5XpTBVC8bF6sLkpYoJta0+AgAAAAAAAADA2ThVaJSzd7GWfhOiGU8/rE7M8eNqlGbqw79FafegDdrwZHdxOQEAAAAAAAAAnJ3ThEY5+xbrlQ9NGhMTrQBm+HE1SjOV8LcILfB4VWtmhRAYAQAAAAAAAACuC04RGpX8EKeVq3P1wPQJ6nHjJRVerNpKSo29gdoUKXXRBM3InqJ18waqdX6+8nPNW36RsTMAAAAAAAAAAE7Dpby8vNzYaG/pJ8/o+MkzxuYa5OnLpRO1/ltjuyT11pglc9TP19juGAI7t9NNrVvIZDLJzc1Nbm5ucnV1lYuLS+WGJnb2Q43vN0e7je2SdM8C7V83Sjcb22uQfvKMAjq3MzYD1w3GAFA3xgkAAAAAAHAkThAaNV+ERs6NiUBc7xgDQN0YJwAAAAAAwJE4xfJ0zRnBEAAAAAAAAAAAcASERgAAAAAAAAAAACA0chTWFUdUHwEAAAAAAAAAgKZGaGRn1vcuIiwCAAAAAAAAAAD2QmhkZ5bQiOAIAAAAAAAAAADYE6GRnbm6uhIUAQAAAAAAAAAAu2vGoVF51VbeDDbr87V6DtaVRtzXCAAAAAAAAAAA2EszCo0qwpfyys0qkzFEMg652WRIVc/Belk6Y3AEAAAAAAAAAADQVJpHaGQJiaoajCmMVRDjeJvxXCufSXm5XF1d5eraPH4NAAAAAAAAAADAebmUl5dXZTEOIv3kGUkVFTkWFV+XV2Qulf+v+NqGIz2by4qGzFVFkuTiIhdJpWVlcnW1VBhRbQQAwPUmoHM7YxMAAAAAAIBdOGxodNwcHDmzwM7t1KKFhzkocmWJOieTn18gb28vYzNw3WAMAHXLzy8gNAIAAAAAAA6DddHsrHLFOusSKcfL8QAAAAAAAAAAgJMjNLKz8rIy89J7VdVFREYAAAAAAAAAAKCpERrZWbk5IiovL68Ij6gyAgAAAAAAAAAAdkBoZGdlZeUqL7dUG1lXGREeAQAAAAAAAACApkNoZGcVgZHMIZFVZERmBAAAAAAAAAAAmhChkZ1ZlqVjZToAAAAAAAAAAGBPhEb2Vk2VEQAAAAAAAAAAQFMjNLKzcpUb8iLCIwAAAAAAAAAA0PQIjRwFWREAAAAAAAAAALAjJwmNSnR271otjHlMk8aOVMxzi/XZ93nGTkD9FKYr4dVoDbu7p8JD++uRWauVct7YCQAAAAAAAAAA5+IUoVH+vsWa/8lF9Zv2ppa88a6eG+Wr5IUv6rOfjD0dE0VGjiRHW58frXcKhmvppr3avv0DTfdP1JQnViut1NgXAAAAAAAAAADn4QShUZ4OJR1QwJ8fVb8uPvJs1VJ+vUYros8pHTiWZewM1C57j7Z80VNjpwxXkL+XvHw6qO+kqRp6YrsOZRo7AwAAAAAAAADgPJwgNPJRvxkfacY9/sYd+qWo2NgE1M5/uJamrFZEe+OOAhU0xeWUuUfLYwZrQGhPhQ8ZrmfXJOu8ocKp4NBGzRvbX+GhPTVkRIzeScmx7QA0Y9bX94Bh0VqUkC7j0GMMAAAAAAAAAI3DCUKjy+V/s1EJ3/RWRN+uxl1Aw5TmaN+qFdp191RFdDPuvMayEzUj6mllhK/U/2zfq+3vxKjNlomavPJg1aT5sdWaMGWv7pz1P9q+fa8+eP52fRkzUe8csz0U0BwVH1qhCWM/kNfYD7R9+179z+JhOr14tJ5JsKoaZQwAAAAAAAAAjcaJQqM8fbl0pCaNHanZy9LUK2aawnyNfYB6yt6sGaE9FR4+WDNSB+vNF4epjbHPNZb2rxXa1zdWLz1ym9r4eMmr0wDNeu1pecSt1pZsSSrQrn+ukMeUGI3o7icvHy+16TVRk/4zXet2HjQeDmhmCvTlxtUqnrRAs+7uUHF9dx+t114epn2LN+pQaUUfxgAAAAAAAADQeJwoNPJR2BPvaskb7+rlmSFKW/K84n8oMXYC6qfNML20fa+2b0/UyruTNXns6zpUaOx0LeUoLTVLoeE95WXdHNhTodqjE6clKV1pe6S0RcMVHtqzcpvynlRsXL8LaHbSdWirdG+v22xa3W/rqb6FGco4X9GHMQAAAAAAAAA0HicKjSSTZ0t5tmopvzse1Yh7/61tOw+oUef54bzcPOTl4yUvnw4Knfi0RmbH6aN9BcZeTa64UBo6P1Hbt++13Sb0NHYFnBJjAAAAAAAAAGg8ThAaZeizWSO17utLts0mSZ4mmWxbgdodW63hoXO0yzofcpPcJXl5uls1Xmt+CgrpoJSkg7KJpo4fVIoGqEt7SeqgoLulQ2k58vDxModaXvLy8pKXp/WDgOYoQMFDpV3fHLVpLT56UPs8u6prGzEGAAAAAAAAgEbmBKFRV/UY2FHJmzfqcPYlFV68pPwTW5T4v9LAnsGERmiYwAGK6JKoVav26HRegQrycpT2wWpt0Gj16+Vh7H1NBf3HVPXdF6t5HxzV+bwCFWQma9WCFSqKnqj7/SXJT/dGR8s9LlaLEsx9so9q09zBmrc9x3g4oJnxUr/RE+W+ao4WfZGlgrwCnT+yWYuWJ6rvzNEKdhNjAAAAAAAAAGhkLuXl5eXGRntLP3lGx0+eMTbXrPSS0r9Yo02fJik9t0Se7cJ1X9QEPXCHj7GnQwns3E4uLuVyc7tBN7i5ydXNTa6uLnJxqcjyXFxcjA9BUyg4qE2LXte63Qd1vtBLXe79q2bNmqhQf2PH2uXnF8jb2+YORXXL3KPlS2P10Rc5KvYJ0L2j52jW2DC1cavqcj4lTstW/kNbDxVIPj01dNLTmjW8p7ys+gCO4ErGQMGhjVq0ZIW2HiqQu39PRUyK1fSIAFnX+TEG4Ezy8wsU0LmdsRkAAAAAAMAunCM0aqYsodENbjfIjdDI6VzJhDngTBgDQN0IjQAAAAAAgCNxguXpAAAAAAAAAAAAcLUIjRwFRUUAAAAAAAAAAMCOCI3szEUuhsCI9AgAAAAAAAAAADQ9QiN7c7H8h7AIAAAAAAAAAADYD6GRnbm4uJg3yYXcCAAAAAAAAAAA2AmhkZ25uLiawyLbaiMCJAAAAAAAAAAA0JSacWhUXrWVN4PN+nytnoOrq4s5OKpIiaxiI6t+AAAAAAAAAAAAjasZhUYV4Ut55WaVyRgiGYfcbDKkqufgYg6HLMvUUWIEAAAAAAAAAADsoXmERpaQqKrBmMJYBTGOtxnPtfKZlJfLxdVSZVT17IiNAAAAAAAAAABAU3MpLy+vSiscRPrJM5IqKnIsKr4ur8hcKv9f8bUNR3o2l6U/VkvQuVTUGJWWlZmXqKu4p1FlxREAALguBHRuZ2wCAAAAAACwC4cNjY6bgyNnFti5nTq0vUmurq5yNVccERo5j/STZ5gIxHWNMQDUjXECAAAAAAAcSfNYns6JWTK7yqXsDBVWAAAAAAAAAAAATYHQyM7Ky8tVVlYmSVQYAQAAAAAAAAAAuyE0sjNjpRFVRgAAAAAAAAAAwB4IjezMOiyyDowIjwAAAAAAAAAAQFMiNLKzsrIyAiIAAAAAAAAAAGB3hEZ2ZqwyIkACAAAAAAAAAAD2QGhkZwRGAAAAAAAAAADAERAaOQjuZwQAAAAAAAAAAOyJ0AgAAAAAAAAAAABOGBqVZuvLZY9p0tg4pRv3OSCqihzcqQ81PjhQga+mGvc4lXObxitw3Ic6Z9wBNLGik0e0e9MaxT45VCHVjrsi/bgpViP6dVdgYKC69xuh2E8zbbsU/qgP541Qn+BABQaGaOiTK/UVFzcAAAAAAABQJ6cLjfKT1mrjNyXGZuAKnFPCS7HaXWhsB9AYzm0ar+6RM/Thtx7yuOFH5Rs7SDq3ebIi/lGkUas+V2pKqra+1ENf/W2oYvcWWXoo4W8RejN/lNZtS1VqSoLmtEvQX6JW6kip4WAAAAAAAAAAbDhXaJS7V3HrpYF/6mHc49CoNnJM5zY/q2d/G6MJfYx7ADSGmx98U8dTturNl8bo/g7GvZL0o7b8c7cGPjVHo4JvlrevtzoNnqM5UUVav/dIRZezu/TJjt6aPHOUurf1lrdvJw38W4wijm/V/50wHg8AAAAAAACANScKjfKUHPemCiOjdU8nd+NOoGHOJujZeRc0Z+5fFOhh3Nk4KpaIW6OE1ZM1NLRiWa0R8z7Uj1aVTqmvBipw/ofaOjdC3QPH68Oz1S8tl/rq5Uvq5aeu14wRIQoMDFTInyZr5X7jel35+m5TrEbU8LMl6dzelZr8p4pjBIaOUOymH2Wp7wCumkddg+13GvVOqpYO87Zq85CHh9VD247S2uP/rVEdrbpIkvKVz8UKAAAAAAAA1MppQqPCr/+p9QXRir63g4iMcHXytfXVZ3Vh1qsaE3ijcWfj+nyJPvGYqv/elqr9/zNHv98/RxGLv7INZtYt0CddYrT2n1P1R1/rHbU4slIjo3er9wv/q9SUVP3vK3do18S/aKW5OEOq+NkrModq6bZUpe5cqh6Gn120N1b3PHlAf3z9f3XkyBHtf+chZb4YoQWVy4IBjc/D11seblYNhbu1dWMnTRkSYtVopfScdv99ibYOjtGo7sadAAAAAAAAAKw5R2h0MUkb12Urcvz9ams9mQhcgfzEFzTj1By9GvU7467G1ydWsdHddbOvt24OHqXYeWOkf27VV9a5TNRSLZ04UH/sH6JOdRVmSBUh2D+WyGPWHI0xL+l1c+gUPT36R63calWN1CdWS2f8UZ18veXdeaBiX5kg/fND7TbfWMbjrhjt//JNjQm+WR4eHro5+H4NvatImWeru/MM0ARKM/Xh3ybrq6ilmhBs2Hf2Q40PDFRgtz4a//VQbVgcoZsNXQAAAAAAAADYcoLQqESHNy9TTuRkDWxn3Ac0UOFuLXkmU3NeG6Pf2SOA9JCsa5s8ftddf1SmsnOtGj1bq15ZUaXj+m6H9N2LQyuWlTNvf1knFVmHUYafrY6B+qPydcGyRJ2Hh7I/X1K1PF1gH8353PoBQFMqUuqiCYq9MEVLp4VcPiZufkhLU1KVmrJb/z1on6JGLFCqYblFAAAAAAAAALaaf2h0fJPe3lmi9A1/06SxIzVp7EjNXntA0qdaOHakVuzNMz4CqFHq25O1vjBVsX+yhCvmYGT1CAWa7yHUHBUVShF/363UlFTbbVoNS3pVKpJ+q/gqP/FZRSzO1sDXP9fx48d1/Ph+LbjH2B9oGpmbJitq50BteGeKunsa90py85C3r7e8fTvpj9PmasyZNYqzlM0BAAAAAAAAqFbzD426jNBrb7yrJVbb3Kgeku7X1Dfe1bhwH+MjgBqFPLHfEKx8qtg+kv66VqkpS/VQY69vVST9av3tj0f0lTrJv657FxkeZ6uj7hgspX6XIw9fb/NEure8vb3lbT3ZXu3PvlmtvSu+P/5tgooeiNaoYHODfpXtzZaAppG5ebIiXvXQq+vmKMQYGB1ZqYGBM7TVOh9ykzwktW55WT0SAAAAAAAAACvNPzRyM8mzVUubrfWN7pLM7SbjA4BaeFqFKr7e8va9WR4ektxby9vXWx6NvWTd/rV6c9MRncvNV/7J3Vrw0nr5T3xIf6xlrvvm7r3Vaf9ard2RqfzcfGXuXaL5G2x6aOh/TZDH6mcVazn22SNa/7c+mpF4rqrb/ljNWPqVMm1+drQGmjMiv04h0oYVWn/onPJzM/XV0hmK3S8dP2d1DKCRFaUs0ISZ2Zqy+kUNbJmv/NyqrahUUtC9GhmYoCV/311xLeee05G4FVqjMRp4Vy0DCQAAAAAAAIAThEZOwMXFxdiE61Wfkfpj7gr95b4QhQyaocN9lmr9rGru12Kt+wS9+WxHbfnbQIWE3qMJG7wVPWOgTReP0Dn67w0j9evGKPUJDVHIn+fpQJ+39OJQq9Kpe2IU7f+hZtTwszuNfkv//YS08rE+Crl7pNaYntar46TMM9kUHKGJnNMnb67Rj0rVghF9FBIaYrXN0CfnJLl115RNm/SX/BUaeXeIQkL/pBlf9dbabbEaaKxKAgAAAAAAAGDDpby8vNzYaG/pJ8/o+MkzxmanE9i5nW5q3UImk0lubm5yc3OTq6urXFxcKjc0X+knzyigcztjc43ObRqvPolDtX/dKDX2KnhAU2joGACuR4wTAAAAAADgSKg0sjOCIQAAAAAAAAAA4AgIjQAAAAAAAAAAAEBo5CisK46oPro+3TxirY6zNB0AAAAAAAAAwE4IjezM+t5FhEUAAAAAAAAAAMBeCI3szBIaERwBAAAAAAAAAAB7IjSyM1dXV4IiAAAAAAAAAABgd804NCqv2sqbwWZ9vlbPwbrSiPsaAQAAAAAAAAAAe2lGoVFF+FJeuVllMoZIxiE3mwyp6jlYL0tnDI4AAAAAAAAAAACaSvMIjSwhUVWDMYWxCmIcbzOea+UzKS+Xq6urXF2bx68BAAAAAAAAAAA4L5fy8vKqLMZBpJ88I6miIsei4uvyisyl8v8VX9twpGdzWdGQuapIklxc5CKptKxMrq6WCiOqjQAAuN4EdG5nbAIAAAAAALALhw2NjpuDI2cW2LmdWrTwMAdFrixR52Ty8wvk7e1lbAauG4wBoG75+QWERgAAAAAAwGGwLpqdVa5YZ10i5Xg5HgAAAAAAAAAAcHKERnZWXlZmXnqvqrqIyAgAAAAAAAAAADQ1QiM7KzdHROXl5RXhEVVGAAAAAAAAAADADgiN7KysrFzl5ZZqI+sqI8IjAAAAAAAAAADQdAiN7KwiMJI5JLKKjMiMAAAAAAAAAABAEyI0sjPLsnSsTAcAAAAAAAAAAOyJ0MjeqqkyAgAAAAAAAAAAaGqERnZWrnJDXkR4BAAAAAAAAAAAmh6hkaMgKwIAAAAAAAAAAHbkNKFR+ocjNWmsYVu6U/nGjkCdDmp5aE+FG7YZCTnGjg6kSCe2btSuE0XGHUCzUpx5VPsS4rRo1nANWX7QuLviWk9YoAnDwhQe2lMDhkVr0dYs2y6F6Up4NVrD7u6p8ND+emTWaqWct+0CAAAAAAAA4HJOEhpd0oVcKShqoZa88W7V9sQAeRu7OiCKjBxMQY5yFKZZ7+3V9u1V20v3+xl7OpAsfbl6gVZ9YZg8B5qR8wlTNWDsHCUccZeHW7oKjB0knU98WmPiihSxOFHbt+/VB8/erpS5w7UoyRKY5mjr86P1TsFwLd20V9u3f6Dp/oma8sRqpZUaDgYAAAAAAADAhpOERiUqLJTa+XeUZ6uWVZunydgRqNsv+SpQgNp38ZKXj9XmbuzoSAIUtemgPogOMO4Amo0297+upO2b9eqzo3Vve+NeSUrXro171G/i04ro7icvHy+1vztG00cUaVPS0You2Xu05YueGjtluIL8veTl00F9J03V0BPbdSjTeDwAAAAAAAAA1pwkNMpWzjHJ1IKQCNfAv7OUIvemDYmyN2tG6DC9c8SqLXOjJoQ+og3Hzd+XZmnf8qkVS27dPVgTXt2sE4WWzjlKmGa9hF7FEnvLdx3UhpjBGhDaU+FDorV8n2GJvVqPaT7G5h2a/1iYwqdtFit8oVG5exhbDAIUsXyvXhriZdXmIXd3yd0yXv2Ha2nKakVcFjoVqKDY2AYAAAAAAADAmnOERqXF+u1Xfx1PnKvZT47UpCcnauH6vcphKSJciaIiFbc/qHUTKsKWau+Zcq35D9H9Q7KUsM9cLSHpfOpeHeo+XP0CJalAu+YN17KiR7QmYa+2J6zWyOI4jZm/o9olvCw2zP+nPCZ8oMTtOxQ3zlsbnl2hXZUPqN8xN6z8l7pMWqGVE8NkPVUP2IO7j5fc3awaCvdo1/900Li7e1o1WinN0b5VK7Tr7qmK6GbcCQAAAAAAAMCac4RGRdINd/jr1jv/qtmL3tXLMRFq/fUy/T3+mEqMfYE6FJR6KLTT7eo3NU6J2xP15mg/bZ07Ucu/sdwzpTF4qe+QYTod9y8dKpWkHH25fY+CIwaoiyQd26jlW4dr+vQBau/jJS+fAA2dEK07t27WvlrKf0a8tEAjuvvJy8dPQQ8O19DCRKWdMO+s5zFHvLRAUXeHKTS4g5qy+AqoU2mWEp5/WikjFiiqu2Ff9mbNCO2p8PDBmpE6WG++OExtDF0AAAAAAAAA2HKO0Mizhx6a+YJG39tNfq1ayu/3D2rchPuV89kepZEaoYG8wqdq5co5GtGrg7x8Oig4eoFeGpGlDVuS1ZirW3ndPUwjCj/QrkOS8pK1b19P3R/eQZJ0/seDOq2NmtG3p8JDzVtErFIkFdVSUefhabXcl5ef/FSkYnP/+h7T5hiAwyjSoZVTtSh/ol6a0PPyQLPNML20fa+2b0/UyruTNXns6zpUufQiAAAAAAAAgOo4R2hUDVOnruqhbF24aNwDNJSHgroPkE7n1LoU3FVzD9O9j0gffXFQBSl7tKvvcN3bybzvN0mBU7Vm+15tt9kW6P4rLZ9ojGMCTeR0wtOa/EV/vbl8ooI8jXsluXnIy8dLXj4dFDrxaY3MjtNH+xp1BAMAAAAAAADNnlOERvn7FmjS0p3Kt27MOaU0+at1K+tGoC452hrTUzMScmxaT59Iltr7NfI9fTwUet8j0qaNWrQ9Uff+x5DK5bTadL1N7scPKqPYyzwRbt68DPd3aYDGOCbQFE4nxih6ubueX/60go2B0bHVGh46x+reXZLcJHdJXp6X1SMBAAAAAAAAsOIUoZH3nYMUdmyN4rZnKP/iJRVmH9DGdz5V6wcGKMhk7A3Uxk99hw1TyuJYbTqSo4K8Ap3+YoFejvNT1P1hly+Bda0F/4fG+SRq6/bBujfcKqLqPlyz7k7WoudWKCWzwHxeryt6wmqlXemaeY1xTKCRFX/zumbMy9HYpc+pr2fFdWvZikslBQ5QRJdErVq1R6fzClSQl6O0D1Zrg0arXy+WWgQAAAAAAABq4xShkVqFa8zzE+SX/IrmPvW4Yl54Szl9XtDsyG4iM0JDeQ2J1fqZHbRl5jANGdJfj7yapftXxWlaU0w4u92mvhEdpCFD1NfHur2DIl7eqOfvPKp5Uf01ZMhgTfgfadJLExV0pUlWYxwTaFQ52rIuTid0UMvHDtaQIf2ttjnacr5iDI19J04jC1ZrQkR/DRnyn5qX0lNLN81RX2NVEgAAAAAAAAAbLuXl5eXGRntLP3lGx0+eMTY7ncDO7eTiUq4b3G6Qm5ubXN3c5OrqIheXiizPxcXF+BA0I/n5BfL2buiCdgXa+mx/fTlkr14a0tDHAo7lysYAcH3Jzy9QQOd2xmYAAAAAAAC7cI5KI8AJFBfk6MTWFVq3b7Qi7maiHQAAAAAAAADQtAiNHAVFRde5HG2ZO1hjlmUpYlWMQlkeDgAAAAAAAADQxFiezo4CO7eTq4vkdoNbxfJ0rm5ydXWtXJaO5emaN5bmwvWOMQDUjeXpAAAAAACAI6HSyN5cLP8hIAIAAAAAAAAAAPZDaGRnLi4u5k2isAgAAAAAAAAAANgLoZGdubi4msMi22ojAiQAAAAAAAAAANCUmnFoVF61lTeDzfp8rZ6Dq6uLOTgy38eoch+pEQAAAAAAAAAAaDrNKDSqCF/KKzerTMYQyTjkZpMhVT0HF3M4ZFmmjhIjAAAAAAAAAABgD80jNLKERFUNxhTGKohxvM14rpXPpLxcLq6WKqOqZ0dsBAAAAAAAAAAAmppLeXl5VVrhINJPnpFUUZFjUfF1eUXmUvn/iq9tONKzuSz9sVqCzqWixqi0rMy8RF3FPY0qK44AAMB1IaBzO2MTAAAAAACAXThsaHTcHBw5s8DO7dSh7U1ydXWVq7niiNDIeaSfPMNEIK5rjAGgbowTAAAAAADgSJrH8nROzJLZVS5lZ6iwAgAAAAAAAAAAaAqERnZWXl6usrIySaLCCAAAAAAAAAAA2A2hkZ0ZK42oMgIAAAAAAAAAAPZAaGRn1mGRdWBEeAQAAAAAAAAAAJoSoZGdlZWVERABAAAAAAAAAAC7IzSyM2OVEQESAAAAAAAAAACwB0IjOyMwAgAAAAAAAAAAjoDQyEFwPyMAAAAAAAAAAGBPhEYArkCqFgQGakGKsR0AAAAAAAAA0Fw5V2iUe1jbVs/V7CdHasXePONeh0RVkeM6t3eNZjzSR90Dx+vDs8a9zci5r7R+Q6ryje2AAyo6eUS7N61R7JNDFfJqqnG3pCL9uClWI/p1V2BgoLr3G6HYTzNtuxT+qA/njVCf4EAFBoZo6JMr9dU52y4AAAAAAAAALuc0oVHJD3F6MeYVpfo9oKdefFfjwn2MXYB6KlLqq0PV58kt6vSXddqaslQP3Wzs03zkpyZowasf6itSIzi4c5vGq3vkDH34rYc8bvix2qDz3ObJivhHkUat+lypKana+lIPffW3oYrdW2TpoYS/RejN/FFaty1VqSkJmtMuQX+JWqkjpYaDAQAAAAAAALDhHKFRaYa2/+NTtXn875o9vL86+beUp8nYyXFRbeRgDq3RjNUdteCzTYp5sLs6+XrLw83Yqfnw/tMCHTm0QEO9jXsAx3Lzg2/qeMpWvfnSGN3fwbhXkn7Uln/u1sCn5mhU8M3y9vVWp8FzNCeqSOv3HqnocnaXPtnRW5NnjlL3tt7y9u2kgX+LUcTxrfq/E8bjAQAAAAAAALDmFKFRydGdSrz4oIb19zfuAhqoSF9tXqnsiVM1qqNxX+M6t2m8AsetUcKGGRoRWrGs1oh5W5VZmqmtlqW2gvtoxKu7dc66YiL/iNVSXN3V578MS3GlLFBg4AJZL/RVdOxDxT7SR90DAxUYOkKxm36UpU5DklSaqd2vjmd5LzQtDw9ji8HvNOqdVC0dZp2AesjDw+qhbUdp7fH/rmb85ivf5iIHAAAAAAAAYOQUodH5M2kq6e2rM+9V3M9o0pMTtSLhsPJZiggNlqkfDxRpaJsfKkOV7v3Ga+X+JkpMPl+iT0on6q1tqdr/PzFqvXmyhvaaot13vqRPv0jV/vemqPWGyVqyw7JwV6bWj3tQa2+Yqo++PKIjh7bq1Y4J+suT62W4y0uVUx9qcuRaFY1cp89TUrX/nYeU+WKEJm+2PMdzSnhyqCanDzQs77VAqYWGYwFNzMNY+Ve4W1s3dtKUISFWjVZKz2n335do6+AYjepu3AkAAAAAAADAmlOERoU/Z0j74nW44wQ9v+hdLXzmUbXe/6KWbskwdgXqUKBTh6SEt3cr8PlPtT9lvzbN8FdC1F+00rz6VaPqE6vY6O662ddbNweP0dQoqejOv2jyCEvbKI0ZXqRPvjtufkAnjVqdqoS5A9XJ20Menp00cNhAKfWUcgyHtkj9KFa7h81RbOUxx+jVV4bqXOoBnZOkIx9qyY6BevW1MVXLe81dqTmea7QisYnCM6A+SjP14d8m66uopZoQbNh39kONDwxUYLc+Gv/1UG1YHKFmfGsyAAAAAAAAoEk4RWgkSRo0TePu7SrvVi3l3WWQIh8K15ndqTVXWwC1GPP6Uo0Jvlnevjer+4g5mjLsR330eROkRh7SjbW2eai1p1RktcyWx2/faf0zluXpAhX4yJqqnZc5px8OFemPIYGyXgjs5geXKuGlobpZ0rkjB5TZZ6BCfK06uP1Of+gj7f7xlFUjYE9FSl00QbEXpmjptBCb61mSdPNDWpqSqtSU3frvQfsUNYJKOQAAAAAAAKAuzhMaebSSyepbz5v8pZyLKrFqA+rLo6X1FLS3OnWQMi844A1RSo9oZdRftMXvaX2UclzHjx/X8Q8mGHsBTidz02RF7RyoDe9MUXdP415Jbh7y9q2olPvjtLkac2aN4nZblnUEAAAAAAAAUB2nCI3adu0vfX1YmVb3MCr8OVvysw2SgLoFqveD0tb91lVF+crMkjq1vqyWwf7OHdaB4wM16vE/qpPl9H4z9LFxs34f7KGvjhyXdQSWn7JeSzakKl/Szd17q9P+3UrNtepQ+qP+b7808HcdrRoB+8jcPFkRr3ro1XVzFGIMjI6s1MDAGdpqnQ+5SR6SWtuEwQAAAAAAAACMnCI08uz1gB4wva91Gw8o5+Il5Z/YqfhPktTjoUHqZOwM1MpbA/86RR5LZyh2R6byc8/pyKYFWpk4UJOHdzd2tj/fTurkuVtr/7Fbmbn5OnfoQ82Zt0ZStrJrKKoIGRmrgZsXKPbTH5VvfsyC5xboO8+O8pak7qMUM3i3nn1mvY6czVd+bqa+Wv6slhRO0NRh3BUG9lWUskATZmZryuoXNbBlvvJzq7aiUklB92pkYIKW/L1iTOTnntORuBVaozEaeBehEQAAAAAAAFAbpwiNZOqmh555QWE5b+nFpx7X7CU7VHLfQj3R38fY0yG5uLgYm2BHHiEx+u8NEcqcN1QhoX0UtfFX/eV/3tSotsaeDsDjj5oTv0B//HaGBoaG6E8vHlHIM3M0UMeVfc7Y2azjKL0ZP14e//0X9QkN0T2TPpTHfyXozeGWQOhmRby1VW8G7Na4+0IUEhqh2GP3au2Gaqo6gCZ1Tp+8uUY/KlULRvRRSGiI1TZDn5yT5NZdUzZt0l/yV2jk3SEKCf2TZnzVW2u3xWog1y8AAAAAAABQK5fy8vJyY6O9pZ88o+MnzxibnU5g53a6qXULmUwmubm5yc3NTa6urnJxcanc0HylnzyjgM7tjM3AdYMxANSNcQIAAAAAAByJc1QaNWMEQwAAAAAAAAAAwBEQGgEAAAAAAAAAAIDQyFFYVxxRfQQAAAAAAAAAAJoaoZGdWd+7iLAIAAAAAAAAAADYC6GRnVlCI4IjAAAAAAAAAABgT4RGdubq6kpQBAAAAAAAAAAA7I7QyM6sK424rxEAAAAAAAAAALAXQiM7s1QaVRccAQAAAAAAAAAANBVCIztzdXVliToAAAAAAAAAAGB3LuXl5eXGRntLP3nG2OS0SktLzRVGklQRHBEgAQBw/Qjo3M7YBAAAAAAAYBcOGxoFdG4ny6mVl5fX+HVzYwmErJeiM34NAAAAAAAAAADQ1Bw6NJJVMGR9msZTNn7viIxhkPX3NX0NAAAAAAAAAADQVBw+NFI1oZDx++bIGA4ZvwcAAAAAAAAAAGhKrsYGR2S9fJv19815Mz4XAAAAAAAAAAAAe2oWoZFFTcFLc+IMzwEAAAAAAAAAADifZhUaGRkDmOawAQAAAAAAAAAAOKJmHRoBAAAAAAAAAADg2iA0AgAAAAAAAAAAAKERAAAAAAAAAAAACI0AAAAAAAAAAABAaAQAAAAAAAAAAAARGgEAAAAAAAAAAECERgAAAMD/vz07EAAAAAAQtD/1IqURAAAAkDQCAAAAAAAgaQQAAAAAAEDSCAAAAAAAgKQRAAAAAAAASSMAAAAAAACSRgAAAAAAACSNAAAAAAAASBoBAAAAAACQNAIAAAAAACBpBAAAAAAAQNIIAAAAAACApBEAAAAAAABJIwAAAAAAAJJGAAAAAAAAJI0AAAAAAABIGgEAAAAAAJA0AgAAAAAAIGkEAAAAAABA0ggAAAAAAICkEQAAAAAAAEkjAAAAAAAAkkYAAAAAAAAkjQAAAAAAAEgaAQAAAAAAkDQCAAAAAAAgaQQAAAAAAEDSCAAAAAAAgKQRAAAAAAAASSMAAAAAAACSRgAAAAAAACSNAAAAAAAASBoBAAAAAACQNAIAAAAAACBpBAAAAAAAQNIIAAAAAACApBEAAAAAAABJIwAAAAAAAJJGAAAAAAAAJI0AAAAAAABIGgEAAAAAAJA0AgAAAAAAIGkEAAAAAABA0ggAAAAAAICkEQAAAAAAAEkjAAAAAAAAkkYAAAAAAAAkjQAAAAAAAEgaAQAAAAAAkDQCAAAAAAAgaQQAAAAAAEDSCAAAAAAAgKQRAAAAAAAASSMAAAAAAACSRgAAAAAAACSNAAAAAAAASBoBAAAAAACQNAIAAAAAACBpBAAAAAAAQNIIAAAAAACApBEAAAAAAABJIwAAAAAAAJJGAAAAAAAAJI0AAAAAAABIGgEAAAAAAJA0AgAAAAAAIGkEAAAAAABA0ggAAAAAAICkEQAAAAAAAEkjAAAAAAAAkkYAAAAAAAAkjQAAAAAAAEgaAQAAAAAAkDQCAAAAAAAgaQQAAAAAAEDSCAAAAAAAgKQRAAAAAAAASSMAAAAAAACSRgAAAAAAACSNAAAAAAAASBoBAAAAAACQNAIAAAAAACBpBAAAAAAAQNIIAAAAAACApBEAAAAAAABJIwAAAAAAAJJGAAAAAAAAJI0AAAAAAABIGgEAAAAAAJA0AgAAAAAAIGkEAAAAAABA0ggAAAAAAICkEQAAAAAAAEkjAAAAAAAAkkYAAAAAAAAkjQAAAAAAAEgaAQAAAAAAkDQCAAAAAAAgaQQAAAAAAEDSCAAAAAAAgKQRAAAAAAAASSMAAAAAAACSRgAAAAAAACSNAAAAAAAASBoBAAAAAACQNAIAAAAAACBpBAAAAAAAQNIIAAAAAACApBEAAAAAAABJIwAAAAAAAJJGAAAAAAAAJI0AAAAAAABIGgEAAAAAAJA0AgAAAAAAIGkEAAAAAABA0ggAAAAAAICkEQAAAAAAAEkjAAAAAAAAkkYAAAAAAAAkjQAAAAAAAEgaAQAAAAAAkDQCAAAAAAAgaQQAAAAAAEDSCAAAAAAAgKQRAAAAAAAASSMAAAAAAACSRgAAAAAAACSNAAAAAAAASBoBAAAAAACQNAIAAAAAACBpBAAAAAAAQNIIAAAAAACApBEAAAAAAABJIwAAAAAAAJJGAAAAAAAAJI0AAAAAAABIGgEAAAAAAJA0AgAAAAAAIGkEAAAAAABA0ggAAAAAAICkEQAAAAAAAEkjAAAAAAAAkkYAAAAAAAAkjQAAAAAAAEgaAQAAAAAAkDQCAAAAAAAgaQQAAAAAAEDSCAAAAAAAgKQRAAAAAAAASSMAAAAAAACSRgAAAAAAACSNAAAAAAAASBoBAAAAAACQNAIAAAAAACBpBAAAAAAAQNIIAAAAAACApBEAAAAAAABJIwAAAAAAAJJGAAAAAAAAJI0AAAAAAABIGgEAAAAAAJA0AgAAAAAAIGkEAAAAAABA0ggAAAAAAICkEQAAAAAAAEkjAAAAAAAAkkYAAAAAAAAkjQAAAAAAAEgaAQAAAAAAkDQCAAAAAAAgaQQAAAAAAEDSCAAAAAAAgKQRAAAAAAAASSMAAAAAAACSRgAAAAAAACSNAAAAAAAASBoBAAAAAACQNAIAAAAAACBpBAAAAAAAQNIIAAAAAACApBEAAAAAAABJIwAAAAAAAJJGAAAAAAAAJI0AAAAAAABIGgEAAAAAAJA0AgAAAAAAIGkEAAAAAABA0ggAAAAAAICkEQAAAAAAAEkjAAAAAAAAkkYAAAAAAAAkjQAAAAAAAEgaAQAAAAAAkDQCAAAAAAAgaQQAAAAAAEDSCAAAAAAAgKQRAAAAAAAASSMAAAAAAACSRgAAAAAAACSNAAAAAAAASBoBAAAAAACQNAIAAAAAACBpBAAAAAAAQNIIAAAAAACApBEAAAAAAABJIwAAAAAAAJJGAAAAAAAAJI0AAAAAAABIGgEAAAAAAJA0AgAAAAAAIGkEAAAAAABA0ggAAAAAAICkEQAAAAAAAEkjAAAAAAAAkkYAAAAAAAAkjQAAAAAAAEgaAQAAAAAAkDQCAAAAAAAgaQQAAAAAAEDSCAAAAAAAgKQRAAAAAAAASSMAAAAAAACSRgAAAAAAACSNAAAAAAAASBoBAAAAAACQNAIAAAAAACBpBAAAAAAAQNIIAAAAAACApBEAAAAAAABJIwAAAAAAAJJGAAAAAAAAJI0AAAAAAABIGgEAAAAAAJA0AgAAAAAAIGkEAAAAAABA0ggAAAAAAICkEQAAAAAAAEkjAAAAAAAAkkYAAAAAAAAkjQAAAAAAAEgaAQAAAAAAkDQCAAAAAAAgaQQAAAAAAEDSCAAAAAAAgKQRAAAAAAAASSMAAAAAAACSRgAAAAAAACSNAAAAAAAASBoBAAAAAACQNAIAAAAAACBpBAAAAAAAQNIIAAAAAACApBEAAAAAAABJIwAAAAAAAJJGAAAAAAAAJI0AAAAAAABIGgEAAAAAAJA0AgAAAAAAIGkEAAAAAABA0ggAAAAAAICkEQAAAAAAAEkjAAAAAAAAkkYAAAAAAAAkjQAAAAAAAEgaAQAAAAAAUDX3eJ2ZlaRRigAAAABJRU5ErkJggg==;clipPath=inset(0% 41% 19.46% 0%);" vertex="1" parent="1">
          <mxGeometry x="130" y="380" width="412.16" height="448.25" as="geometry" />
        </mxCell>
      </root>
    </mxGraphModel>
  </diagram>
</mxfile>
